{
classes = (
{
code = "I J P Q R";
name = salt_uc_01;
},
{
code = "I.salt J.salt P.salt Q.salt R.salt";
name = salt_uc_02;
},
{
code = "Iacute Ibreve Icircumflex Idieresis Idotaccent Igrave Imacron Iogonek Itilde Jcircumflex Racute Rcaron Rcommaaccent";
name = salt_uc_03;
},
{
code = "Iacute.salt Ibreve.salt Icircumflex.salt Idieresis.salt Idotaccent.salt Igrave.salt Imacron.salt Iogonek.salt Itilde.salt Jcircumflex.salt Racute.salt Rcaron.salt Rcommaaccent.salt";
name = salt_uc_04;
},
{
code = "f l r t u";
name = salt_lc_01;
},
{
code = "f.salt l.salt r.salt t.salt u.salt";
name = salt_lc_02;
},
{
code = "lacute lcaron lcommaaccent lslash racute rcaron rcommaaccent tbar tcaron tcedilla tcommaaccent uacute ubreve ucircumflex udieresis ugrave uhungarumlaut umacron uogonek uring utilde";
name = salt_lc_03;
},
{
code = "lacute.salt lcaron.salt lcommaaccent.salt lslash.salt racute.salt rcaron.salt rcommaaccent.salt tbar.salt tcaron.salt tcedilla.salt tcommaaccent.salt uacute.salt ubreve.salt ucircumflex.salt udieresis.salt ugrave.salt uhungarumlaut.salt umacron.salt uogonek.salt uring.salt utilde.salt";
name = salt_lc_04;
},
{

glyphs = (
{
color = 4;
glyphname = .notdef;
layers = (
{
layerId = "48B7067D-14EA-4B3A-BE9A-22D6185653A2";
paths = (
{
closed = 1;
nodes = (
"445.509 252 LINE",
"463.823 355 LINE",
"414.012 312 LINE",
"530.488 315 OFFCURVE",
"607.149 376 OFFCURVE",
"621.879 469 CURVE SMOOTH",
"623.304 478 LINE SMOOTH",
"637.876 570 OFFCURVE",
"582.487 637 OFFCURVE",
"475.487 637 CURVE SMOOTH",
"356.487 637 OFFCURVE",
"281.133 559 OFFCURVE",
"266.562 467 CURVE",
"382.562 467 LINE",
"388.264 503 OFFCURVE",
"416.015 533 OFFCURVE",
"456.015 533 CURVE SMOOTH",
"493.015 533 OFFCURVE",
"511.897 507 OFFCURVE",
"505.72 468 CURVE SMOOTH",
"500.177 433 OFFCURVE",
"475.425 403 OFFCURVE",
"428.425 403 CURVE SMOOTH",
"359.425 403 LINE",
"335.509 252 LINE"
);
},
{
closed = 1;
nodes = (
"424.435 100 LINE",
"440.907 204 LINE",
"324.907 204 LINE",
"308.435 100 LINE"
);
},
{
closed = 1;
nodes = (
"713.044 -54 LINE",
"846.403 788 LINE",
"147.403 788 LINE",
"14.044 -54 LINE"
);
},
{
closed = 1;
nodes = (
"206.95 722 LINE",
"765.95 722 LINE",
"653.497 12 LINE",
"94.497 12 LINE"
);
}
);
width = 869;
},
{
layerId = "38B5227D-F751-450D-B2B2-8DC56D0E577B";
paths = (
{
closed = 1;
nodes = (
"422.926 236 LINE",
"441.031 344 LINE",
"412.913 318 LINE",
"520.23 320 OFFCURVE",
"588.208 383 OFFCURVE",
"601.354 466 CURVE SMOOTH",
"602.621 474 LINE SMOOTH",
"615.925 558 OFFCURVE",
"565.22 623 OFFCURVE",
"470.22 623 CURVE SMOOTH",
"372.22 623 OFFCURVE",
"298.45 555 OFFCURVE",
"283.72 462 CURVE",
"351.72 462 LINE",
"360.907 520 OFFCURVE",
"403.401 561 OFFCURVE",
"458.401 561 CURVE SMOOTH",
"513.401 561 OFFCURVE",
"541.224 522 OFFCURVE",
"532.512 467 CURVE SMOOTH",
"523.801 412 OFFCURVE",
"483.466 372 OFFCURVE",
"423.466 372 CURVE SMOOTH",
"382.466 372 LINE",
"360.926 236 LINE"
);
},
{
closed = 1;
nodes = (
"408.385 100 LINE",
"420.422 176 LINE",
"344.422 176 LINE",
"332.385 100 LINE"
);
},
{
closed = 1;
nodes = (
"700.895 -42 LINE",
"830.453 776 LINE",
"151.453 776 LINE",
"21.895 -42 LINE"
);
},
{
closed = 1;
nodes = (
"198.9 722 LINE",
"765.9 722 LINE",
"653.447 12 LINE",
"86.447 12 LINE"
);
}
);
width = 859;
},
{
layerId = "BDDC71A3-6F27-45BF-8BFA-A352BA3DE3E7";
paths = (
{
closed = 1;
nodes = (
"364.955 224 LINE",
"381.585 329 LINE",
"373.893 312 LINE",
"475.893 312 OFFCURVE",
"537.821 381 OFFCURVE",
"549.859 457 CURVE SMOOTH",
"550.967 464 LINE SMOOTH",
"563.321 542 OFFCURVE",
"517.933 609 OFFCURVE",
"430.933 609 CURVE SMOOTH",
"340.933 609 OFFCURVE",
"273.163 541 OFFCURVE",
"258.908 451 CURVE",
"284.908 451 LINE",
"297.579 531 OFFCURVE",
"355.815 583 OFFCURVE",
"426.815 583 CURVE SMOOTH",
"495.815 583 OFFCURVE",
"533.896 533 OFFCURVE",
"522.334 460 CURVE SMOOTH",
"511.247 390 OFFCURVE",
"460.011 338 OFFCURVE",
"386.011 338 CURVE SMOOTH",
"358.011 338 LINE",
"339.955 224 LINE"
);
},
{
closed = 1;
nodes = (
"351.315 100 LINE",
"358.284 144 LINE",
"321.284 144 LINE",
"314.315 100 LINE"
);
},
{
closed = 1;
nodes = (
"635.685 -5 LINE",
"753.523 739 LINE",
"153.523 739 LINE",
"35.685 -5 LINE"
);
},
{
closed = 1;
nodes = (
"173.039 717 LINE",
"727.039 717 LINE",
"616.169 17 LINE",
"62.169 17 LINE"
);
}
);
width = 790;
},
{
layerId = "2089B89D-61CE-4065-A534-BEF0C3F67EB7";
name = public.background;
paths = (
{
closed = 1;
nodes = (
"388 224 LINE",
"388 329 LINE",
"383 312 LINE",
"485 312 OFFCURVE",
"536 381 OFFCURVE",
"536 457 CURVE SMOOTH",
"536 464 LINE SMOOTH",
"536 542 OFFCURVE",
"480 609 OFFCURVE",
"393 609 CURVE SMOOTH",
"303 609 OFFCURVE",
"246 541 OFFCURVE",
"246 451 CURVE",
"272 451 LINE",
"272 531 OFFCURVE",
"322 583 OFFCURVE",
"393 583 CURVE SMOOTH",
"462 583 OFFCURVE",
"508 533 OFFCURVE",
"508 460 CURVE SMOOTH",
"508 390 OFFCURVE",
"465 338 OFFCURVE",
"391 338 CURVE SMOOTH",
"363 338 LINE",
"363 224 LINE"
);
},
{
closed = 1;
nodes = (
"394 100 LINE",
"394 144 LINE",
"357 144 LINE",
"357 100 LINE"
);
},
{
closed = 1;
nodes = (
"695 -5 LINE",
"695 739 LINE",
"95 739 LINE",
"95 -5 LINE"
);
},
{
closed = 1;
nodes = (
"118 717 LINE",
"672 717 LINE",
"672 17 LINE",
"118 17 LINE"
);
}
);
width = 869;
}
);
},
{
color = 7;
glyphname = A;
layers = (
{
anchors = (
{
name = ogonek;
position = "{692, 10}";
},
{
name = top;
position = "{362, 730}";
}
);
layerId = "2089B89D-61CE-4065-A534-BEF0C3F67EB7";
name = public.background;
paths = (
{
closed = 1;
nodes = (
"74 0 LINE",
"348 715 LINE",
"322 700 LINE",
"400 700 LINE",
"374 715 LINE",
"659 0 LINE",
"692 0 LINE",
"401 730 LINE",
"323 730 LINE",
"42 0 LINE"
);
},
{
closed = 1;
nodes = (
"569 260 LINE",
"557 290 LINE",
"171 290 LINE",
"160 260 LINE"
);
}
);
width = 790;
},
{
anchors = (
{
name = ogonek;
position = "{682, 10}";
},
{
name = top;
position = "{449, 730}";
}
);
layerId = "48B7067D-14EA-4B3A-BE9A-22D6185653A2";
paths = (
{
closed = 1;
nodes = (
"136.19 0 LINE",
"414.22 600 LINE",
"357.053 580 LINE",
"489.053 580 LINE",
"439.22 600 LINE",
"532.19 0 LINE",
"724.19 0 LINE",
"597.81 730 LINE",
"299.81 730 LINE",
"-49.81 0 LINE"
);
},
{
closed = 1;
nodes = (
"556.957 169 LINE",
"525.031 321 LINE",
"248.031 321 LINE",
"167.957 169 LINE"
);
}
);
width = 790;
},
{
anchors = (
{
name = ogonek;
position = "{664, 10}";
},
{
name = top;
position = "{432, 730}";
}
);
layerId = "38B5227D-F751-450D-B2B2-8DC56D0E577B";
paths = (
{
closed = 1;
nodes = (
"68.19 0 LINE",
"410.674 666 LINE",
"355.872 642 LINE",
"473.872 642 LINE",
"429.674 666 LINE",
"569.19 0 LINE",
"670.19 0 LINE",
"514.81 730 LINE",
"348.81 730 LINE",
"-29.81 0 LINE"
);
},
{
closed = 1;
nodes = (
"542.717 218 LINE",
"523.655 306 LINE",
"208.655 306 LINE",
"161.717 218 LINE"
);
}
);
width = 756;
},
{
anchors = (
{
name = ogonek;
position = "{636, 10}";
},
{
name = top;
position = "{420, 730}";
}
);
layerId = "BDDC71A3-6F27-45BF-8BFA-A352BA3DE3E7";
paths = (
{
closed = 1;
nodes = (
"16.19 0 LINE",
"403.435 715 LINE",
"375.059 700 LINE",
"453.059 700 LINE",
"429.435 715 LINE",
"601.19 0 LINE",
"634.19 0 LINE",
"458.81 730 LINE",
"380.81 730 LINE",
"-15.81 0 LINE"
);
},
{
closed = 1;
nodes = (
"552.37 260 LINE",
"545.121 290 LINE",
"159.121 290 LINE",
"143.37 260 LINE"
);
}
);
width = 734;
}
);
leftKerningGroup = UC_A;
rightKerningGroup = UC_A;
unicode = 0041;
},
{
color = 7;
glyphname = AE;
leftMetricsKey = "=A-16";
rightMetricsKey = E;
layers = (
{
layerId = "48B7067D-14EA-4B3A-BE9A-22D6185653A2";
paths = (
{
closed = 1;
nodes = (
"120.19 0 LINE",
"452.22 600 LINE",
"399.053 580 LINE",
"527.053 580 LINE",
"550.81 730 LINE",
"337.81 730 LINE",
"-65.81 0 LINE"
);
},
{
closed = 1;
nodes = (
"463.54 179 LINE",
"487.773 332 LINE",
"267.773 332 LINE",
"187.54 179 LINE"
);
},
{
closed = 1;
nodes = (
"591.19 0 LINE",
"706.81 730 LINE",
"529.81 730 LINE",
"414.19 0 LINE"
);
},
{
closed = 1;
nodes = (
"878.19 0 LINE",
"902.264 152 LINE",
"594.264 152 LINE",
"570.19 0 LINE"
);
},
{
closed = 1;
nodes = (
"904.913 295 LINE",
"928.988 447 LINE",
"640.988 447 LINE",
"616.913 295 LINE"
);
},
{
closed = 1;
nodes = (
"963.736 578 LINE",
"987.81 730 LINE",
"685.81 730 LINE",
"661.736 578 LINE"
);
}
);
width = 986;
},
{
layerId = "38B5227D-F751-450D-B2B2-8DC56D0E577B";
paths = (
{
closed = 1;
nodes = (
"52.19 0 LINE",
"419.674 666 LINE",
"364.872 642 LINE",
"542.872 642 LINE",
"556.81 730 LINE",
"358.81 730 LINE",
"-45.81 0 LINE"
);
},
{
closed = 1;
nodes = (
"480.311 247 LINE",
"494.407 336 LINE",
"209.407 336 LINE",
"159.311 247 LINE"
);
},
{
closed = 1;
nodes = (
"519.19 0 LINE",
"634.81 730 LINE",
"535.81 730 LINE",
"420.19 0 LINE"
);
},
{
closed = 1;
nodes = (
"852.19 0 LINE",
"866.128 88 LINE",
"512.128 88 LINE",
"498.19 0 LINE"
);
},
{
closed = 1;
nodes = (
"873.981 327 LINE",
"887.919 415 LINE",
"563.919 415 LINE",
"549.981 327 LINE"
);
},
{
closed = 1;
nodes = (
"943.872 642 LINE",
"957.81 730 LINE",
"613.81 730 LINE",
"599.872 642 LINE"
);
}
);
width = 972;
},
{
layerId = "BDDC71A3-6F27-45BF-8BFA-A352BA3DE3E7";
paths = (
{
closed = 1;
nodes = (
"0.19 0 LINE",
"401.435 715 LINE",
"377.059 700 LINE",
"555.059 700 LINE",
"559.81 730 LINE",
"380.81 730 LINE",
"-31.81 0 LINE"
);
},
{
closed = 1;
nodes = (
"493.764 313 LINE",
"498.516 343 LINE",
"176.516 343 LINE",
"162.764 313 LINE"
);
},
{
closed = 1;
nodes = (
"463.19 0 LINE",
"578.81 730 LINE",
"546.81 730 LINE",
"431.19 0 LINE"
);
},
{
closed = 1;
nodes = (
"830.19 0 LINE",
"834.941 30 LINE",
"452.941 30 LINE",
"448.19 0 LINE"
);
},
{
closed = 1;
nodes = (
"846.941 352 LINE",
"851.693 382 LINE",
"508.693 382 LINE",
"503.941 352 LINE"
);
},
{
closed = 1;
nodes = (
"928.059 700 LINE",
"932.81 730 LINE",
"563.81 730 LINE",
"559.059 700 LINE"
);
}
);
width = 962;
},
{
layerId = "2089B89D-61CE-4065-A534-BEF0C3F67EB7";
name = public.background;
paths = (
{
closed = 1;
nodes = (
"58 0 LINE",
"346 715 LINE",
"324 700 LINE",
"502 700 LINE",
"502 730 LINE",
"323 730 LINE",
"26 0 LINE"
);
},
{
closed = 1;
nodes = (
"502 313 LINE",
"502 343 LINE",
"180 343 LINE",
"171 313 LINE"
);
},
{
closed = 1;
nodes = (
"521 0 LINE",
"521 730 LINE",
"489 730 LINE",
"489 0 LINE"
);
},
{
closed = 1;
nodes = (
"888 0 LINE",
"888 30 LINE",
"506 30 LINE",
"506 0 LINE"
);
},
{
closed = 1;
nodes = (
"849 352 LINE",
"849 382 LINE",
"506 382 LINE",
"506 352 LINE"
);
},
{
closed = 1;
nodes = (
"875 700 LINE",
"875 730 LINE",
"506 730 LINE",
"506 700 LINE"
);
}
);
width = 986;
}
);
leftKerningGroup = UC_AE;
rightKerningGroup = UC_E;
unicode = 00C6;
},
{
color = 7;
glyphname = B;
leftMetricsKey = H;
layers = (
{
layerId = "48B7067D-14EA-4B3A-BE9A-22D6185653A2";
paths = (
{
closed = 1;
nodes = (
"331.764 -6 LINE SMOOTH",
"504.764 -6 OFFCURVE",
"612.96 71 OFFCURVE",
"634.025 204 CURVE SMOOTH",
"636.242 218 LINE SMOOTH",
"658.416 358 OFFCURVE",
"551.494 409 OFFCURVE",
"397.494 409 CURVE SMOOTH",
"242.494 409 LINE",
"225.071 299 LINE",
"386.071 299 LINE SMOOTH",
"441.071 299 OFFCURVE",
"462.637 271 OFFCURVE",
"454.242 218 CURVE SMOOTH",
"445.69 164 OFFCURVE",
"415.255 136 OFFCURVE",
"360.255 136 CURVE SMOOTH",
"199.255 136 LINE",
"176.764 -6 LINE"
);
},
{
closed = 1;
nodes = (
"196.764 -6 LINE",
"314.285 736 LINE",
"134.285 736 LINE",
"16.764 -6 LINE"
);
},
{
closed = 1;
nodes = (
"355.506 327 LINE SMOOTH",
"506.506 327 OFFCURVE",
"631.267 376 OFFCURVE",
"653.283 515 CURVE SMOOTH",
"655.658 530 LINE SMOOTH",
"676.565 662 OFFCURVE",
"590.285 736 OFFCURVE",
"420.285 736 CURVE SMOOTH",
"294.285 736 LINE",
"271.795 594 LINE",
"405.795 594 LINE SMOOTH",
"459.795 594 OFFCURVE",
"479.202 565 OFFCURVE",
"471.283 515 CURVE SMOOTH",
"463.522 466 OFFCURVE",
"434.929 437 OFFCURVE",
"380.929 437 CURVE SMOOTH",
"246.929 437 LINE",
"229.506 327 LINE"
);
}
);
width = 698;
},
{
layerId = "38B5227D-F751-450D-B2B2-8DC56D0E577B";
paths = (
{
closed = 1;
nodes = (
"316.239 -4 LINE SMOOTH",
"476.239 -4 OFFCURVE",
"565.643 68 OFFCURVE",
"585.916 196 CURVE SMOOTH",
"588.134 210 LINE SMOOTH",
"609.516 345 OFFCURVE",
"518.801 391 OFFCURVE",
"378.801 391 CURVE SMOOTH",
"188.801 391 LINE",
"178.665 327 LINE",
"382.665 327 LINE SMOOTH",
"462.665 327 OFFCURVE",
"499.379 281 OFFCURVE",
"487.342 205 CURVE SMOOTH",
"475.463 130 OFFCURVE",
"422.86 82 OFFCURVE",
"343.86 82 CURVE SMOOTH",
"139.86 82 LINE",
"126.239 -4 LINE"
);
},
{
closed = 1;
nodes = (
"146.239 -4 LINE",
"263.127 734 LINE",
"165.127 734 LINE",
"48.239 -4 LINE"
);
},
{
closed = 1;
nodes = (
"341.516 345 LINE SMOOTH",
"482.516 345 OFFCURVE",
"586.484 389 OFFCURVE",
"607.866 524 CURVE SMOOTH",
"610.084 538 LINE SMOOTH",
"630.199 665 OFFCURVE",
"563.127 734 OFFCURVE",
"403.127 734 CURVE SMOOTH",
"243.127 734 LINE",
"229.506 648 LINE",
"406.506 648 LINE SMOOTH",
"488.506 648 OFFCURVE",
"519.745 599 OFFCURVE",
"508.5 528 CURVE SMOOTH",
"497.413 458 OFFCURVE",
"450.652 409 OFFCURVE",
"368.652 409 CURVE SMOOTH",
"191.652 409 LINE",
"181.516 345 LINE"
);
}
);
width = 681;
},
{
layerId = "BDDC71A3-6F27-45BF-8BFA-A352BA3DE3E7";
paths = (
{
closed = 1;
nodes = (
"315.715 -2 LINE SMOOTH",
"450.715 -2 OFFCURVE",
"532.494 85 OFFCURVE",
"548.808 188 CURVE SMOOTH",
"550.075 196 LINE SMOOTH",
"568.13 310 OFFCURVE",
"495.217 380 OFFCURVE",
"376.217 380 CURVE SMOOTH",
"149.217 380 LINE",
"145.416 356 LINE",
"378.416 356 LINE SMOOTH",
"483.416 356 OFFCURVE",
"532.488 287 OFFCURVE",
"517.441 192 CURVE SMOOTH",
"502.236 96 OFFCURVE",
"429.466 28 OFFCURVE",
"326.466 28 CURVE SMOOTH",
"93.466 28 LINE",
"88.715 -2 LINE"
);
},
{
closed = 1;
nodes = (
"104.715 -2 LINE",
"220.969 732 LINE",
"188.969 732 LINE",
"72.715 -2 LINE"
);
},
{
closed = 1;
nodes = (
"346.366 362 LINE SMOOTH",
"471.366 362 OFFCURVE",
"557.137 430 OFFCURVE",
"574.559 540 CURVE SMOOTH",
"575.826 548 LINE SMOOTH",
"592.615 654 OFFCURVE",
"539.969 732 OFFCURVE",
"404.969 732 CURVE SMOOTH",
"204.969 732 LINE",
"200.217 702 LINE",
"406.217 702 LINE SMOOTH",
"517.217 702 OFFCURVE",
"557.764 636 OFFCURVE",
"543.192 544 CURVE SMOOTH",
"528.621 452 OFFCURVE",
"467.168 386 OFFCURVE",
"356.168 386 CURVE SMOOTH",
"150.168 386 LINE",
"146.366 362 LINE"
);
}
);
width = 661;
},
{
layerId = "2089B89D-61CE-4065-A534-BEF0C3F67EB7";
name = public.background;
paths = (
{
closed = 1;
nodes = (
"373 -2 LINE SMOOTH",
"508 -2 OFFCURVE",
"576 85 OFFCURVE",
"576 188 CURVE SMOOTH",
"576 196 LINE SMOOTH",
"576 310 OFFCURVE",
"492 380 OFFCURVE",
"373 380 CURVE SMOOTH",
"146 380 LINE",
"146 356 LINE",
"379 356 LINE SMOOTH",
"484 356 OFFCURVE",
"544 287 OFFCURVE",
"544 192 CURVE SMOOTH",
"544 96 OFFCURVE",
"482 28 OFFCURVE",
"379 28 CURVE SMOOTH",
"146 28 LINE",
"146 -2 LINE"
);
},
{
closed = 1;
nodes = (
"162 -2 LINE",
"162 732 LINE",
"130 732 LINE",
"130 -2 LINE"
);
},
{
closed = 1;
nodes = (
"346 362 LINE SMOOTH",
"471 362 OFFCURVE",
"546 430 OFFCURVE",
"546 540 CURVE SMOOTH",
"546 548 LINE SMOOTH",
"546 654 OFFCURVE",
"481 732 OFFCURVE",
"346 732 CURVE SMOOTH",
"146 732 LINE",
"146 702 LINE",
"352 702 LINE SMOOTH",
"463 702 OFFCURVE",
"514 636 OFFCURVE",
"514 544 CURVE SMOOTH",
"514 452 OFFCURVE",
"463 386 OFFCURVE",
"352 386 CURVE SMOOTH",
"146 386 LINE",
"146 362 LINE"
);
}
);
width = 698;
}
);
leftKerningGroup = UC_Stem;
rightKerningGroup = UC_B;
unicode = 0042;
},
{
color = 7;
glyphname = C;
leftMetricsKey = O;
layers = (
{
anchors = (
{
name = bottom;
position = "{425, 0}";
},
{
name = top;
position = "{421, 730}";
}
);
layerId = "2089B89D-61CE-4065-A534-BEF0C3F67EB7";
name = public.background;
paths = (
{
closed = 1;
nodes = (
"602 -16 OFFCURVE",
"719 84 OFFCURVE",
"744 237 CURVE",
"712 237 LINE",
"688 94 OFFCURVE",
"578 14 OFFCURVE",
"429 14 CURVE SMOOTH",
"208 14 OFFCURVE",
"102 194 OFFCURVE",
"102 366 CURVE SMOOTH",
"102 551 OFFCURVE",
"213 718 OFFCURVE",
"421 718 CURVE SMOOTH",
"565 718 OFFCURVE",
"679 637 OFFCURVE",
"697 495 CURVE",
"729 495 LINE",
"710 647 OFFCURVE",
"591 748 OFFCURVE",
"421 748 CURVE SMOOTH",
"185 748 OFFCURVE",
"70 557 OFFCURVE",
"70 372 CURVE SMOOTH",
"70 360 LINE SMOOTH",
"70 188 OFFCURVE",
"180 -16 OFFCURVE",
"429 -16 CURVE SMOOTH"
);
}
);
width = 802;
},
{
anchors = (
{
name = bottom;
position = "{356, 0}";
},
{
name = top;
position = "{468, 730}";
}
);
layerId = "48B7067D-14EA-4B3A-BE9A-22D6185653A2";
paths = (
{
closed = 1;
nodes = (
"563.28 -20 OFFCURVE",
"718.503 114 OFFCURVE",
"762.637 279 CURVE",
"576.637 279 LINE",
"551.599 203 OFFCURVE",
"472.839 154 OFFCURVE",
"379.839 154 CURVE SMOOTH",
"260.839 154 OFFCURVE",
"203.668 235 OFFCURVE",
"224.416 366 CURVE SMOOTH",
"245.006 496 OFFCURVE",
"325.994 578 OFFCURVE",
"441.994 578 CURVE SMOOTH",
"533.994 578 OFFCURVE",
"591.074 528 OFFCURVE",
"593.196 453 CURVE",
"779.196 453 LINE",
"790.388 631 OFFCURVE",
"669.553 752 OFFCURVE",
"469.553 752 CURVE SMOOTH",
"217.553 752 OFFCURVE",
"67.301 561 OFFCURVE",
"38.317 378 CURVE SMOOTH",
"34.832 356 LINE SMOOTH",
"8.54 190 OFFCURVE",
"89.28 -20 OFFCURVE",
"352.28 -20 CURVE SMOOTH"
);
}
);
width = 802;
},
{
anchors = (
{
name = bottom;
position = "{360, 0}";
},
{
name = top;
position = "{474, 730}";
}
);
layerId = "38B5227D-F751-450D-B2B2-8DC56D0E577B";
paths = (
{
closed = 1;
nodes = (
"565.755 -18 OFFCURVE",
"697.236 105 OFFCURVE",
"740.994 255 CURVE",
"640.994 255 LINE",
"603.146 136 OFFCURVE",
"501.01 72 OFFCURVE",
"376.01 72 CURVE SMOOTH",
"198.01 72 OFFCURVE",
"130.708 209 OFFCURVE",
"155.575 366 CURVE SMOOTH",
"181.55 530 OFFCURVE",
"290.14 660 OFFCURVE",
"463.14 660 CURVE SMOOTH",
"582.14 660 OFFCURVE",
"665.795 601 OFFCURVE",
"663.155 477 CURVE",
"763.155 477 LINE",
"770.289 642 OFFCURVE",
"672.394 750 OFFCURVE",
"477.394 750 CURVE SMOOTH",
"220.394 750 OFFCURVE",
"85.351 554 OFFCURVE",
"57.475 378 CURVE SMOOTH",
"53.991 356 LINE SMOOTH",
"28.174 193 OFFCURVE",
"93.755 -18 OFFCURVE",
"361.755 -18 CURVE SMOOTH"
);
}
);
width = 796;
},
{
anchors = (
{
name = bottom;
position = "{366, 0}";
},
{
name = top;
position = "{477, 730}";
}
);
layerId = "BDDC71A3-6F27-45BF-8BFA-A352BA3DE3E7";
paths = (
{
closed = 1;
nodes = (
"540.23 -16 OFFCURVE",
"673.069 84 OFFCURVE",
"722.301 237 CURVE",
"690.301 237 LINE",
"643.652 94 OFFCURVE",
"520.982 14 OFFCURVE",
"371.982 14 CURVE SMOOTH",
"150.982 14 OFFCURVE",
"73.491 194 OFFCURVE",
"100.733 366 CURVE SMOOTH",
"130.034 551 OFFCURVE",
"267.484 718 OFFCURVE",
"475.484 718 CURVE SMOOTH",
"619.484 718 OFFCURVE",
"720.655 637 OFFCURVE",
"716.165 495 CURVE",
"748.165 495 LINE",
"753.239 647 OFFCURVE",
"650.236 748 OFFCURVE",
"480.236 748 CURVE SMOOTH",
"244.236 748 OFFCURVE",
"98.984 557 OFFCURVE",
"69.683 372 CURVE SMOOTH",
"67.783 360 LINE SMOOTH",
"40.54 188 OFFCURVE",
"118.23 -16 OFFCURVE",
"367.23 -16 CURVE SMOOTH"
);
}
);
width = 792;
}
);
leftKerningGroup = UC_Round;
rightKerningGroup = UC_C;
unicode = 0043;
},
{
color = 7;
glyphname = D;
leftMetricsKey = H;
rightMetricsKey = "=O-10";
layers = (
{
anchors = (
{
name = bottom;
position = "{393, 0}";
},
{
name = center;
position = "{206, 365}";
},
{
name = top;
position = "{391, 730}";
}
);
layerId = "2089B89D-61CE-4065-A534-BEF0C3F67EB7";
name = public.background;
paths = (
{
closed = 1;
nodes = (
"372 -3 LINE SMOOTH",
"636 -3 OFFCURVE",
"744 183 OFFCURVE",
"744 360 CURVE SMOOTH",
"744 373 LINE SMOOTH",
"744 555 OFFCURVE",
"628 732 OFFCURVE",
"372 732 CURVE SMOOTH",
"143 732 LINE",
"143 702 LINE",
"376 702 LINE SMOOTH",
"607 702 OFFCURVE",
"712 543 OFFCURVE",
"712 366 CURVE SMOOTH",
"712 195 OFFCURVE",
"613 27 OFFCURVE",
"376 27 CURVE SMOOTH",
"143 27 LINE",
"143 -3 LINE"
);
},
{
closed = 1;
nodes = (
"162 -3 LINE",
"162 732 LINE",
"130 732 LINE",
"130 -3 LINE"
);
}
);
width = 796;
},
{
anchors = (
{
name = bottom;
position = "{332, 0}";
},
{
name = center;
position = "{209, 365}";
},
{
name = top;
position = "{439, 730}";
}
);
layerId = "48B7067D-14EA-4B3A-BE9A-22D6185653A2";
paths = (
{
closed = 1;
nodes = (
"294.081 -4 LINE SMOOTH",
"557.081 -4 OFFCURVE",
"720.59 176 OFFCURVE",
"749.099 356 CURVE SMOOTH",
"752.584 378 LINE SMOOTH",
"783.469 573 OFFCURVE",
"674.285 736 OFFCURVE",
"411.285 736 CURVE SMOOTH",
"299.285 736 LINE",
"271.727 562 LINE",
"391.727 562 LINE SMOOTH",
"517.727 562 OFFCURVE",
"583.115 495 OFFCURVE",
"562.842 367 CURVE SMOOTH",
"543.519 245 OFFCURVE",
"455.64 170 OFFCURVE",
"329.64 170 CURVE SMOOTH",
"209.64 170 LINE",
"182.081 -4 LINE"
);
},
{
closed = 1;
nodes = (
"202.081 -4 LINE",
"319.285 736 LINE",
"133.285 736 LINE",
"16.081 -4 LINE"
);
}
);
width = 781;
},
{
anchors = (
{
name = bottom;
position = "{334, 0}";
},
{
name = center;
position = "{206, 365}";
},
{
name = top;
position = "{434, 730}";
}
);
layerId = "38B5227D-F751-450D-B2B2-8DC56D0E577B";
paths = (
{
closed = 1;
nodes = (
"298.239 -4 LINE SMOOTH",
"561.239 -4 OFFCURVE",
"717.857 183 OFFCURVE",
"745.099 355 CURVE SMOOTH",
"748.584 377 LINE SMOOTH",
"776.46 553 OFFCURVE",
"678.127 734 OFFCURVE",
"415.127 734 CURVE SMOOTH",
"243.127 734 LINE",
"228.872 644 LINE",
"410.872 644 LINE SMOOTH",
"585.872 644 OFFCURVE",
"672.817 530 OFFCURVE",
"646.842 366 CURVE SMOOTH",
"621.817 208 OFFCURVE",
"497.494 86 OFFCURVE",
"322.494 86 CURVE SMOOTH",
"140.494 86 LINE",
"126.239 -4 LINE"
);
},
{
closed = 1;
nodes = (
"146.239 -4 LINE",
"263.127 734 LINE",
"165.127 734 LINE",
"48.239 -4 LINE"
);
}
);
width = 793;
},
{
anchors = (
{
name = bottom;
position = "{336, 0}";
},
{
name = center;
position = "{207, 365}";
},
{
name = top;
position = "{450, 730}";
}
);
layerId = "BDDC71A3-6F27-45BF-8BFA-A352BA3DE3E7";
paths = (
{
closed = 1;
nodes = (
"314.556 -3 LINE SMOOTH",
"578.556 -3 OFFCURVE",
"716.016 183 OFFCURVE",
"744.05 360 CURVE SMOOTH",
"746.109 373 LINE SMOOTH",
"774.935 555 OFFCURVE",
"686.969 732 OFFCURVE",
"430.969 732 CURVE SMOOTH",
"201.969 732 LINE",
"197.217 702 LINE",
"430.217 702 LINE SMOOTH",
"661.217 702 OFFCURVE",
"741.034 543 OFFCURVE",
"713 366 CURVE SMOOTH",
"685.916 195 OFFCURVE",
"560.308 27 OFFCURVE",
"323.308 27 CURVE SMOOTH",
"90.308 27 LINE",
"85.556 -3 LINE"
);
},
{
closed = 1;
nodes = (
"104.556 -3 LINE",
"220.969 732 LINE",
"188.969 732 LINE",
"72.556 -3 LINE"
);
}
);
width = 807;
}
);
leftKerningGroup = UC_Stem;
rightKerningGroup = UC_Round;
unicode = 0044;
},
{
color = 7;
glyphname = E;
leftMetricsKey = H;
layers = (
{
anchors = (
{
name = bottom;
position = "{333, 0}";
},
{
name = ogonek;
position = "{534, 10}";
},
{
name = top;
position = "{324, 730}";
}
);
layerId = "2089B89D-61CE-4065-A534-BEF0C3F67EB7";
name = public.background;
paths = (
{
closed = 1;
nodes = (
"162 0 LINE",
"162 730 LINE",
"130 730 LINE",
"130 0 LINE"
);
},
{
closed = 1;
nodes = (
"534 0 LINE",
"534 30 LINE",
"147 30 LINE",
"147 0 LINE"
);
},
{
closed = 1;
nodes = (
"495 356 LINE",
"495 386 LINE",
"147 386 LINE",
"147 356 LINE"
);
},
{
closed = 1;
nodes = (
"521 700 LINE",
"521 730 LINE",
"147 730 LINE",
"147 700 LINE"
);
}
);
width = 592;
},
{
anchors = (
{
name = bottom;
position = "{250, 0}";
},
{
name = ogonek;
position = "{483, 10}";
},
{
name = top;
position = "{362, 730}";
}
);
layerId = "48B7067D-14EA-4B3A-BE9A-22D6185653A2";
paths = (
{
closed = 1;
nodes = (
"196.19 0 LINE",
"311.81 730 LINE",
"131.81 730 LINE",
"16.19 0 LINE"
);
},
{
closed = 1;
nodes = (
"484.19 0 LINE",
"508.264 152 LINE",
"200.264 152 LINE",
"176.19 0 LINE"
);
},
{
closed = 1;
nodes = (
"509.913 295 LINE",
"533.988 447 LINE",
"246.988 447 LINE",
"222.913 295 LINE"
);
},
{
closed = 1;
nodes = (
"569.736 578 LINE",
"593.81 730 LINE",
"291.81 730 LINE",
"267.736 578 LINE"
);
}
);
width = 592;
},
{
anchors = (
{
name = bottom;
position = "{264, 0}";
},
{
name = ogonek;
position = "{482, 10}";
},
{
name = top;
position = "{381, 730}";
}
);
layerId = "38B5227D-F751-450D-B2B2-8DC56D0E577B";
paths = (
{
closed = 1;
nodes = (
"146.19 0 LINE",
"261.81 730 LINE",
"163.81 730 LINE",
"48.19 0 LINE"
);
},
{
closed = 1;
nodes = (
"480.19 0 LINE",
"494.128 88 LINE",
"140.128 88 LINE",
"126.19 0 LINE"
);
},
{
closed = 1;
nodes = (
"500.981 327 LINE",
"514.919 415 LINE",
"191.919 415 LINE",
"177.981 327 LINE"
);
},
{
closed = 1;
nodes = (
"571.872 642 LINE",
"585.81 730 LINE",
"241.81 730 LINE",
"227.872 642 LINE"
);
}
);
width = 600;
},
{
anchors = (
{
name = bottom;
position = "{275, 0}";
},
{
name = ogonek;
position = "{478, 10}";
},
{
name = top;
position = "{382, 730}";
}
);
layerId = "BDDC71A3-6F27-45BF-8BFA-A352BA3DE3E7";
paths = (
{
closed = 1;
nodes = (
"104.19 0 LINE",
"219.81 730 LINE",
"187.81 730 LINE",
"72.19 0 LINE"
);
},
{
closed = 1;
nodes = (
"476.19 0 LINE",
"480.941 30 LINE",
"93.941 30 LINE",
"89.19 0 LINE"
);
},
{
closed = 1;
nodes = (
"493.575 356 LINE",
"498.326 386 LINE",
"150.326 386 LINE",
"145.575 356 LINE"
);
},
{
closed = 1;
nodes = (
"574.059 700 LINE",
"578.81 730 LINE",
"204.81 730 LINE",
"200.059 700 LINE"
);
}
);
width = 608;
}
);
leftKerningGroup = UC_Stem;
rightKerningGroup = UC_E;
unicode = 0045;
},
{
color = 7;
glyphname = F;
leftMetricsKey = H;
layers = (
{
layerId = "48B7067D-14EA-4B3A-BE9A-22D6185653A2";
paths = (
{
closed = 1;
nodes = (
"202.19 0 LINE",
"317.81 730 LINE",
"131.81 730 LINE",
"16.19 0 LINE"
);
},
{
closed = 1;
nodes = (
"498.012 283 LINE",
"522.087 435 LINE",
"251.087 435 LINE",
"227.012 283 LINE"
);
},
{
closed = 1;
nodes = (
"555.736 578 LINE",
"579.81 730 LINE",
"297.81 730 LINE",
"273.736 578 LINE"
);
}
);
width = 560;
},
{
layerId = "38B5227D-F751-450D-B2B2-8DC56D0E577B";
paths = (
{
closed = 1;
nodes = (
"146.19 0 LINE",
"261.81 730 LINE",
"163.81 730 LINE",
"48.19 0 LINE"
);
},
{
closed = 1;
nodes = (
"490.823 326 LINE",
"504.761 414 LINE",
"191.602 413 LINE",
"177.665 325 LINE"
);
},
{
closed = 1;
nodes = (
"557.872 642 LINE",
"571.81 730 LINE",
"241.81 730 LINE",
"227.872 642 LINE"
);
}
);
width = 560;
},
{
layerId = "BDDC71A3-6F27-45BF-8BFA-A352BA3DE3E7";
paths = (
{
closed = 1;
nodes = (
"104.11 0 LINE",
"219.731 730 LINE",
"187.731 730 LINE",
"72.11 0 LINE"
);
},
{
closed = 1;
nodes = (
"485.446 362 LINE",
"490.197 392 LINE",
"147.039 391 LINE",
"142.129 360 LINE"
);
},
{
closed = 1;
nodes = (
"561.138 701 LINE",
"565.89 731 LINE",
"200.731 730 LINE",
"196.138 701 LINE"
);
}
);
width = 560;
},
{
layerId = "2089B89D-61CE-4065-A534-BEF0C3F67EB7";
name = public.background;
paths = (
{
closed = 1;
nodes = (
"162 0 LINE",
"162 730 LINE",
"130 730 LINE",
"130 0 LINE"
);
},
{
closed = 1;
nodes = (
"486 362 LINE",
"486 392 LINE",
"143 391 LINE",
"143 360 LINE"
);
},
{
closed = 1;
nodes = (
"508 701 LINE",
"508 731 LINE",
"143 730 LINE",
"143 701 LINE"
);
}
);
width = 560;
}
);
leftKerningGroup = UC_Stem;
unicode = 0046;
},
{
color = 7;
glyphname = G;
leftMetricsKey = O;
layers = (
{
anchors = (
{
name = bottom;
position = "{430, 0}";
},
{
name = top;
position = "{419, 730}";
}
);
layerId = "2089B89D-61CE-4065-A534-BEF0C3F67EB7";
name = public.background;
paths = (
{
closed = 1;
nodes = (
"562 -16 OFFCURVE",
"657 31 OFFCURVE",
"714 102 CURVE",
"714 302 LINE",
"682 302 LINE",
"682 87 LINE",
"699 132 LINE",
"646 58 OFFCURVE",
"552 14 OFFCURVE",
"435 14 CURVE SMOOTH",
"196 14 OFFCURVE",
"102 194 OFFCURVE",
"102 366 CURVE SMOOTH",
"102 551 OFFCURVE",
"211 718 OFFCURVE",
"419 718 CURVE SMOOTH",
"563 718 OFFCURVE",
"675 637 OFFCURVE",
"693 495 CURVE",
"725 495 LINE",
"706 647 OFFCURVE",
"589 748 OFFCURVE",
"419 748 CURVE SMOOTH",
"183 748 OFFCURVE",
"70 557 OFFCURVE",
"70 372 CURVE SMOOTH",
"70 360 LINE SMOOTH",
"70 188 OFFCURVE",
"168 -16 OFFCURVE",
"435 -16 CURVE SMOOTH"
);
},
{
closed = 1;
nodes = (
"785 292 LINE",
"785 320 LINE",
"407 320 LINE",
"407 292 LINE"
);
}
);
width = 833;
},
{
anchors = (
{
name = bottom;
position = "{369, 0}";
},
{
name = top;
position = "{465, 730}";
}
);
layerId = "48B7067D-14EA-4B3A-BE9A-22D6185653A2";
paths = (
{
closed = 1;
nodes = (
"512.28 -20 OFFCURVE",
"638.624 39 OFFCURVE",
"716.255 144 CURVE",
"740.012 294 LINE",
"570.012 294 LINE",
"544.829 135 LINE",
"576.252 245 LINE",
"543.224 188 OFFCURVE",
"474.205 150 OFFCURVE",
"391.205 150 CURVE SMOOTH",
"259.205 150 OFFCURVE",
"204.776 242 OFFCURVE",
"224.416 366 CURVE SMOOTH",
"243.897 489 OFFCURVE",
"322.994 578 OFFCURVE",
"442.994 578 CURVE SMOOTH",
"536.994 578 OFFCURVE",
"594.916 527 OFFCURVE",
"596.463 461 CURVE",
"782.463 461 LINE",
"792.546 632 OFFCURVE",
"671.553 752 OFFCURVE",
"470.553 752 CURVE SMOOTH",
"220.553 752 OFFCURVE",
"67.143 560 OFFCURVE",
"38.317 378 CURVE SMOOTH",
"34.832 356 LINE SMOOTH",
"8.065 187 OFFCURVE",
"89.28 -20 OFFCURVE",
"364.28 -20 CURVE SMOOTH"
);
},
{
closed = 1;
nodes = (
"794.311 258 LINE",
"814.901 388 LINE",
"408.901 388 LINE",
"388.311 258 LINE"
);
}
);
width = 833;
},
{
anchors = (
{
name = bottom;
position = "{375, 0}";
},
{
name = top;
position = "{470, 730}";
}
);
layerId = "38B5227D-F751-450D-B2B2-8DC56D0E577B";
paths = (
{
closed = 1;
nodes = (
"502.755 -18 OFFCURVE",
"615.674 32 OFFCURVE",
"694.295 118 CURVE",
"721.854 292 LINE",
"629.854 292 LINE",
"595.485 75 LINE",
"650.332 194 LINE",
"594.612 120 OFFCURVE",
"496.693 70 OFFCURVE",
"383.693 70 CURVE SMOOTH",
"223.693 70 OFFCURVE",
"123.531 170 OFFCURVE",
"155.366 371 CURVE SMOOTH",
"183.084 546 OFFCURVE",
"308.14 660 OFFCURVE",
"461.14 660 CURVE SMOOTH",
"572.14 660 OFFCURVE",
"663.478 599 OFFCURVE",
"658.155 477 CURVE",
"758.155 477 LINE",
"768.655 638 OFFCURVE",
"657.394 750 OFFCURVE",
"475.394 750 CURVE SMOOTH",
"250.394 750 OFFCURVE",
"86.885 570 OFFCURVE",
"57.267 383 CURVE SMOOTH",
"53.783 361 LINE SMOOTH",
"19.096 142 OFFCURVE",
"143.755 -18 OFFCURVE",
"369.755 -18 CURVE SMOOTH"
);
},
{
closed = 1;
nodes = (
"780.686 272 LINE",
"793.674 354 LINE",
"402.674 354 LINE",
"389.686 272 LINE"
);
}
);
width = 831;
},
{
anchors = (
{
name = bottom;
position = "{371, 0}";
},
{
name = top;
position = "{475, 730}";
}
);
layerId = "BDDC71A3-6F27-45BF-8BFA-A352BA3DE3E7";
paths = (
{
closed = 1;
nodes = (
"500.23 -16 OFFCURVE",
"602.674 31 OFFCURVE",
"670.919 102 CURVE",
"702.596 302 LINE",
"670.596 302 LINE",
"636.544 87 LINE",
"660.671 132 LINE",
"595.951 58 OFFCURVE",
"494.982 14 OFFCURVE",
"377.982 14 CURVE SMOOTH",
"138.982 14 OFFCURVE",
"73.491 194 OFFCURVE",
"100.733 366 CURVE SMOOTH",
"130.034 551 OFFCURVE",
"265.484 718 OFFCURVE",
"473.484 718 CURVE SMOOTH",
"617.484 718 OFFCURVE",
"716.655 637 OFFCURVE",
"712.165 495 CURVE",
"744.165 495 LINE",
"749.239 647 OFFCURVE",
"648.236 748 OFFCURVE",
"478.236 748 CURVE SMOOTH",
"242.236 748 OFFCURVE",
"98.984 557 OFFCURVE",
"69.683 372 CURVE SMOOTH",
"67.783 360 LINE SMOOTH",
"40.54 188 OFFCURVE",
"106.23 -16 OFFCURVE",
"373.23 -16 CURVE SMOOTH"
);
},
{
closed = 1;
nodes = (
"772.012 292 LINE",
"776.447 320 LINE",
"398.447 320 LINE",
"394.012 292 LINE"
);
}
);
width = 831;
}
);
leftKerningGroup = UC_Round;
rightKerningGroup = UC_G;
unicode = 0047;
},
{
color = 7;
glyphname = H;
layers = (
{
anchors = (
{
name = bottom;
position = "{405, 0}";
},
{
name = center;
position = "{405, 606}";
},
{
name = top;
position = "{405, 730}";
}
);
layerId = "2089B89D-61CE-4065-A534-BEF0C3F67EB7";
name = public.background;
paths = (
{
closed = 1;
nodes = (
"680 0 LINE",
"680 730 LINE",
"648 730 LINE",
"648 0 LINE"
);
},
{
closed = 1;
nodes = (
"162 0 LINE",
"162 730 LINE",
"130 730 LINE",
"130 0 LINE"
);
},
{
closed = 1;
nodes = (
"660 345 LINE",
"660 375 LINE",
"150 375 LINE",
"150 345 LINE"
);
}
);
width = 798;
},
{
anchors = (
{
name = bottom;
position = "{341, 0}";
},
{
name = center;
position = "{437, 606}";
},
{
name = top;
position = "{457, 730}";
}
);
layerId = "48B7067D-14EA-4B3A-BE9A-22D6185653A2";
paths = (
{
closed = 1;
nodes = (
"666.19 0 LINE",
"781.81 730 LINE",
"595.81 730 LINE",
"480.19 0 LINE"
);
},
{
closed = 1;
nodes = (
"202.19 0 LINE",
"317.81 730 LINE",
"131.81 730 LINE",
"16.19 0 LINE"
);
},
{
closed = 1;
nodes = (
"557.646 287 LINE",
"583.304 449 LINE",
"241.304 449 LINE",
"215.646 287 LINE"
);
}
);
width = 798;
},
{
anchors = (
{
name = bottom;
position = "{344, 0}";
},
{
name = center;
position = "{440, 606}";
},
{
name = top;
position = "{460, 730}";
}
);
layerId = "38B5227D-F751-450D-B2B2-8DC56D0E577B";
paths = (
{
closed = 1;
nodes = (
"640.19 0 LINE",
"755.81 730 LINE",
"657.81 730 LINE",
"542.19 0 LINE"
);
},
{
closed = 1;
nodes = (
"146.19 0 LINE",
"261.81 730 LINE",
"163.81 730 LINE",
"48.19 0 LINE"
);
},
{
closed = 1;
nodes = (
"612.714 319 LINE",
"626.652 407 LINE",
"190.652 407 LINE",
"176.714 319 LINE"
);
}
);
width = 804;
},
{
anchors = (
{
name = bottom;
position = "{347, 0}";
},
{
name = center;
position = "{443, 606}";
},
{
name = top;
position = "{463, 730}";
}
);
layerId = "BDDC71A3-6F27-45BF-8BFA-A352BA3DE3E7";
paths = (
{
closed = 1;
nodes = (
"622.19 0 LINE",
"737.81 730 LINE",
"705.81 730 LINE",
"590.19 0 LINE"
);
},
{
closed = 1;
nodes = (
"104.19 0 LINE",
"219.81 730 LINE",
"187.81 730 LINE",
"72.19 0 LINE"
);
},
{
closed = 1;
nodes = (
"656.832 345 LINE",
"661.584 375 LINE",
"151.584 375 LINE",
"146.832 345 LINE"
);
}
);
width = 810;
}
);
leftKerningGroup = UC_Stem;
rightKerningGroup = UC_Stem;
unicode = 0048;
},
{
color = 6;
glyphname = Hbar;
widthMetricsKey = H;
layers = (
{
layerId = "2089B89D-61CE-4065-A534-BEF0C3F67EB7";
name = public.background;
paths = (
{
closed = 1;
nodes = (
"752 592 LINE",
"752 620 LINE",
"58 620 LINE",
"58 592 LINE"
);
}
);
width = 798;
},
{
components = (
{
name = H;
alignment = -1;
}
);
layerId = "48B7067D-14EA-4B3A-BE9A-22D6185653A2";
paths = (
{
closed = 1;
nodes = (
"799.609 533 LINE",
"819.248 657 LINE",
"71.248 657 LINE",
"51.609 533 LINE"
);
}
);
width = 798;
},
{
components = (
{
name = H;
alignment = -1;
}
);
layerId = "38B5227D-F751-450D-B2B2-8DC56D0E577B";
paths = (
{
closed = 1;
nodes = (
"792.251 556 LINE",
"804.922 636 LINE",
"84.922 636 LINE",
"72.251 556 LINE"
);
}
);
width = 804;
},
{
components = (
{
name = H;
alignment = -1;
}
);
layerId = "BDDC71A3-6F27-45BF-8BFA-A352BA3DE3E7";
paths = (
{
closed = 1;
nodes = (
"787.953 592 LINE",
"792.388 620 LINE",
"98.388 620 LINE",
"93.953 592 LINE"
);
}
);
width = 810;
}
);
leftKerningGroup = UC_Stem;
rightKerningGroup = UC_Stem;
unicode = 0126;
},
{
color = 7;
glyphname = I;
leftMetricsKey = "=H+2";
rightMetricsKey = "=H+2";
layers = (
{
anchors = (
{
name = bottom;
position = "{148, 0}";
},
{
name = ogonek;
position = "{164, 10}";
},
{
name = top;
position = "{148, 730}";
},
{
name = topleft;
position = "{46, 730}";
}
);
layerId = "2089B89D-61CE-4065-A534-BEF0C3F67EB7";
name = public.background;
paths = (
{
closed = 1;
nodes = (
"164 0 LINE",
"164 730 LINE",
"132 730 LINE",
"132 0 LINE"
);
}
);
width = 284;
},
{
anchors = (
{
name = bottom;
position = "{111, 0}";
},
{
name = ogonek;
position = "{193, 10}";
},
{
name = top;
position = "{227, 730}";
},
{
name = topleft;
position = "{47, 730}";
}
);
layerId = "48B7067D-14EA-4B3A-BE9A-22D6185653A2";
paths = (
{
closed = 1;
nodes = (
"204.19 0 LINE",
"319.81 730 LINE",
"133.81 730 LINE",
"18.19 0 LINE"
);
}
);
width = 338;
},
{
anchors = (
{
name = bottom;
position = "{99, 0}";
},
{
name = ogonek;
position = "{148, 10}";
},
{
name = top;
position = "{215, 730}";
},
{
name = topleft;
position = "{79, 730}";
}
);
layerId = "38B5227D-F751-450D-B2B2-8DC56D0E577B";
paths = (
{
closed = 1;
nodes = (
"148.19 0 LINE",
"263.81 730 LINE",
"165.81 730 LINE",
"50.19 0 LINE"
);
}
);
width = 314;
},
{
anchors = (
{
name = bottom;
position = "{90, 0}";
},
{
name = ogonek;
position = "{108, 10}";
},
{
name = top;
position = "{206, 730}";
},
{
name = topleft;
position = "{104, 730}";
}
);
layerId = "BDDC71A3-6F27-45BF-8BFA-A352BA3DE3E7";
paths = (
{
closed = 1;
nodes = (
"106.19 0 LINE",
"221.81 730 LINE",
"189.81 730 LINE",
"74.19 0 LINE"
);
}
);
width = 296;
}
);
unicode = 0049;
},
{
color = 7;
glyphname = J;
rightMetricsKey = "=H-12";
layers = (
{
anchors = (
{
name = bottom;
position = "{281, 0}";
},
{
name = top;
position = "{333, 730}";
}
);
layerId = "2089B89D-61CE-4065-A534-BEF0C3F67EB7";
name = public.background;
paths = (
{
closed = 1;
nodes = (
"430 -16 OFFCURVE",
"516 77 OFFCURVE",
"516 221 CURVE SMOOTH",
"516 718 LINE",
"484 718 LINE",
"484 217 LINE SMOOTH",
"484 91 OFFCURVE",
"412 14 OFFCURVE",
"281 14 CURVE SMOOTH",
"150 14 OFFCURVE",
"78 91 OFFCURVE",
"78 217 CURVE SMOOTH",
"78 249 LINE",
"46 249 LINE",
"46 221 LINE SMOOTH",
"46 77 OFFCURVE",
"132 -16 OFFCURVE",
"281 -16 CURVE SMOOTH"
);
},
{
closed = 1;
nodes = (
"516 700 LINE",
"516 730 LINE",
"145 730 LINE",
"145 700 LINE"
);
}
);
width = 622;
},
{
anchors = (
{
name = bottom;
position = "{267, 0}";
},
{
name = top;
position = "{406, 730}";
}
);
layerId = "48B7067D-14EA-4B3A-BE9A-22D6185653A2";
paths = (
{
closed = 1;
nodes = (
"421.022 -20 OFFCURVE",
"536.702 79 OFFCURVE",
"563.944 251 CURVE SMOOTH",
"617.32 588 LINE",
"431.32 588 LINE",
"376.994 245 LINE SMOOTH",
"368.441 191 OFFCURVE",
"329.581 154 OFFCURVE",
"272.581 154 CURVE SMOOTH",
"215.581 154 OFFCURVE",
"188.441 191 OFFCURVE",
"196.994 245 CURVE SMOOTH",
"204.28 291 LINE",
"20.28 291 LINE",
"13.944 251 LINE SMOOTH",
"-13.298 79 OFFCURVE",
"72.022 -20 OFFCURVE",
"246.022 -20 CURVE SMOOTH"
);
},
{
closed = 1;
nodes = (
"614.152 568 LINE",
"639.81 730 LINE",
"171.81 730 LINE",
"146.152 568 LINE"
);
}
);
width = 644;
},
{
anchors = (
{
name = bottom;
position = "{265, 0}";
},
{
name = top;
position = "{398, 730}";
}
);
layerId = "38B5227D-F751-450D-B2B2-8DC56D0E577B";
paths = (
{
closed = 1;
nodes = (
"375.339 -18 OFFCURVE",
"499.593 72 OFFCURVE",
"527.469 248 CURVE SMOOTH",
"593.04 662 LINE",
"495.04 662 LINE",
"426.618 230 LINE SMOOTH",
"410.78 130 OFFCURVE",
"336.593 72 OFFCURVE",
"245.593 72 CURVE SMOOTH",
"154.593 72 OFFCURVE",
"98.78 130 OFFCURVE",
"114.618 230 CURVE SMOOTH",
"121.429 273 LINE",
"23.429 273 LINE",
"19.469 248 LINE SMOOTH",
"-8.407 72 OFFCURVE",
"88.339 -18 OFFCURVE",
"231.339 -18 CURVE SMOOTH"
);
},
{
closed = 1;
nodes = (
"589.872 642 LINE",
"603.81 730 LINE",
"191.81 730 LINE",
"177.872 642 LINE"
);
}
);
width = 640;
},
{
anchors = (
{
name = bottom;
position = "{223, 0}";
},
{
name = top;
position = "{391, 730}";
}
);
layerId = "BDDC71A3-6F27-45BF-8BFA-A352BA3DE3E7";
paths = (
{
closed = 1;
nodes = (
"369.656 -16 OFFCURVE",
"470.385 77 OFFCURVE",
"493.193 221 CURVE SMOOTH",
"571.91 718 LINE",
"539.91 718 LINE",
"460.559 217 LINE SMOOTH",
"440.603 91 OFFCURVE",
"356.407 14 OFFCURVE",
"225.407 14 CURVE SMOOTH",
"94.407 14 OFFCURVE",
"34.603 91 OFFCURVE",
"54.559 217 CURVE SMOOTH",
"59.627 249 LINE",
"27.627 249 LINE",
"23.193 221 LINE SMOOTH",
"0.385 77 OFFCURVE",
"71.656 -16 OFFCURVE",
"220.656 -16 CURVE SMOOTH"
);
},
{
closed = 1;
nodes = (
"569.059 700 LINE",
"573.81 730 LINE",
"202.81 730 LINE",
"198.059 700 LINE"
);
}
);
width = 634;
}
);
leftKerningGroup = UC_J;
rightKerningGroup = UC_J;
unicode = 004A;
},
{
color = 7;
glyphname = K;
leftMetricsKey = H;
layers = (
{
anchors = (
{
name = bottom;
position = "{356, 0}";
},
{
name = top;
position = "{323, 730}";
}
);
layerId = "2089B89D-61CE-4065-A534-BEF0C3F67EB7";
name = public.background;
paths = (
{
closed = 1;
nodes = (
"629 0 LINE",
"216 403 LINE",
"217 374 LINE",
"549 730 LINE",
"510 730 LINE",
"158 352 LINE",
"226 352 LINE",
"586 0 LINE"
);
},
{
closed = 1;
nodes = (
"162 0 LINE",
"162 730 LINE",
"130 730 LINE",
"130 0 LINE"
);
}
);
width = 777;
},
{
anchors = (
{
name = bottom;
position = "{347, 0}";
},
{
name = top;
position = "{447, 730}";
}
);
layerId = "48B7067D-14EA-4B3A-BE9A-22D6185653A2";
paths = (
{
closed = 1;
nodes = (
"726.19 0 LINE",
"482.938 453 LINE",
"471.693 382 LINE",
"790.81 730 LINE",
"576.81 730 LINE",
"220.199 341 LINE",
"319.199 341 LINE",
"502.19 0 LINE"
);
},
{
closed = 1;
nodes = (
"202.19 0 LINE",
"317.81 730 LINE",
"131.81 730 LINE",
"16.19 0 LINE"
);
}
);
width = 777;
},
{
anchors = (
{
name = bottom;
position = "{321, 0}";
},
{
name = top;
position = "{409, 730}";
}
);
layerId = "38B5227D-F751-450D-B2B2-8DC56D0E577B";
paths = (
{
closed = 1;
nodes = (
"630.19 0 LINE",
"308.988 447 LINE",
"307.059 378 LINE",
"670.81 730 LINE",
"558.81 730 LINE",
"158.199 341 LINE",
"265.199 341 LINE",
"508.19 0 LINE"
);
},
{
closed = 1;
nodes = (
"146.19 0 LINE",
"261.81 730 LINE",
"163.81 730 LINE",
"48.19 0 LINE"
);
}
);
width = 678;
},
{
anchors = (
{
name = bottom;
position = "{298, 0}";
},
{
name = top;
position = "{381, 730}";
}
);
layerId = "BDDC71A3-6F27-45BF-8BFA-A352BA3DE3E7";
paths = (
{
closed = 1;
nodes = (
"571.19 0 LINE",
"222.019 403 LINE",
"218.425 374 LINE",
"606.81 730 LINE",
"567.81 730 LINE",
"155.941 352 LINE",
"223.941 352 LINE",
"528.19 0 LINE"
);
},
{
closed = 1;
nodes = (
"104.19 0 LINE",
"219.81 730 LINE",
"187.81 730 LINE",
"72.19 0 LINE"
);
}
);
width = 617;
}
);
leftKerningGroup = UC_Stem;
rightKerningGroup = UC_K;
unicode = 004B;
},
{
color = 7;
glyphname = L;
leftMetricsKey = H;
layers = (
{
anchors = (
{
name = bottom;
position = "{324, -1}";
},
{
name = center;
position = "{147, 365}";
},
{
name = top;
position = "{146, 730}";
},
{
name = topright;
position = "{244, 541}";
}
);
layerId = "2089B89D-61CE-4065-A534-BEF0C3F67EB7";
name = public.background;
paths = (
{
closed = 1;
nodes = (
"162 0 LINE",
"162 730 LINE",
"130 730 LINE",
"130 0 LINE"
);
},
{
closed = 1;
nodes = (
"504 0 LINE",
"504 30 LINE",
"143 30 LINE",
"143 0 LINE"
);
}
);
width = 562;
},
{
anchors = (
{
name = bottom;
position = "{247, 0}";
},
{
name = center;
position = "{167, 365}";
},
{
name = top;
position = "{225, 730}";
},
{
name = topright;
position = "{306, 541}";
}
);
layerId = "48B7067D-14EA-4B3A-BE9A-22D6185653A2";
paths = (
{
closed = 1;
nodes = (
"202.19 0 LINE",
"317.81 730 LINE",
"131.81 730 LINE",
"16.19 0 LINE"
);
},
{
closed = 1;
nodes = (
"478.19 0 LINE",
"503.848 162 LINE",
"207.848 162 LINE",
"182.19 0 LINE"
);
}
);
width = 562;
},
{
anchors = (
{
name = bottom;
position = "{254, 0}";
},
{
name = center;
position = "{155, 365}";
},
{
name = top;
position = "{213, 730}";
},
{
name = topright;
position = "{298, 541}";
}
);
layerId = "38B5227D-F751-450D-B2B2-8DC56D0E577B";
paths = (
{
closed = 1;
nodes = (
"146.19 0 LINE",
"261.81 730 LINE",
"163.81 730 LINE",
"48.19 0 LINE"
);
},
{
closed = 1;
nodes = (
"460.19 0 LINE",
"474.128 88 LINE",
"140.128 88 LINE",
"126.19 0 LINE"
);
}
);
width = 544;
},
{
anchors = (
{
name = bottom;
position = "{266, -1}";
},
{
name = center;
position = "{147, 365}";
},
{
name = top;
position = "{204, 730}";
},
{
name = topright;
position = "{272, 541}";
}
);
layerId = "BDDC71A3-6F27-45BF-8BFA-A352BA3DE3E7";
paths = (
{
closed = 1;
nodes = (
"104.19 0 LINE",
"219.81 730 LINE",
"187.81 730 LINE",
"72.19 0 LINE"
);
},
{
closed = 1;
nodes = (
"446.19 0 LINE",
"450.941 30 LINE",
"89.941 30 LINE",
"85.19 0 LINE"
);
}
);
width = 530;
}
);
leftKerningGroup = UC_Stem;
rightKerningGroup = UC_L;
unicode = 004C;
},
{
color = 7;
glyphname = Lslash;
widthMetricsKey = L;
layers = (
{
layerId = "2089B89D-61CE-4065-A534-BEF0C3F67EB7";
name = public.background;
paths = (
{
closed = 1;
nodes = (
"355 434 LINE",
"355 464 LINE",
"156 348 LINE",
"156 318 LINE"
);
},
{
closed = 1;
nodes = (
"137 307 LINE",
"137 337 LINE",
"40 280 LINE",
"40 250 LINE"
);
}
);
width = 562;
},
{
components = (
{
name = L;
alignment = -1;
}
);
guideLines = (
{
angle = 210.09;
position = "{87, 257}";
}
);
layerId = "48B7067D-14EA-4B3A-BE9A-22D6185653A2";
paths = (
{
closed = 1;
nodes = (
"404.127 410 LINE",
"427.251 556 LINE",
"176.186 423 LINE",
"153.062 277 LINE"
);
},
{
closed = 1;
nodes = (
"121.003 264 LINE",
"144.127 410 LINE",
"14.199 341 LINE",
"-8.925 195 LINE"
);
}
);
width = 562;
},
{
components = (
{
name = L;
alignment = -1;
}
);
guideLines = (
{
angle = 210.09;
position = "{87, 257}";
}
);
layerId = "38B5227D-F751-450D-B2B2-8DC56D0E577B";
paths = (
{
closed = 1;
nodes = (
"387.711 420 LINE",
"401.015 504 LINE",
"169.534 381 LINE",
"156.23 297 LINE"
);
},
{
closed = 1;
nodes = (
"124.171 284 LINE",
"137.475 368 LINE",
"20.655 306 LINE",
"7.351 222 LINE"
);
}
);
width = 544;
},
{
components = (
{
name = L;
alignment = -1;
}
);
layerId = "BDDC71A3-6F27-45BF-8BFA-A352BA3DE3E7";
paths = (
{
closed = 1;
nodes = (
"365.929 434 LINE",
"370.68 464 LINE",
"153.307 348 LINE",
"148.556 318 LINE"
);
},
{
closed = 1;
nodes = (
"127.814 307 LINE",
"132.565 337 LINE",
"26.537 280 LINE",
"21.786 250 LINE"
);
}
);
width = 530;
}
);
leftKerningGroup = UC_Eth;
rightKerningGroup = UC_L;
unicode = 0141;
},
{
color = 7;
glyphname = M;
leftMetricsKey = H;
rightMetricsKey = H;
layers = (
{
guideLines = (
{
position = "{0, 536}";
}
);
layerId = "48B7067D-14EA-4B3A-BE9A-22D6185653A2";
paths = (
{
closed = 1;
nodes = (
"186.19 0 LINE",
"284.863 623 LINE",
"253.546 621 LINE",
"367.472 147 LINE",
"536.472 147 LINE",
"799.546 621 LINE",
"770.863 623 LINE",
"672.19 0 LINE",
"856.19 0 LINE",
"971.81 730 LINE",
"708.81 730 LINE",
"498.832 345 LINE",
"478.832 345 LINE",
"389.81 730 LINE",
"131.81 730 LINE",
"16.19 0 LINE"
);
}
);
width = 988;
},
{
guideLines = (
{
position = "{0, 587}";
}
);
layerId = "38B5227D-F751-450D-B2B2-8DC56D0E577B";
paths = (
{
closed = 1;
nodes = (
"138.19 0 LINE",
"236.863 623 LINE",
"228.546 621 LINE",
"362.106 151 LINE",
"482.106 151 LINE",
"763.546 621 LINE",
"756.863 623 LINE",
"658.19 0 LINE",
"756.19 0 LINE",
"871.81 730 LINE",
"740.81 730 LINE",
"448.677 243 LINE",
"432.677 243 LINE",
"293.81 730 LINE",
"163.81 730 LINE",
"48.19 0 LINE"
);
}
);
width = 920;
},
{
layerId = "BDDC71A3-6F27-45BF-8BFA-A352BA3DE3E7";
paths = (
{
closed = 1;
nodes = (
"102.19 0 LINE",
"211.475 690 LINE",
"204.475 690 LINE",
"373.531 160 LINE",
"431.531 160 LINE",
"768.475 690 LINE",
"763.475 690 LINE",
"654.19 0 LINE",
"686.19 0 LINE",
"801.81 730 LINE",
"761.81 730 LINE",
"418.124 189 LINE",
"396.124 189 LINE",
"223.81 730 LINE",
"187.81 730 LINE",
"72.19 0 LINE"
);
}
);
width = 874;
},
{
layerId = "2089B89D-61CE-4065-A534-BEF0C3F67EB7";
name = public.background;
paths = (
{
closed = 1;
nodes = (
"160 0 LINE",
"160 690 LINE",
"153 690 LINE",
"406 160 LINE",
"464 160 LINE",
"717 690 LINE",
"712 690 LINE",
"712 0 LINE",
"744 0 LINE",
"744 730 LINE",
"704 730 LINE",
"446 189 LINE",
"424 189 LINE",
"166 730 LINE",
"130 730 LINE",
"130 0 LINE"
);
}
);
width = 988;
}
);
leftKerningGroup = UC_Stem;
rightKerningGroup = UC_Stem;
unicode = 004D;
},
{
color = 7;
glyphname = N;
leftMetricsKey = H;
rightMetricsKey = H;
layers = (
{
anchors = (
{
name = bottom;
position = "{389, 0}";
},
{
name = top;
position = "{428, 730}";
}
);
layerId = "2089B89D-61CE-4065-A534-BEF0C3F67EB7";
name = public.background;
paths = (
{
closed = 1;
nodes = (
"162 0 LINE",
"162 712 LINE",
"142 700 LINE",
"174 700 LINE",
"631 0 LINE",
"692 0 LINE",
"692 730 LINE",
"660 730 LINE",
"660 18 LINE",
"680 30 LINE",
"648 30 LINE",
"191 730 LINE",
"130 730 LINE",
"130 0 LINE"
);
}
);
width = 810;
},
{
anchors = (
{
name = bottom;
position = "{380, 0}";
},
{
name = top;
position = "{511, 730}";
}
);
layerId = "48B7067D-14EA-4B3A-BE9A-22D6185653A2";
paths = (
{
closed = 1;
nodes = (
"188.19 0 LINE",
"283.22 600 LINE",
"260.369 582 LINE",
"295.369 582 LINE",
"446.19 0 LINE",
"753.19 0 LINE",
"868.81 730 LINE",
"694.81 730 LINE",
"599.78 130 LINE",
"622.631 148 LINE",
"587.631 148 LINE",
"436.81 730 LINE",
"131.81 730 LINE",
"16.19 0 LINE"
);
}
);
width = 885;
},
{
anchors = (
{
name = bottom;
position = "{354, 0}";
},
{
name = top;
position = "{501, 730}";
}
);
layerId = "38B5227D-F751-450D-B2B2-8DC56D0E577B";
paths = (
{
closed = 1;
nodes = (
"140.19 0 LINE",
"244.723 660 LINE",
"221.872 642 LINE",
"253.872 642 LINE",
"523.19 0 LINE",
"685.19 0 LINE",
"800.81 730 LINE",
"706.81 730 LINE",
"602.277 70 LINE",
"625.128 88 LINE",
"593.128 88 LINE",
"323.81 730 LINE",
"163.81 730 LINE",
"48.19 0 LINE"
);
}
);
width = 849;
},
{
anchors = (
{
name = bottom;
position = "{331, 0}";
},
{
name = top;
position = "{486, 730}";
}
);
layerId = "BDDC71A3-6F27-45BF-8BFA-A352BA3DE3E7";
paths = (
{
closed = 1;
nodes = (
"104.19 0 LINE",
"216.959 712 LINE",
"195.059 700 LINE",
"227.059 700 LINE",
"573.19 0 LINE",
"634.19 0 LINE",
"749.81 730 LINE",
"717.81 730 LINE",
"605.041 18 LINE",
"626.941 30 LINE",
"594.941 30 LINE",
"248.81 730 LINE",
"187.81 730 LINE",
"72.19 0 LINE"
);
}
);
width = 822;
}
);
leftKerningGroup = UC_Stem;
rightKerningGroup = UC_Stem;
unicode = 004E;
},
{
color = 7;
glyphname = Eng;
leftMetricsKey = H;
rightMetricsKey = H;
layers = (
{
layerId = "48B7067D-14EA-4B3A-BE9A-22D6185653A2";
paths = (
{
closed = 1;
nodes = (
"455.385 -245 LINE SMOOTH",
"647.385 -245 OFFCURVE",
"728.957 -153 OFFCURVE",
"753.982 5 CURVE SMOOTH",
"868.81 730 LINE",
"694.81 730 LINE",
"602.947 150 LINE",
"625.798 168 LINE",
"582.798 168 LINE",
"436.81 730 LINE",
"131.81 730 LINE",
"16.19 0 LINE",
"188.19 0 LINE",
"283.22 600 LINE",
"260.369 582 LINE",
"295.369 582 LINE",
"441.357 20 LINE",
"613.357 20 LINE",
"590.792 48 LINE",
"583.19 0 LINE SMOOTH",
"572.578 -67 OFFCURVE",
"537.885 -84 OFFCURVE",
"490.885 -84 CURVE SMOOTH",
"376.885 -84 LINE",
"351.385 -245 LINE"
);
}
);
width = 885;
},
{
layerId = "38B5227D-F751-450D-B2B2-8DC56D0E577B";
paths = (
{
closed = 1;
nodes = (
"433.712 -224 LINE SMOOTH",
"576.712 -224 OFFCURVE",
"661.274 -151 OFFCURVE",
"684.239 -6 CURVE SMOOTH",
"800.81 730 LINE",
"706.81 730 LINE",
"602.277 70 LINE",
"625.128 88 LINE",
"593.128 88 LINE",
"323.81 730 LINE",
"163.81 730 LINE",
"48.19 0 LINE",
"140.19 0 LINE",
"244.723 660 LINE",
"221.872 642 LINE",
"253.872 642 LINE",
"519.615 9 LINE",
"629.615 9 LINE",
"596.575 34 LINE",
"587.864 -21 LINE SMOOTH",
"575.985 -96 OFFCURVE",
"535.333 -138 OFFCURVE",
"461.333 -138 CURVE SMOOTH",
"350.333 -138 LINE",
"336.712 -224 LINE"
);
}
);
width = 849;
},
{
layerId = "BDDC71A3-6F27-45BF-8BFA-A352BA3DE3E7";
paths = (
{
closed = 1;
nodes = (
"434.246 -208 LINE SMOOTH",
"543.246 -208 OFFCURVE",
"609.957 -153 OFFCURVE",
"631.339 -18 CURVE SMOOTH",
"749.81 730 LINE",
"717.81 730 LINE",
"605.041 18 LINE",
"626.941 30 LINE",
"594.941 30 LINE",
"248.81 730 LINE",
"187.81 730 LINE",
"72.19 0 LINE",
"104.19 0 LINE",
"216.959 712 LINE",
"195.059 700 LINE",
"227.059 700 LINE",
"573.19 0 LINE",
"614.19 0 LINE",
"603.298 7 LINE",
"598.072 -26 LINE SMOOTH",
"582.075 -127 OFFCURVE",
"532.997 -178 OFFCURVE",
"438.997 -178 CURVE SMOOTH",
"326.997 -178 LINE",
"322.246 -208 LINE"
);
}
);
width = 822;
},
{
layerId = "2089B89D-61CE-4065-A534-BEF0C3F67EB7";
name = public.background;
paths = (
{
closed = 1;
nodes = (
"525 -208 LINE SMOOTH",
"634 -208 OFFCURVE",
"692 -153 OFFCURVE",
"692 -18 CURVE SMOOTH",
"692 730 LINE",
"660 730 LINE",
"660 18 LINE",
"680 30 LINE",
"648 30 LINE",
"191 730 LINE",
"130 730 LINE",
"130 0 LINE",
"162 0 LINE",
"162 712 LINE",
"142 700 LINE",
"174 700 LINE",
"631 0 LINE",
"672 0 LINE",
"660 7 LINE",
"660 -26 LINE SMOOTH",
"660 -127 OFFCURVE",
"619 -178 OFFCURVE",
"525 -178 CURVE SMOOTH",
"413 -178 LINE",
"413 -208 LINE"
);
}
);
width = 885;
}
);
leftKerningGroup = UC_Stem;
unicode = 014A;
},
{
color = 7;
glyphname = O;
layers = (
{
anchors = (
{
name = bottom;
position = "{437, 0}";
},
{
name = center;
position = "{437, 365}";
},
{
name = ogonek;
position = "{567, 10}";
},
{
name = top;
position = "{437, 730}";
}
);
layerId = "2089B89D-61CE-4065-A534-BEF0C3F67EB7";
name = public.background;
paths = (
{
closed = 1;
nodes = (
"674 -16 OFFCURVE",
"802 177 OFFCURVE",
"802 360 CURVE SMOOTH",
"802 373 LINE SMOOTH",
"802 561 OFFCURVE",
"666 748 OFFCURVE",
"437 748 CURVE SMOOTH",
"208 748 OFFCURVE",
"70 561 OFFCURVE",
"70 373 CURVE SMOOTH",
"70 361 LINE SMOOTH",
"70 177 OFFCURVE",
"200 -16 OFFCURVE",
"437 -16 CURVE SMOOTH"
);
},
{
closed = 1;
nodes = (
"221 14 OFFCURVE",
"102 189 OFFCURVE",
"102 366 CURVE SMOOTH",
"102 549 OFFCURVE",
"228 718 OFFCURVE",
"437 718 CURVE SMOOTH",
"646 718 OFFCURVE",
"770 549 OFFCURVE",
"770 366 CURVE SMOOTH",
"770 189 OFFCURVE",
"652 14 OFFCURVE",
"437 14 CURVE SMOOTH"
);
}
);
width = 864;
},
{
anchors = (
{
name = bottom;
position = "{372, 0}";
},
{
name = center;
position = "{428, 352}";
},
{
name = ogonek;
position = "{504, 10}";
},
{
name = top;
position = "{488, 730}";
}
);
layerId = "48B7067D-14EA-4B3A-BE9A-22D6185653A2";
paths = (
{
closed = 1;
nodes = (
"634.28 -20 OFFCURVE",
"796.54 190 OFFCURVE",
"822.832 356 CURVE SMOOTH",
"826.317 378 LINE SMOOTH",
"855.301 561 OFFCURVE",
"747.553 752 OFFCURVE",
"491.553 752 CURVE SMOOTH",
"233.553 752 OFFCURVE",
"67.301 561 OFFCURVE",
"38.317 378 CURVE SMOOTH",
"34.832 356 LINE SMOOTH",
"8.54 190 OFFCURVE",
"103.28 -20 OFFCURVE",
"369.28 -20 CURVE SMOOTH"
);
},
{
closed = 1;
nodes = (
"268.839 154 OFFCURVE",
"205.41 246 OFFCURVE",
"224.416 366 CURVE SMOOTH",
"244.531 493 OFFCURVE",
"336.994 578 OFFCURVE",
"463.994 578 CURVE SMOOTH",
"589.994 578 OFFCURVE",
"656.531 493 OFFCURVE",
"636.416 366 CURVE SMOOTH",
"617.41 246 OFFCURVE",
"523.839 154 OFFCURVE",
"396.839 154 CURVE SMOOTH"
);
}
);
width = 864;
},
{
anchors = (
{
name = bottom;
position = "{374, 0}";
},
{
name = center;
position = "{431, 365}";
},
{
name = ogonek;
position = "{505, 10}";
},
{
name = top;
position = "{489, 730}";
}
);
layerId = "38B5227D-F751-450D-B2B2-8DC56D0E577B";
paths = (
{
closed = 1;
nodes = (
"631.755 -18 OFFCURVE",
"781.649 196 OFFCURVE",
"806.991 356 CURVE SMOOTH",
"810.475 378 LINE SMOOTH",
"838.034 552 OFFCURVE",
"747.394 750 OFFCURVE",
"492.394 750 CURVE SMOOTH",
"237.394 750 OFFCURVE",
"84.034 552 OFFCURVE",
"56.475 378 CURVE SMOOTH",
"52.991 356 LINE SMOOTH",
"27.649 196 OFFCURVE",
"109.755 -18 OFFCURVE",
"370.755 -18 CURVE SMOOTH"
);
},
{
closed = 1;
nodes = (
"214.01 72 OFFCURVE",
"130.183 212 OFFCURVE",
"154.575 366 CURVE SMOOTH",
"180.233 528 OFFCURVE",
"307.14 660 OFFCURVE",
"478.14 660 CURVE SMOOTH",
"649.14 660 OFFCURVE",
"734.233 528 OFFCURVE",
"708.575 366 CURVE SMOOTH",
"684.183 212 OFFCURVE",
"556.01 72 OFFCURVE",
"385.01 72 CURVE SMOOTH"
);
}
);
width = 865;
},
{
anchors = (
{
name = bottom;
position = "{378, 0}";
},
{
name = center;
position = "{436, 365}";
},
{
name = ogonek;
position = "{509, 10}";
},
{
name = top;
position = "{493, 730}";
}
);
layerId = "BDDC71A3-6F27-45BF-8BFA-A352BA3DE3E7";
paths = (
{
closed = 1;
nodes = (
"612.23 -16 OFFCURVE",
"770.798 177 OFFCURVE",
"799.783 360 CURVE SMOOTH",
"801.842 373 LINE SMOOTH",
"831.618 561 OFFCURVE",
"725.236 748 OFFCURVE",
"496.236 748 CURVE SMOOTH",
"267.236 748 OFFCURVE",
"99.618 561 OFFCURVE",
"69.842 373 CURVE SMOOTH",
"67.941 361 LINE SMOOTH",
"38.798 177 OFFCURVE",
"138.23 -16 OFFCURVE",
"375.23 -16 CURVE SMOOTH"
);
},
{
closed = 1;
nodes = (
"163.982 14 OFFCURVE",
"72.699 189 OFFCURVE",
"100.733 366 CURVE SMOOTH",
"129.717 549 OFFCURVE",
"282.484 718 OFFCURVE",
"491.484 718 CURVE SMOOTH",
"700.484 718 OFFCURVE",
"797.717 549 OFFCURVE",
"768.733 366 CURVE SMOOTH",
"740.699 189 OFFCURVE",
"594.982 14 OFFCURVE",
"379.982 14 CURVE SMOOTH"
);
}
);
width = 872;
}
);
leftKerningGroup = UC_Round;
rightKerningGroup = UC_Round;
unicode = 004F;
},
{
color = 6;
glyphname = Oslash;
leftMetricsKey = O;
rightMetricsKey = O;
layers = (
{
layerId = "2089B89D-61CE-4065-A534-BEF0C3F67EB7";
name = public.background;
paths = (
{
closed = 1;
nodes = (
"106 -32 LINE",
"668 764 LINE",
"632 764 LINE",
"70 -32 LINE"
);
}
);
width = 730;
},
{
components = (
{
name = O;
transform = "{1, 0, 0, 1, 26, 0}";
alignment = -1;
}
);
layerId = "48B7067D-14EA-4B3A-BE9A-22D6185653A2";
paths = (
{
closed = 1;
nodes = (
"166.351 -70 LINE",
"873.562 790 LINE",
"737.562 790 LINE",
"30.351 -70 LINE"
);
}
);
width = 907;
},
{
components = (
{
name = O;
transform = "{1, 0, 0, 1, 20, 0}";
alignment = -1;
}
);
layerId = "38B5227D-F751-450D-B2B2-8DC56D0E577B";
paths = (
{
closed = 1;
nodes = (
"144.628 -52 LINE",
"848.136 772 LINE",
"752.136 772 LINE",
"48.628 -52 LINE"
);
}
);
width = 898;
},
{
components = (
{
name = O;
alignment = -1;
}
);
layerId = "BDDC71A3-6F27-45BF-8BFA-A352BA3DE3E7";
paths = (
{
closed = 1;
nodes = (
"107.429 -32 LINE",
"795.503 764 LINE",
"759.503 764 LINE",
"71.429 -32 LINE"
);
}
);
width = 872;
}
);
leftKerningGroup = UC_Round;
rightKerningGroup = UC_Round;
unicode = 00D8;
},
{
color = 7;
glyphname = OE;
leftMetricsKey = O;
rightMetricsKey = E;
layers = (
{
layerId = "48B7067D-14EA-4B3A-BE9A-22D6185653A2";
paths = (
{
closed = 1;
nodes = (
"425.963 -22 OFFCURVE",
"470.23 -14 OFFCURVE",
"507.447 0 CURVE",
"643.447 0 LINE",
"759.068 730 LINE",
"623.068 730 LINE",
"588.127 743 OFFCURVE",
"541.553 752 OFFCURVE",
"491.553 752 CURVE SMOOTH",
"229.553 752 OFFCURVE",
"67.143 560 OFFCURVE",
"38.158 377 CURVE SMOOTH",
"34.674 355 LINE SMOOTH",
"8.382 189 OFFCURVE",
"98.963 -22 OFFCURVE",
"368.963 -22 CURVE SMOOTH"
);
},
{
closed = 1;
nodes = (
"269.522 152 OFFCURVE",
"205.093 244 OFFCURVE",
"224.258 365 CURVE SMOOTH",
"244.373 492 OFFCURVE",
"336.994 578 OFFCURVE",
"463.994 578 CURVE SMOOTH",
"503.994 578 OFFCURVE",
"537.568 569 OFFCURVE",
"562.509 556 CURVE",
"554.519 575 LINE",
"487.522 152 LINE",
"502.165 175 LINE",
"475.106 162 OFFCURVE",
"434.522 152 OFFCURVE",
"396.522 152 CURVE SMOOTH"
);
},
{
closed = 1;
nodes = (
"931.447 0 LINE",
"955.522 152 LINE",
"647.522 152 LINE",
"623.447 0 LINE"
);
},
{
closed = 1;
nodes = (
"958.171 295 LINE",
"982.245 447 LINE",
"694.245 447 LINE",
"670.171 295 LINE"
);
},
{
closed = 1;
nodes = (
"1016.994 578 LINE",
"1041.068 730 LINE",
"739.068 730 LINE",
"714.994 578 LINE"
);
}
);
width = 1040;
},
{
layerId = "38B5227D-F751-450D-B2B2-8DC56D0E577B";
paths = (
{
closed = 1;
nodes = (
"431.438 -20 OFFCURVE",
"481.705 -12 OFFCURVE",
"515.606 0 CURVE",
"601.606 0 LINE",
"717.226 730 LINE",
"631.226 730 LINE",
"601.127 742 OFFCURVE",
"553.394 750 OFFCURVE",
"499.394 750 CURVE SMOOTH",
"235.394 750 OFFCURVE",
"84.351 554 OFFCURVE",
"56.317 377 CURVE SMOOTH",
"52.832 355 LINE SMOOTH",
"27.491 195 OFFCURVE",
"105.438 -20 OFFCURVE",
"377.438 -20 CURVE SMOOTH"
);
},
{
closed = 1;
nodes = (
"215.376 68 OFFCURVE",
"131.708 209 OFFCURVE",
"156.416 365 CURVE SMOOTH",
"182.233 528 OFFCURVE",
"309.456 662 OFFCURVE",
"485.456 662 CURVE SMOOTH",
"537.456 662 OFFCURVE",
"598.872 652 OFFCURVE",
"636.388 630 CURVE",
"609.248 667 LINE",
"513.267 61 LINE",
"552.444 100 LINE",
"507.96 78 OFFCURVE",
"442.376 68 OFFCURVE",
"391.376 68 CURVE SMOOTH"
);
},
{
closed = 1;
nodes = (
"935.606 0 LINE",
"949.544 88 LINE",
"595.544 88 LINE",
"581.606 0 LINE"
);
},
{
closed = 1;
nodes = (
"957.398 327 LINE",
"971.335 415 LINE",
"647.335 415 LINE",
"633.398 327 LINE"
);
},
{
closed = 1;
nodes = (
"1027.289 642 LINE",
"1041.226 730 LINE",
"697.226 730 LINE",
"683.289 642 LINE"
);
}
);
width = 1056;
},
{
layerId = "BDDC71A3-6F27-45BF-8BFA-A352BA3DE3E7";
paths = (
{
closed = 1;
nodes = (
"439.23 -16 OFFCURVE",
"493.18 -10 OFFCURVE",
"536.764 0 CURVE",
"562.764 0 LINE",
"678.385 730 LINE",
"658.385 730 LINE",
"620.969 740 OFFCURVE",
"561.236 748 OFFCURVE",
"510.236 748 CURVE SMOOTH",
"267.236 748 OFFCURVE",
"101.835 575 OFFCURVE",
"69.842 373 CURVE SMOOTH",
"67.941 361 LINE SMOOTH",
"36.581 163 OFFCURVE",
"134.23 -16 OFFCURVE",
"389.23 -16 CURVE SMOOTH"
);
},
{
closed = 1;
nodes = (
"159.982 14 OFFCURVE",
"70.481 175 OFFCURVE",
"100.733 366 CURVE SMOOTH",
"131.935 563 OFFCURVE",
"282.484 718 OFFCURVE",
"505.484 718 CURVE SMOOTH",
"557.484 718 OFFCURVE",
"612.217 710 OFFCURVE",
"651.792 701 CURVE",
"643.059 709 LINE",
"533.298 16 LINE",
"541.674 31 LINE",
"499.09 21 OFFCURVE",
"443.982 14 OFFCURVE",
"393.982 14 CURVE SMOOTH"
);
},
{
closed = 1;
nodes = (
"934.764 0 LINE",
"939.516 30 LINE",
"555.516 30 LINE",
"550.764 0 LINE"
);
},
{
closed = 1;
nodes = (
"952.149 356 LINE",
"956.901 386 LINE",
"608.901 386 LINE",
"604.149 356 LINE"
);
},
{
closed = 1;
nodes = (
"1032.633 700 LINE",
"1037.385 730 LINE",
"668.385 730 LINE",
"663.633 700 LINE"
);
}
);
width = 1067;
},
{
layerId = "2089B89D-61CE-4065-A534-BEF0C3F67EB7";
name = public.background;
paths = (
{
closed = 1;
nodes = (
"501 -16 OFFCURVE",
"554 -10 OFFCURVE",
"596 0 CURVE",
"622 0 LINE",
"622 730 LINE",
"602 730 LINE",
"563 740 OFFCURVE",
"502 748 OFFCURVE",
"451 748 CURVE SMOOTH",
"208 748 OFFCURVE",
"70 575 OFFCURVE",
"70 373 CURVE SMOOTH",
"70 361 LINE SMOOTH",
"70 163 OFFCURVE",
"196 -16 OFFCURVE",
"451 -16 CURVE SMOOTH"
);
},
{
closed = 1;
nodes = (
"217 14 OFFCURVE",
"102 175 OFFCURVE",
"102 366 CURVE SMOOTH",
"102 563 OFFCURVE",
"228 718 OFFCURVE",
"451 718 CURVE SMOOTH",
"503 718 OFFCURVE",
"559 710 OFFCURVE",
"600 701 CURVE",
"590 709 LINE",
"590 16 LINE",
"596 31 LINE",
"555 21 OFFCURVE",
"501 14 OFFCURVE",
"451 14 CURVE SMOOTH"
);
},
{
closed = 1;
nodes = (
"994 0 LINE",
"994 30 LINE",
"610 30 LINE",
"610 0 LINE"
);
},
{
closed = 1;
nodes = (
"955 356 LINE",
"955 386 LINE",
"607 386 LINE",
"607 356 LINE"
);
},
{
closed = 1;
nodes = (
"981 700 LINE",
"981 730 LINE",
"612 730 LINE",
"612 700 LINE"
);
}
);
width = 1040;
}
);
leftKerningGroup = UC_Round;
rightKerningGroup = UC_E;
unicode = 0152;
},
{
color = 7;
glyphname = P;
leftMetricsKey = H;
layers = (
{
layerId = "48B7067D-14EA-4B3A-BE9A-22D6185653A2";
paths = (
{
closed = 1;
nodes = (
"328.441 194 LINE SMOOTH",
"516.441 194 OFFCURVE",
"649.28 294 OFFCURVE",
"675.096 457 CURVE SMOOTH",
"677.63 473 LINE SMOOTH",
"703.605 637 OFFCURVE",
"602.285 736 OFFCURVE",
"414.285 736 CURVE SMOOTH",
"299.285 736 LINE",
"273.944 576 LINE",
"393.944 576 LINE SMOOTH",
"461.944 576 OFFCURVE",
"499.45 535 OFFCURVE",
"488.363 465 CURVE SMOOTH",
"477.435 396 OFFCURVE",
"426.783 354 OFFCURVE",
"358.783 354 CURVE SMOOTH",
"238.783 354 LINE",
"213.441 194 LINE"
);
},
{
closed = 1;
nodes = (
"202.715 0 LINE",
"319.285 736 LINE",
"133.285 736 LINE",
"16.715 0 LINE"
);
}
);
width = 677;
},
{
layerId = "38B5227D-F751-450D-B2B2-8DC56D0E577B";
paths = (
{
closed = 1;
nodes = (
"312.103 254 LINE SMOOTH",
"491.103 254 OFFCURVE",
"599.516 345 OFFCURVE",
"621.848 486 CURVE SMOOTH",
"624.382 502 LINE SMOOTH",
"646.872 644 OFFCURVE",
"567.127 734 OFFCURVE",
"388.127 734 CURVE SMOOTH",
"243.127 734 LINE",
"229.506 648 LINE",
"392.506 648 LINE SMOOTH",
"495.506 648 OFFCURVE",
"537.053 582 OFFCURVE",
"523.115 494 CURVE SMOOTH",
"509.335 407 OFFCURVE",
"446.724 340 OFFCURVE",
"343.724 340 CURVE SMOOTH",
"180.724 340 LINE",
"167.103 254 LINE"
);
},
{
closed = 1;
nodes = (
"146.873 0 LINE",
"263.127 734 LINE",
"165.127 734 LINE",
"48.873 0 LINE"
);
}
);
width = 641;
},
{
layerId = "BDDC71A3-6F27-45BF-8BFA-A352BA3DE3E7";
paths = (
{
closed = 1;
nodes = (
"312.28 292 LINE SMOOTH",
"478.28 292 OFFCURVE",
"560.435 394 OFFCURVE",
"578.332 507 CURVE SMOOTH",
"579.916 517 LINE SMOOTH",
"597.813 630 OFFCURVE",
"547.969 732 OFFCURVE",
"381.969 732 CURVE SMOOTH",
"200.969 732 LINE",
"196.217 702 LINE",
"379.217 702 LINE SMOOTH",
"524.217 702 OFFCURVE",
"563.596 616 OFFCURVE",
"547.124 512 CURVE SMOOTH",
"530.652 408 OFFCURVE",
"464.031 322 OFFCURVE",
"319.031 322 CURVE SMOOTH",
"136.031 322 LINE",
"131.28 292 LINE"
);
},
{
closed = 1;
nodes = (
"104.031 0 LINE",
"219.969 732 LINE",
"187.969 732 LINE",
"72.031 0 LINE"
);
}
);
width = 610;
},
{
layerId = "2089B89D-61CE-4065-A534-BEF0C3F67EB7";
name = public.background;
paths = (
{
closed = 1;
nodes = (
"324 292 LINE SMOOTH",
"490 292 OFFCURVE",
"556 394 OFFCURVE",
"556 507 CURVE SMOOTH",
"556 517 LINE SMOOTH",
"556 630 OFFCURVE",
"490 732 OFFCURVE",
"324 732 CURVE SMOOTH",
"143 732 LINE",
"143 702 LINE",
"326 702 LINE SMOOTH",
"471 702 OFFCURVE",
"524 616 OFFCURVE",
"524 512 CURVE SMOOTH",
"524 408 OFFCURVE",
"471 322 OFFCURVE",
"326 322 CURVE SMOOTH",
"143 322 LINE",
"143 292 LINE"
);
},
{
closed = 1;
nodes = (
"162 0 LINE",
"162 732 LINE",
"130 732 LINE",
"130 0 LINE"
);
}
);
width = 677;
}
);
leftKerningGroup = UC_Stem;
rightKerningGroup = UC_P;
unicode = 0050;
},
{
color = 7;
glyphname = Thorn;
leftMetricsKey = H;
rightMetricsKey = P;
layers = (
{
layerId = "48B7067D-14EA-4B3A-BE9A-22D6185653A2";
paths = (
{
closed = 1;
nodes = (
"305.662 104 LINE SMOOTH",
"490.662 104 OFFCURVE",
"620.183 202 OFFCURVE",
"645.683 363 CURVE SMOOTH",
"648.217 379 LINE SMOOTH",
"673.717 540 OFFCURVE",
"575.239 638 OFFCURVE",
"390.239 638 CURVE SMOOTH",
"283.239 638 LINE",
"257.897 478 LINE",
"369.897 478 LINE SMOOTH",
"434.897 478 OFFCURVE",
"469.562 438 OFFCURVE",
"458.95 371 CURVE SMOOTH",
"448.339 304 OFFCURVE",
"401.162 265 OFFCURVE",
"336.162 265 CURVE SMOOTH",
"224.162 265 LINE",
"198.662 104 LINE"
);
},
{
closed = 1;
nodes = (
"202.19 0 LINE",
"317.81 730 LINE",
"131.81 730 LINE",
"16.19 0 LINE"
);
}
);
width = 648;
},
{
layerId = "38B5227D-F751-450D-B2B2-8DC56D0E577B";
paths = (
{
closed = 1;
nodes = (
"288.364 140 LINE SMOOTH",
"458.364 140 OFFCURVE",
"563.093 233 OFFCURVE",
"583.842 364 CURVE SMOOTH",
"586.059 378 LINE SMOOTH",
"606.807 509 OFFCURVE",
"531.537 602 OFFCURVE",
"361.537 602 CURVE SMOOTH",
"221.537 602 LINE",
"207.916 516 LINE",
"361.916 516 LINE SMOOTH",
"463.916 516 OFFCURVE",
"498.571 457 OFFCURVE",
"484.95 371 CURVE SMOOTH",
"471.329 285 OFFCURVE",
"418.143 227 OFFCURVE",
"316.143 227 CURVE SMOOTH",
"162.143 227 LINE",
"148.364 140 LINE"
);
},
{
closed = 1;
nodes = (
"146.19 0 LINE",
"261.81 730 LINE",
"163.81 730 LINE",
"48.19 0 LINE"
);
}
);
width = 602;
},
{
layerId = "BDDC71A3-6F27-45BF-8BFA-A352BA3DE3E7";
paths = (
{
closed = 1;
nodes = (
"274.739 156 LINE SMOOTH",
"437.739 156 OFFCURVE",
"520.578 256 OFFCURVE",
"538.158 367 CURVE SMOOTH",
"539.742 377 LINE SMOOTH",
"557.323 488 OFFCURVE",
"506.161 588 OFFCURVE",
"343.161 588 CURVE SMOOTH",
"178.161 588 LINE",
"173.41 558 LINE",
"340.41 558 LINE SMOOTH",
"481.41 558 OFFCURVE",
"523.264 475 OFFCURVE",
"506.95 372 CURVE SMOOTH",
"490.637 269 OFFCURVE",
"422.491 186 OFFCURVE",
"281.491 186 CURVE SMOOTH",
"114.491 186 LINE",
"109.739 156 LINE"
);
},
{
closed = 1;
nodes = (
"104.031 0 LINE",
"219.969 732 LINE",
"187.969 732 LINE",
"72.031 0 LINE"
);
}
);
width = 570;
},
{
layerId = "2089B89D-61CE-4065-A534-BEF0C3F67EB7";
name = public.background;
paths = (
{
closed = 1;
nodes = (
"308 156 LINE SMOOTH",
"471 156 OFFCURVE",
"538 256 OFFCURVE",
"538 367 CURVE SMOOTH",
"538 377 LINE SMOOTH",
"538 488 OFFCURVE",
"471 588 OFFCURVE",
"308 588 CURVE SMOOTH",
"143 588 LINE",
"143 558 LINE",
"310 558 LINE SMOOTH",
"451 558 OFFCURVE",
"506 475 OFFCURVE",
"506 372 CURVE SMOOTH",
"506 269 OFFCURVE",
"451 186 OFFCURVE",
"310 186 CURVE SMOOTH",
"143 186 LINE",
"143 156 LINE"
);
},
{
closed = 1;
nodes = (
"162 0 LINE",
"162 732 LINE",
"130 732 LINE",
"130 0 LINE"
);
}
);
width = 648;
}
);
leftKerningGroup = UC_Stem;
unicode = 00DE;
},
{
color = 7;
glyphname = Q;
leftMetricsKey = O;
rightMetricsKey = O;
layers = (
{
layerId = "2089B89D-61CE-4065-A534-BEF0C3F67EB7";
name = public.background;
paths = (
{
closed = 1;
nodes = (
"336 -204 LINE",
"336 -174 LINE",
"210 -174 LINE SMOOTH",
"138 -174 OFFCURVE",
"102 -138 OFFCURVE",
"102 -66 CURVE SMOOTH",
"102 2 LINE",
"70 2 LINE",
"70 -62 LINE SMOOTH",
"70 -156 OFFCURVE",
"120 -204 OFFCURVE",
"214 -204 CURVE SMOOTH"
);
}
);
width = 398;
},
{
components = (
{
name = O;
alignment = -1;
}
);
guideLines = (
{
angle = 90;
position = "{431, 0}";
}
);
layerId = "48B7067D-14EA-4B3A-BE9A-22D6185653A2";
paths = (
{
closed = 1;
nodes = (
"582.603 -220 LINE",
"604.777 -80 LINE",
"500.777 -80 LINE SMOOTH",
"463.777 -80 OFFCURVE",
"444.628 -62 OFFCURVE",
"450.646 -24 CURVE SMOOTH",
"470.286 100 LINE",
"296.286 100 LINE",
"277.28 -20 LINE SMOOTH",
"251.305 -184 OFFCURVE",
"338.603 -220 OFFCURVE",
"482.603 -220 CURVE SMOOTH"
);
}
);
width = 864;
},
{
components = (
{
name = O;
alignment = -1;
}
);
guideLines = (
{
angle = 90;
position = "{431, 0}";
}
);
layerId = "38B5227D-F751-450D-B2B2-8DC56D0E577B";
paths = (
{
closed = 1;
nodes = (
"582.187 -211 LINE",
"595.966 -124 LINE",
"471.966 -124 LINE SMOOTH",
"428.966 -124 OFFCURVE",
"405.243 -97 OFFCURVE",
"412.211 -53 CURVE SMOOTH",
"428.525 50 LINE",
"338.525 50 LINE",
"324.587 -38 LINE SMOOTH",
"303.522 -171 OFFCURVE",
"366.187 -211 OFFCURVE",
"475.187 -211 CURVE SMOOTH"
);
}
);
width = 865;
},
{
components = (
{
name = O;
alignment = -1;
}
);
layerId = "BDDC71A3-6F27-45BF-8BFA-A352BA3DE3E7";
paths = (
{
closed = 1;
nodes = (
"599.454 -204 LINE",
"604.205 -174 LINE",
"478.205 -174 LINE SMOOTH",
"406.205 -174 OFFCURVE",
"375.907 -138 OFFCURVE",
"387.311 -66 CURVE SMOOTH",
"398.081 2 LINE",
"366.081 2 LINE",
"355.944 -62 LINE SMOOTH",
"341.056 -156 OFFCURVE",
"383.454 -204 OFFCURVE",
"477.454 -204 CURVE SMOOTH"
);
}
);
width = 872;
}
);
leftKerningGroup = UC_Round;
rightKerningGroup = UC_Round;
unicode = 0051;
},
{
color = 7;
glyphname = R;
leftMetricsKey = H;
layers = (
{
anchors = (
{
name = bottom;
position = "{361, 0}";
},
{
name = top;
position = "{318, 730}";
}
);
layerId = "2089B89D-61CE-4065-A534-BEF0C3F67EB7";
name = public.background;
paths = (
{
closed = 1;
nodes = (
"162 0 LINE",
"162 732 LINE",
"130 732 LINE",
"130 0 LINE"
);
},
{
closed = 1;
nodes = (
"628 0 LINE",
"362 318 LINE",
"323 318 LINE",
"588 0 LINE"
);
},
{
closed = 1;
nodes = (
"337 302 LINE SMOOTH",
"498 302 OFFCURVE",
"562 400 OFFCURVE",
"562 512 CURVE SMOOTH",
"562 522 LINE SMOOTH",
"562 634 OFFCURVE",
"498 732 OFFCURVE",
"337 732 CURVE SMOOTH",
"143 732 LINE",
"143 702 LINE",
"339 702 LINE SMOOTH",
"480 702 OFFCURVE",
"530 619 OFFCURVE",
"530 517 CURVE SMOOTH",
"530 415 OFFCURVE",
"480 332 OFFCURVE",
"339 332 CURVE SMOOTH",
"143 332 LINE",
"143 302 LINE"
);
}
);
width = 741;
},
{
anchors = (
{
name = bottom;
position = "{322, 0}";
},
{
name = top;
position = "{408, 730}";
}
);
layerId = "48B7067D-14EA-4B3A-BE9A-22D6185653A2";
paths = (
{
closed = 1;
nodes = (
"202.715 0 LINE",
"319.285 736 LINE",
"133.285 736 LINE",
"16.715 0 LINE"
);
},
{
closed = 1;
nodes = (
"670.715 0 LINE",
"502.814 310 LINE",
"300.814 310 LINE",
"456.715 0 LINE"
);
},
{
closed = 1;
nodes = (
"355.193 224 LINE SMOOTH",
"544.193 224 OFFCURVE",
"675.18 306 OFFCURVE",
"701.155 470 CURVE SMOOTH",
"703.689 486 LINE SMOOTH",
"729.664 650 OFFCURVE",
"626.285 736 OFFCURVE",
"436.285 736 CURVE SMOOTH",
"272.285 736 LINE",
"247.578 580 LINE",
"422.578 580 LINE SMOOTH",
"487.578 580 OFFCURVE",
"523.925 538 OFFCURVE",
"513.63 473 CURVE SMOOTH",
"503.335 408 OFFCURVE",
"453.842 367 OFFCURVE",
"388.842 367 CURVE SMOOTH",
"213.842 367 LINE",
"191.193 224 LINE"
);
}
);
width = 741;
},
{
anchors = (
{
name = bottom;
position = "{317, 0}";
},
{
name = top;
position = "{396, 730}";
}
);
layerId = "38B5227D-F751-450D-B2B2-8DC56D0E577B";
paths = (
{
closed = 1;
nodes = (
"146.873 0 LINE",
"263.127 734 LINE",
"165.127 734 LINE",
"48.873 0 LINE"
);
},
{
closed = 1;
nodes = (
"618.873 0 LINE",
"424.348 325 LINE",
"309.348 325 LINE",
"499.873 0 LINE"
);
},
{
closed = 1;
nodes = (
"329.686 264 LINE SMOOTH",
"488.686 264 OFFCURVE",
"606.615 333 OFFCURVE",
"631.64 491 CURVE SMOOTH",
"634.174 507 LINE SMOOTH",
"659.199 665 OFFCURVE",
"564.127 734 OFFCURVE",
"404.127 734 CURVE SMOOTH",
"226.127 734 LINE",
"212.506 648 LINE",
"408.506 648 LINE SMOOTH",
"499.506 648 OFFCURVE",
"546.528 585 OFFCURVE",
"532.907 499 CURVE SMOOTH",
"519.286 413 OFFCURVE",
"452.466 351 OFFCURVE",
"361.466 351 CURVE SMOOTH",
"165.466 351 LINE",
"151.686 264 LINE"
);
}
);
width = 701;
},
{
anchors = (
{
name = bottom;
position = "{303, 0}";
},
{
name = top;
position = "{376, 730}";
}
);
layerId = "BDDC71A3-6F27-45BF-8BFA-A352BA3DE3E7";
paths = (
{
closed = 1;
nodes = (
"104.031 0 LINE",
"219.969 732 LINE",
"187.969 732 LINE",
"72.031 0 LINE"
);
},
{
closed = 1;
nodes = (
"570.031 0 LINE",
"354.398 318 LINE",
"315.398 318 LINE",
"530.031 0 LINE"
);
},
{
closed = 1;
nodes = (
"326.863 302 LINE SMOOTH",
"487.863 302 OFFCURVE",
"567.385 400 OFFCURVE",
"585.124 512 CURVE SMOOTH",
"586.708 522 LINE SMOOTH",
"604.447 634 OFFCURVE",
"555.969 732 OFFCURVE",
"394.969 732 CURVE SMOOTH",
"200.969 732 LINE",
"196.217 702 LINE",
"392.217 702 LINE SMOOTH",
"533.217 702 OFFCURVE",
"570.071 619 OFFCURVE",
"553.916 517 CURVE SMOOTH",
"537.761 415 OFFCURVE",
"474.615 332 OFFCURVE",
"333.615 332 CURVE SMOOTH",
"137.615 332 LINE",
"132.863 302 LINE"
);
}
);
width = 662;
}
);
leftKerningGroup = UC_Stem;
rightKerningGroup = UC_R;
unicode = 0052;
},
{
color = 7;
glyphname = S;
layers = (
{
anchors = (
{
name = bottom;
position = "{357, 0}";
},
{
name = top;
position = "{355, 730}";
}
);
layerId = "2089B89D-61CE-4065-A534-BEF0C3F67EB7";
name = public.background;
paths = (
{
closed = 1;
nodes = (
"532 -16 OFFCURVE",
"624 71 OFFCURVE",
"624 188 CURVE SMOOTH",
"624 291 OFFCURVE",
"550 376 OFFCURVE",
"406 389 CURVE SMOOTH",
"316 397 LINE SMOOTH",
"213 406 OFFCURVE",
"154 459 OFFCURVE",
"154 551 CURVE SMOOTH",
"154 643 OFFCURVE",
"212 718 OFFCURVE",
"354 718 CURVE SMOOTH",
"502 718 OFFCURVE",
"564 632 OFFCURVE",
"564 532 CURVE",
"596 532 LINE",
"596 647 OFFCURVE",
"520 748 OFFCURVE",
"354 748 CURVE SMOOTH",
"194 748 OFFCURVE",
"122 658 OFFCURVE",
"122 551 CURVE SMOOTH",
"122 445 OFFCURVE",
"194 377 OFFCURVE",
"311 367 CURVE SMOOTH",
"401 359 LINE SMOOTH",
"531 347 OFFCURVE",
"592 277 OFFCURVE",
"592 188 CURVE SMOOTH",
"592 82 OFFCURVE",
"509 14 OFFCURVE",
"357 14 CURVE SMOOTH",
"192 14 OFFCURVE",
"114 90 OFFCURVE",
"114 208 CURVE",
"82 208 LINE",
"82 79 OFFCURVE",
"169 -16 OFFCURVE",
"357 -16 CURVE SMOOTH"
);
}
);
width = 659;
},
{
anchors = (
{
name = bottom;
position = "{272, 0}";
},
{
name = top;
position = "{373, 730}";
}
);
guideLines = (
{
angle = 353.99;
position = "{275, 450}";
}
);
layerId = "48B7067D-14EA-4B3A-BE9A-22D6185653A2";
paths = (
{
closed = 1;
nodes = (
"460.28 -20 OFFCURVE",
"588.851 72 OFFCURVE",
"611.5 215 CURVE SMOOTH",
"633.832 356 OFFCURVE",
"529.186 434 OFFCURVE",
"368.404 448 CURVE SMOOTH",
"322.037 452 LINE SMOOTH",
"259.829 457 OFFCURVE",
"242.581 487 OFFCURVE",
"248.441 524 CURVE SMOOTH",
"255.093 566 OFFCURVE",
"291.161 598 OFFCURVE",
"352.161 598 CURVE SMOOTH",
"416.161 598 OFFCURVE",
"446.984 559 OFFCURVE",
"439.382 511 CURVE",
"619.382 511 LINE",
"642.189 655 OFFCURVE",
"555.553 752 OFFCURVE",
"376.553 752 CURVE SMOOTH",
"210.553 752 OFFCURVE",
"91.09 667 OFFCURVE",
"68.441 524 CURVE SMOOTH",
"47.059 389 OFFCURVE",
"129.596 304 OFFCURVE",
"278.537 291 CURVE SMOOTH",
"324.904 287 LINE SMOOTH",
"408.795 280 OFFCURVE",
"438.152 257 OFFCURVE",
"431.5 215 CURVE SMOOTH",
"423.581 165 OFFCURVE",
"372.671 134 OFFCURVE",
"295.671 134 CURVE SMOOTH",
"205.671 134 OFFCURVE",
"170.006 174 OFFCURVE",
"178.401 227 CURVE",
"-1.599 227 LINE",
"-24.407 83 OFFCURVE",
"66.28 -20 OFFCURVE",
"271.28 -20 CURVE SMOOTH"
);
}
);
width = 659;
},
{
anchors = (
{
name = bottom;
position = "{283, 0}";
},
{
name = top;
position = "{400, 730}";
}
);
layerId = "38B5227D-F751-450D-B2B2-8DC56D0E577B";
paths = (
{
closed = 1;
nodes = (
"452.755 -18 OFFCURVE",
"583.643 76 OFFCURVE",
"605.025 211 CURVE SMOOTH",
"623.556 328 OFFCURVE",
"540.801 399 OFFCURVE",
"393.86 412 CURVE SMOOTH",
"313.969 419 LINE SMOOTH",
"233.078 426 OFFCURVE",
"199.363 472 OFFCURVE",
"207.916 526 CURVE SMOOTH",
"218.845 595 OFFCURVE",
"280.14 660 OFFCURVE",
"389.14 660 CURVE SMOOTH",
"500.14 660 OFFCURVE",
"537.369 592 OFFCURVE",
"526.441 523 CURVE",
"624.441 523 LINE",
"646.456 662 OFFCURVE",
"555.394 750 OFFCURVE",
"403.394 750 CURVE SMOOTH",
"249.394 750 OFFCURVE",
"130.981 659 OFFCURVE",
"109.916 526 CURVE SMOOTH",
"92.019 413 OFFCURVE",
"164.457 340 OFFCURVE",
"291.714 329 CURVE SMOOTH",
"371.606 322 LINE SMOOTH",
"470.18 313 OFFCURVE",
"516.528 271 OFFCURVE",
"507.025 211 CURVE SMOOTH",
"495.305 137 OFFCURVE",
"427.01 72 OFFCURVE",
"295.01 72 CURVE SMOOTH",
"153.01 72 OFFCURVE",
"118.047 148 OFFCURVE",
"128.658 215 CURVE",
"30.658 215 LINE",
"9.277 80 OFFCURVE",
"98.755 -18 OFFCURVE",
"280.755 -18 CURVE SMOOTH"
);
}
);
width = 689;
},
{
anchors = (
{
name = bottom;
position = "{298, 0}";
},
{
name = top;
position = "{411, 730}";
}
);
layerId = "BDDC71A3-6F27-45BF-8BFA-A352BA3DE3E7";
paths = (
{
closed = 1;
nodes = (
"470.23 -16 OFFCURVE",
"576.01 71 OFFCURVE",
"594.54 188 CURVE SMOOTH",
"610.854 291 OFFCURVE",
"550.317 376 OFFCURVE",
"408.376 389 CURVE SMOOTH",
"319.643 397 LINE SMOOTH",
"218.068 406 OFFCURVE",
"167.463 459 OFFCURVE",
"182.034 551 CURVE SMOOTH",
"196.605 643 OFFCURVE",
"266.484 718 OFFCURVE",
"408.484 718 CURVE SMOOTH",
"556.484 718 OFFCURVE",
"604.863 632 OFFCURVE",
"589.025 532 CURVE",
"621.025 532 LINE",
"639.239 647 OFFCURVE",
"579.236 748 OFFCURVE",
"413.236 748 CURVE SMOOTH",
"253.236 748 OFFCURVE",
"166.981 658 OFFCURVE",
"150.034 551 CURVE SMOOTH",
"133.245 445 OFFCURVE",
"194.475 377 OFFCURVE",
"309.891 367 CURVE SMOOTH",
"398.624 359 LINE SMOOTH",
"526.724 347 OFFCURVE",
"576.637 277 OFFCURVE",
"562.54 188 CURVE SMOOTH",
"545.752 82 OFFCURVE",
"451.982 14 OFFCURVE",
"299.982 14 CURVE SMOOTH",
"134.982 14 OFFCURVE",
"69.019 90 OFFCURVE",
"87.708 208 CURVE",
"55.708 208 LINE",
"35.277 79 OFFCURVE",
"107.23 -16 OFFCURVE",
"295.23 -16 CURVE SMOOTH"
);
}
);
width = 712;
}
);
leftKerningGroup = UC_S;
rightKerningGroup = UC_S;
unicode = 0053;
},
{
color = 6;
glyphname = Germandbls;
leftMetricsKey = S;
rightMetricsKey = S;
layers = (
{
layerId = "48B7067D-14EA-4B3A-BE9A-22D6185653A2";
paths = (
{
closed = 1;
nodes = (
"451.201 -21 OFFCURVE",
"578.93 72 OFFCURVE",
"601.579 215 CURVE SMOOTH",
"623.595 354 OFFCURVE",
"522.265 434 OFFCURVE",
"362.483 448 CURVE SMOOTH",
"317.116 452 LINE SMOOTH",
"257.908 457 OFFCURVE",
"241.501 486 OFFCURVE",
"247.362 523 CURVE SMOOTH",
"254.014 565 OFFCURVE",
"289.082 597 OFFCURVE",
"346.082 597 CURVE SMOOTH",
"407.082 597 OFFCURVE",
"437.222 560 OFFCURVE",
"429.461 511 CURVE",
"609.461 511 LINE",
"632.268 655 OFFCURVE",
"546.473 751 OFFCURVE",
"370.473 751 CURVE SMOOTH",
"208.473 751 OFFCURVE",
"90.011 666 OFFCURVE",
"67.362 523 CURVE SMOOTH",
"45.029 382 OFFCURVE",
"135.517 303 OFFCURVE",
"273.617 291 CURVE SMOOTH",
"318.983 287 LINE SMOOTH",
"402.874 280 OFFCURVE",
"427.915 255 OFFCURVE",
"421.579 215 CURVE SMOOTH",
"413.818 166 OFFCURVE",
"364.592 133 OFFCURVE",
"289.592 133 CURVE SMOOTH",
"203.592 133 OFFCURVE",
"169.086 174 OFFCURVE",
"177.48 227 CURVE",
"-2.52 227 LINE",
"-25.327 83 OFFCURVE",
"64.201 -21 OFFCURVE",
"265.201 -21 CURVE SMOOTH"
);
},
{
closed = 1;
nodes = (
"1095.201 -21 OFFCURVE",
"1222.93 72 OFFCURVE",
"1245.579 215 CURVE SMOOTH",
"1267.753 355 OFFCURVE",
"1166.265 434 OFFCURVE",
"1006.483 448 CURVE SMOOTH",
"961.116 452 LINE SMOOTH",
"901.908 457 OFFCURVE",
"885.501 486 OFFCURVE",
"891.362 523 CURVE SMOOTH",
"898.014 565 OFFCURVE",
"933.082 597 OFFCURVE",
"990.082 597 CURVE SMOOTH",
"1051.082 597 OFFCURVE",
"1081.222 560 OFFCURVE",
"1073.461 511 CURVE",
"1253.461 511 LINE",
"1276.268 655 OFFCURVE",
"1190.473 751 OFFCURVE",
"1014.473 751 CURVE SMOOTH",
"852.473 751 OFFCURVE",
"734.011 666 OFFCURVE",
"711.362 523 CURVE SMOOTH",
"689.029 382 OFFCURVE",
"779.517 303 OFFCURVE",
"917.617 291 CURVE SMOOTH",
"962.983 287 LINE SMOOTH",
"1044.874 280 OFFCURVE",
"1072.073 256 OFFCURVE",
"1065.579 215 CURVE SMOOTH",
"1057.818 166 OFFCURVE",
"1008.592 133 OFFCURVE",
"933.592 133 CURVE SMOOTH",
"847.592 133 OFFCURVE",
"813.086 174 OFFCURVE",
"821.48 227 CURVE",
"641.48 227 LINE",
"618.673 83 OFFCURVE",
"708.201 -21 OFFCURVE",
"909.201 -21 CURVE SMOOTH"
);
}
);
width = 1294;
},
{
layerId = "38B5227D-F751-450D-B2B2-8DC56D0E577B";
paths = (
{
closed = 1;
nodes = (
"454.388 -16 OFFCURVE",
"575.118 77 OFFCURVE",
"596.5 212 CURVE SMOOTH",
"615.189 330 OFFCURVE",
"533.96 398 OFFCURVE",
"387.177 412 CURVE SMOOTH",
"312.286 419 LINE SMOOTH",
"232.394 426 OFFCURVE",
"199.68 472 OFFCURVE",
"207.916 524 CURVE SMOOTH",
"218.845 593 OFFCURVE",
"276.823 656 OFFCURVE",
"382.823 656 CURVE SMOOTH",
"487.823 656 OFFCURVE",
"528.894 587 OFFCURVE",
"518.758 523 CURVE",
"615.758 523 LINE",
"638.407 666 OFFCURVE",
"549.077 746 OFFCURVE",
"397.077 746 CURVE SMOOTH",
"246.077 746 OFFCURVE",
"131.298 659 OFFCURVE",
"109.916 524 CURVE SMOOTH",
"91.227 406 OFFCURVE",
"163.932 341 OFFCURVE",
"290.031 329 CURVE SMOOTH",
"364.922 322 LINE SMOOTH",
"461.497 313 OFFCURVE",
"507.528 269 OFFCURVE",
"498.5 212 CURVE SMOOTH",
"486.938 139 OFFCURVE",
"418.643 74 OFFCURVE",
"291.643 74 CURVE SMOOTH",
"150.643 74 OFFCURVE",
"118.631 156 OFFCURVE",
"127.975 215 CURVE",
"30.975 215 LINE",
"8.326 72 OFFCURVE",
"102.388 -16 OFFCURVE",
"277.388 -16 CURVE SMOOTH"
);
},
{
closed = 1;
nodes = (
"1104.388 -16 OFFCURVE",
"1221.118 77 OFFCURVE",
"1242.5 212 CURVE SMOOTH",
"1261.348 331 OFFCURVE",
"1178.118 399 OFFCURVE",
"1033.177 412 CURVE SMOOTH",
"954.286 419 LINE SMOOTH",
"874.394 426 OFFCURVE",
"841.68 472 OFFCURVE",
"849.916 524 CURVE SMOOTH",
"860.845 593 OFFCURVE",
"920.823 656 OFFCURVE",
"1027.823 656 CURVE SMOOTH",
"1133.823 656 OFFCURVE",
"1174.894 587 OFFCURVE",
"1164.758 523 CURVE",
"1261.758 523 LINE",
"1284.407 666 OFFCURVE",
"1195.077 746 OFFCURVE",
"1042.077 746 CURVE SMOOTH",
"890.077 746 OFFCURVE",
"773.298 659 OFFCURVE",
"751.916 524 CURVE SMOOTH",
"733.385 407 OFFCURVE",
"805.773 340 OFFCURVE",
"932.031 329 CURVE SMOOTH",
"1010.922 322 LINE SMOOTH",
"1107.497 313 OFFCURVE",
"1153.686 270 OFFCURVE",
"1144.5 212 CURVE SMOOTH",
"1132.938 139 OFFCURVE",
"1068.643 74 OFFCURVE",
"942.643 74 CURVE SMOOTH",
"802.643 74 OFFCURVE",
"774.631 156 OFFCURVE",
"783.975 215 CURVE",
"686.975 215 LINE",
"664.326 72 OFFCURVE",
"754.388 -16 OFFCURVE",
"928.388 -16 CURVE SMOOTH"
);
}
);
width = 1327;
},
{
layerId = "BDDC71A3-6F27-45BF-8BFA-A352BA3DE3E7";
paths = (
{
closed = 1;
nodes = (
"466.23 -16 OFFCURVE",
"568.01 71 OFFCURVE",
"586.54 188 CURVE SMOOTH",
"602.854 291 OFFCURVE",
"544.317 376 OFFCURVE",
"402.376 389 CURVE SMOOTH",
"315.643 397 LINE SMOOTH",
"214.068 406 OFFCURVE",
"165.463 459 OFFCURVE",
"180.034 551 CURVE SMOOTH",
"194.605 643 OFFCURVE",
"261.484 718 OFFCURVE",
"403.484 718 CURVE SMOOTH",
"551.484 718 OFFCURVE",
"596.863 632 OFFCURVE",
"581.025 532 CURVE",
"613.025 532 LINE",
"631.239 647 OFFCURVE",
"574.236 748 OFFCURVE",
"408.236 748 CURVE SMOOTH",
"248.236 748 OFFCURVE",
"164.981 658 OFFCURVE",
"148.034 551 CURVE SMOOTH",
"131.245 445 OFFCURVE",
"190.634 378 OFFCURVE",
"305.891 367 CURVE SMOOTH",
"392.624 359 LINE SMOOTH",
"520.724 347 OFFCURVE",
"568.637 277 OFFCURVE",
"554.54 188 CURVE SMOOTH",
"537.752 82 OFFCURVE",
"447.982 14 OFFCURVE",
"295.982 14 CURVE SMOOTH",
"130.982 14 OFFCURVE",
"69.019 90 OFFCURVE",
"87.708 208 CURVE",
"55.708 208 LINE",
"35.277 79 OFFCURVE",
"103.23 -16 OFFCURVE",
"291.23 -16 CURVE SMOOTH"
);
},
{
closed = 1;
nodes = (
"1130.23 -16 OFFCURVE",
"1232.01 71 OFFCURVE",
"1250.54 188 CURVE SMOOTH",
"1266.854 291 OFFCURVE",
"1208.317 376 OFFCURVE",
"1066.376 389 CURVE SMOOTH",
"979.643 397 LINE SMOOTH",
"878.068 406 OFFCURVE",
"829.463 459 OFFCURVE",
"844.034 551 CURVE SMOOTH",
"858.605 643 OFFCURVE",
"925.484 718 OFFCURVE",
"1067.484 718 CURVE SMOOTH",
"1215.484 718 OFFCURVE",
"1260.863 632 OFFCURVE",
"1245.025 532 CURVE",
"1277.025 532 LINE",
"1295.239 647 OFFCURVE",
"1238.236 748 OFFCURVE",
"1072.236 748 CURVE SMOOTH",
"912.236 748 OFFCURVE",
"828.981 658 OFFCURVE",
"812.034 551 CURVE SMOOTH",
"795.245 445 OFFCURVE",
"854.634 378 OFFCURVE",
"969.891 367 CURVE SMOOTH",
"1056.624 359 LINE SMOOTH",
"1184.724 347 OFFCURVE",
"1232.637 277 OFFCURVE",
"1218.54 188 CURVE SMOOTH",
"1201.752 82 OFFCURVE",
"1111.982 14 OFFCURVE",
"959.982 14 CURVE SMOOTH",
"794.982 14 OFFCURVE",
"733.019 90 OFFCURVE",
"751.708 208 CURVE",
"719.708 208 LINE",
"699.277 79 OFFCURVE",
"767.23 -16 OFFCURVE",
"955.23 -16 CURVE SMOOTH"
);
}
);
width = 1368;
},
{
layerId = "2089B89D-61CE-4065-A534-BEF0C3F67EB7";
name = public.background;
paths = (
{
closed = 1;
nodes = (
"528 -16 OFFCURVE",
"616 71 OFFCURVE",
"616 188 CURVE SMOOTH",
"616 291 OFFCURVE",
"544 376 OFFCURVE",
"400 389 CURVE SMOOTH",
"312 397 LINE SMOOTH",
"209 406 OFFCURVE",
"152 459 OFFCURVE",
"152 551 CURVE SMOOTH",
"152 643 OFFCURVE",
"207 718 OFFCURVE",
"349 718 CURVE SMOOTH",
"497 718 OFFCURVE",
"556 632 OFFCURVE",
"556 532 CURVE",
"588 532 LINE",
"588 647 OFFCURVE",
"515 748 OFFCURVE",
"349 748 CURVE SMOOTH",
"189 748 OFFCURVE",
"120 658 OFFCURVE",
"120 551 CURVE SMOOTH",
"120 445 OFFCURVE",
"190 378 OFFCURVE",
"307 367 CURVE SMOOTH",
"395 359 LINE SMOOTH",
"525 347 OFFCURVE",
"584 277 OFFCURVE",
"584 188 CURVE SMOOTH",
"584 82 OFFCURVE",
"505 14 OFFCURVE",
"353 14 CURVE SMOOTH",
"188 14 OFFCURVE",
"114 90 OFFCURVE",
"114 208 CURVE",
"82 208 LINE",
"82 79 OFFCURVE",
"165 -16 OFFCURVE",
"353 -16 CURVE SMOOTH"
);
},
{
closed = 1;
nodes = (
"1192 -16 OFFCURVE",
"1280 71 OFFCURVE",
"1280 188 CURVE SMOOTH",
"1280 291 OFFCURVE",
"1208 376 OFFCURVE",
"1064 389 CURVE SMOOTH",
"976 397 LINE SMOOTH",
"873 406 OFFCURVE",
"816 459 OFFCURVE",
"816 551 CURVE SMOOTH",
"816 643 OFFCURVE",
"871 718 OFFCURVE",
"1013 718 CURVE SMOOTH",
"1161 718 OFFCURVE",
"1220 632 OFFCURVE",
"1220 532 CURVE",
"1252 532 LINE",
"1252 647 OFFCURVE",
"1179 748 OFFCURVE",
"1013 748 CURVE SMOOTH",
"853 748 OFFCURVE",
"784 658 OFFCURVE",
"784 551 CURVE SMOOTH",
"784 445 OFFCURVE",
"854 378 OFFCURVE",
"971 367 CURVE SMOOTH",
"1059 359 LINE SMOOTH",
"1189 347 OFFCURVE",
"1248 277 OFFCURVE",
"1248 188 CURVE SMOOTH",
"1248 82 OFFCURVE",
"1169 14 OFFCURVE",
"1017 14 CURVE SMOOTH",
"852 14 OFFCURVE",
"778 90 OFFCURVE",
"778 208 CURVE",
"746 208 LINE",
"746 79 OFFCURVE",
"829 -16 OFFCURVE",
"1017 -16 CURVE SMOOTH"
);
}
);
width = 1294;
}
);
leftKerningGroup = UC_S;
rightKerningGroup = UC_S;
unicode = 1E9E;
},
{
color = 7;
glyphname = T;
layers = (
{
anchors = (
{
name = bottom;
position = "{288, 0}";
},
{
name = center;
position = "{288, 365}";
},
{
name = top;
position = "{288, 730}";
}
);
layerId = "2089B89D-61CE-4065-A534-BEF0C3F67EB7";
name = public.background;
paths = (
{
closed = 1;
nodes = (
"304 0 LINE",
"304 716 LINE",
"272 716 LINE",
"272 0 LINE"
);
},
{
closed = 1;
nodes = (
"544 700 LINE",
"544 730 LINE",
"32 730 LINE",
"32 700 LINE"
);
}
);
width = 626;
},
{
anchors = (
{
name = bottom;
position = "{255, 0}";
},
{
name = center;
position = "{313, 365}";
},
{
name = top;
position = "{371, 730}";
}
);
layerId = "48B7067D-14EA-4B3A-BE9A-22D6185653A2";
paths = (
{
closed = 1;
nodes = (
"348.19 0 LINE",
"441.32 588 LINE",
"255.32 588 LINE",
"162.19 0 LINE"
);
},
{
closed = 1;
nodes = (
"638.152 568 LINE",
"663.81 730 LINE",
"77.81 730 LINE",
"52.152 568 LINE"
);
}
);
width = 626;
},
{
anchors = (
{
name = bottom;
position = "{239, 0}";
},
{
name = center;
position = "{297, 365}";
},
{
name = top;
position = "{355, 730}";
}
);
layerId = "38B5227D-F751-450D-B2B2-8DC56D0E577B";
paths = (
{
closed = 1;
nodes = (
"288.19 0 LINE",
"393.04 662 LINE",
"295.04 662 LINE",
"190.19 0 LINE"
);
},
{
closed = 1;
nodes = (
"611.872 642 LINE",
"625.81 730 LINE",
"83.81 730 LINE",
"69.872 642 LINE"
);
}
);
width = 594;
},
{
anchors = (
{
name = bottom;
position = "{230, 0}";
},
{
name = center;
position = "{288, 365}";
},
{
name = top;
position = "{346, 730}";
}
);
layerId = "BDDC71A3-6F27-45BF-8BFA-A352BA3DE3E7";
paths = (
{
closed = 1;
nodes = (
"246.19 0 LINE",
"359.593 716 LINE",
"327.593 716 LINE",
"214.19 0 LINE"
);
},
{
closed = 1;
nodes = (
"597.059 700 LINE",
"601.81 730 LINE",
"89.81 730 LINE",
"85.059 700 LINE"
);
}
);
width = 576;
}
);
leftKerningGroup = UC_T;
rightKerningGroup = UC_T;
unicode = 0054;
},
{
color = 6;
glyphname = Tbar;
widthMetricsKey = T;
layers = (
{
layerId = "2089B89D-61CE-4065-A534-BEF0C3F67EB7";
name = public.background;
paths = (
{
closed = 1;
nodes = (
"476 362 LINE",
"476 390 LINE",
"100 390 LINE",
"100 362 LINE"
);
}
);
width = 626;
},
{
components = (
{
name = T;
alignment = -1;
}
);
layerId = "48B7067D-14EA-4B3A-BE9A-22D6185653A2";
paths = (
{
closed = 1;
nodes = (
"533.488 286 LINE",
"553.127 410 LINE",
"87.127 410 LINE",
"67.488 286 LINE"
);
}
);
width = 626;
},
{
components = (
{
name = T;
alignment = -1;
}
);
layerId = "38B5227D-F751-450D-B2B2-8DC56D0E577B";
paths = (
{
closed = 1;
nodes = (
"494.873 320 LINE",
"507.543 400 LINE",
"97.543 400 LINE",
"84.873 320 LINE"
);
}
);
width = 594;
},
{
components = (
{
name = T;
alignment = -1;
}
);
layerId = "BDDC71A3-6F27-45BF-8BFA-A352BA3DE3E7";
paths = (
{
closed = 1;
nodes = (
"475.525 362 LINE",
"479.96 390 LINE",
"103.96 390 LINE",
"99.525 362 LINE"
);
}
);
width = 576;
}
);
leftKerningGroup = UC_T;
rightKerningGroup = UC_T;
unicode = 0166;
},
{
color = 7;
glyphname = U;
leftMetricsKey = "=H-14";
rightMetricsKey = "=H-14";
layers = (
{
anchors = (
{
name = bottom;
position = "{403, 0}";
},
{
name = ogonek;
position = "{497, 5}";
},
{
name = top;
position = "{403, 730}";
}
);
layerId = "2089B89D-61CE-4065-A534-BEF0C3F67EB7";
name = public.background;
paths = (
{
closed = 1;
nodes = (
"604 -16 OFFCURVE",
"690 109 OFFCURVE",
"690 275 CURVE SMOOTH",
"690 730 LINE",
"658 730 LINE",
"658 271 LINE SMOOTH",
"658 117 OFFCURVE",
"580 14 OFFCURVE",
"403 14 CURVE SMOOTH",
"227 14 OFFCURVE",
"148 117 OFFCURVE",
"148 271 CURVE SMOOTH",
"148 730 LINE",
"116 730 LINE",
"116 275 LINE SMOOTH",
"116 109 OFFCURVE",
"202 -16 OFFCURVE",
"403 -16 CURVE SMOOTH"
);
}
);
width = 794;
},
{
anchors = (
{
name = bottom;
position = "{287, 0}";
},
{
name = ogonek;
position = "{444, 17}";
},
{
name = top;
position = "{403, 730}";
}
);
layerId = "48B7067D-14EA-4B3A-BE9A-22D6185653A2";
paths = (
{
closed = 1;
nodes = (
"494.022 -20 OFFCURVE",
"628.503 103 OFFCURVE",
"659.547 299 CURVE SMOOTH",
"727.81 730 LINE",
"541.81 730 LINE",
"472.913 295 LINE SMOOTH",
"458.975 207 OFFCURVE",
"400.581 154 OFFCURVE",
"311.581 154 CURVE SMOOTH",
"221.581 154 OFFCURVE",
"180.134 208 OFFCURVE",
"193.913 295 CURVE SMOOTH",
"262.81 730 LINE",
"76.81 730 LINE",
"8.547 299 LINE SMOOTH",
"-22.497 103 OFFCURVE",
"74.022 -20 OFFCURVE",
"284.022 -20 CURVE SMOOTH"
);
}
);
width = 730;
},
{
anchors = (
{
name = bottom;
position = "{297, 0}";
},
{
name = ogonek;
position = "{424, 10}";
},
{
name = top;
position = "{413, 730}";
}
);
layerId = "38B5227D-F751-450D-B2B2-8DC56D0E577B";
paths = (
{
closed = 1;
nodes = (
"493.339 -18 OFFCURVE",
"615.978 106 OFFCURVE",
"645.121 290 CURVE SMOOTH",
"714.81 730 LINE",
"616.81 730 LINE",
"545.221 278 LINE SMOOTH",
"525.581 154 OFFCURVE",
"439.593 72 OFFCURVE",
"308.593 72 CURVE SMOOTH",
"176.593 72 OFFCURVE",
"116.739 155 OFFCURVE",
"136.221 278 CURVE SMOOTH",
"207.81 730 LINE",
"109.81 730 LINE",
"40.121 290 LINE SMOOTH",
"10.978 106 OFFCURVE",
"95.339 -18 OFFCURVE",
"294.339 -18 CURVE SMOOTH"
);
}
);
width = 749;
},
{
anchors = (
{
name = bottom;
position = "{307, 0}";
},
{
name = ogonek;
position = "{402, 5}";
},
{
name = top;
position = "{423, 730}";
}
);
layerId = "BDDC71A3-6F27-45BF-8BFA-A352BA3DE3E7";
paths = (
{
closed = 1;
nodes = (
"505.656 -16 OFFCURVE",
"611.454 109 OFFCURVE",
"637.745 275 CURVE SMOOTH",
"709.81 730 LINE",
"677.81 730 LINE",
"605.112 271 LINE SMOOTH",
"580.721 117 OFFCURVE",
"486.407 14 OFFCURVE",
"309.407 14 CURVE SMOOTH",
"133.407 14 OFFCURVE",
"70.721 117 OFFCURVE",
"95.112 271 CURVE SMOOTH",
"167.81 730 LINE",
"135.81 730 LINE",
"63.745 275 LINE SMOOTH",
"37.454 109 OFFCURVE",
"103.656 -16 OFFCURVE",
"304.656 -16 CURVE SMOOTH"
);
}
);
width = 768;
}
);
leftKerningGroup = UC_U;
rightKerningGroup = UC_U;
unicode = 0055;
},
{
color = 7;
glyphname = V;
layers = (
{
layerId = "48B7067D-14EA-4B3A-BE9A-22D6185653A2";
paths = (
{
closed = 1;
nodes = (
"474.19 0 LINE",
"787.81 730 LINE",
"601.81 730 LINE",
"358.938 131 LINE",
"397.631 148 LINE",
"301.631 148 LINE",
"333.938 131 LINE",
"269.81 730 LINE",
"77.81 730 LINE",
"174.19 0 LINE"
);
}
);
width = 750;
},
{
layerId = "38B5227D-F751-450D-B2B2-8DC56D0E577B";
paths = (
{
closed = 1;
nodes = (
"385.19 0 LINE",
"735.81 730 LINE",
"637.81 730 LINE",
"323.326 64 LINE",
"378.128 88 LINE",
"258.128 88 LINE",
"302.326 64 LINE",
"180.81 730 LINE",
"79.81 730 LINE",
"217.19 0 LINE"
);
}
);
width = 708;
},
{
layerId = "BDDC71A3-6F27-45BF-8BFA-A352BA3DE3E7";
paths = (
{
closed = 1;
nodes = (
"323.19 0 LINE",
"701.81 730 LINE",
"668.81 730 LINE",
"298.407 14 LINE",
"329.941 30 LINE",
"250.941 30 LINE",
"275.407 14 LINE",
"118.81 730 LINE",
"85.81 730 LINE",
"246.19 0 LINE"
);
}
);
width = 680;
},
{
layerId = "2089B89D-61CE-4065-A534-BEF0C3F67EB7";
name = public.background;
paths = (
{
closed = 1;
nodes = (
"381 0 LINE",
"644 730 LINE",
"611 730 LINE",
"354 14 LINE",
"383 30 LINE",
"304 30 LINE",
"331 14 LINE",
"61 730 LINE",
"28 730 LINE",
"304 0 LINE"
);
}
);
width = 750;
}
);
unicode = 0056;
},
{
color = 7;
glyphname = W;
layers = (
{
anchors = (
{
name = bottom;
position = "{513, 0}";
},
{
name = top;
position = "{505, 730}";
}
);
layerId = "2089B89D-61CE-4065-A534-BEF0C3F67EB7";
name = public.background;
paths = (
{
closed = 1;
nodes = (
"336 0 LINE",
"511 695 LINE",
"480 695 LINE",
"310 19 LINE",
"319 30 LINE",
"266 30 LINE",
"277 19 LINE",
"72 730 LINE",
"40 730 LINE",
"251 0 LINE"
);
},
{
closed = 1;
nodes = (
"775 0 LINE",
"971 730 LINE",
"939 730 LINE",
"749 19 LINE",
"761 30 LINE",
"704 30 LINE",
"716 19 LINE",
"531 695 LINE",
"500 695 LINE",
"690 0 LINE"
);
}
);
width = 1080;
},
{
anchors = (
{
name = bottom;
position = "{487, 0}";
},
{
name = top;
position = "{599, 730}";
}
);
guideLines = (
{
position = "{0, 148}";
}
);
layerId = "48B7067D-14EA-4B3A-BE9A-22D6185653A2";
paths = (
{
closed = 1;
nodes = (
"411.19 0 LINE",
"659.692 704 LINE",
"508.692 704 LINE",
"317.988 125 LINE",
"356.631 148 LINE",
"275.631 148 LINE",
"302.988 125 LINE",
"267.81 730 LINE",
"75.81 730 LINE",
"134.19 0 LINE"
);
},
{
closed = 1;
nodes = (
"851.19 0 LINE",
"1119.81 730 LINE",
"939.81 730 LINE",
"730.988 125 LINE",
"760.631 148 LINE",
"684.631 148 LINE",
"715.988 125 LINE",
"691.692 704 LINE",
"532.692 704 LINE",
"568.19 0 LINE"
);
}
);
width = 1080;
},
{
anchors = (
{
name = bottom;
position = "{472, 0}";
},
{
name = top;
position = "{581, 730}";
}
);
layerId = "38B5227D-F751-450D-B2B2-8DC56D0E577B";
paths = (
{
closed = 1;
nodes = (
"336.19 0 LINE",
"606.059 700 LINE",
"514.059 700 LINE",
"274.326 64 LINE",
"330.128 88 LINE",
"211.128 88 LINE",
"254.326 64 LINE",
"188.81 730 LINE",
"87.81 730 LINE",
"169.19 0 LINE"
);
},
{
closed = 1;
nodes = (
"776.19 0 LINE",
"1070.81 730 LINE",
"972.81 730 LINE",
"714.326 64 LINE",
"769.128 88 LINE",
"649.128 88 LINE",
"695.326 64 LINE",
"639.059 700 LINE",
"544.059 700 LINE",
"608.19 0 LINE"
);
}
);
width = 1043;
},
{
anchors = (
{
name = bottom;
position = "{455, 0}";
},
{
name = top;
position = "{563, 730}";
}
);
layerId = "BDDC71A3-6F27-45BF-8BFA-A352BA3DE3E7";
paths = (
{
closed = 1;
nodes = (
"278.19 0 LINE",
"563.267 695 LINE",
"532.267 695 LINE",
"255.199 19 LINE",
"265.941 30 LINE",
"212.941 30 LINE",
"222.199 19 LINE",
"129.81 730 LINE",
"97.81 730 LINE",
"193.19 0 LINE"
);
},
{
closed = 1;
nodes = (
"717.19 0 LINE",
"1028.81 730 LINE",
"996.81 730 LINE",
"694.199 19 LINE",
"707.941 30 LINE",
"650.941 30 LINE",
"661.199 19 LINE",
"583.267 695 LINE",
"552.267 695 LINE",
"632.19 0 LINE"
);
}
);
width = 1011;
}
);
leftKerningGroup = UC_W;
rightKerningGroup = UC_W;
unicode = 0057;
},
{
color = 7;
glyphname = X;
layers = (
{
layerId = "48B7067D-14EA-4B3A-BE9A-22D6185653A2";
paths = (
{
closed = 1;
nodes = (
"146.19 0 LINE",
"325.36 241 LINE",
"351.36 241 LINE",
"462.19 0 LINE",
"666.19 0 LINE",
"477.326 386 LINE",
"477.792 370 LINE",
"757.81 730 LINE",
"559.81 730 LINE",
"405.391 519 LINE",
"379.391 519 LINE",
"287.81 730 LINE",
"83.81 730 LINE",
"251.109 372 LINE",
"251.643 388 LINE",
"-51.81 0 LINE"
);
}
);
width = 730;
},
{
layerId = "38B5227D-F751-450D-B2B2-8DC56D0E577B";
paths = (
{
closed = 1;
nodes = (
"64.19 0 LINE",
"323.814 307 LINE",
"339.814 307 LINE",
"509.19 0 LINE",
"620.19 0 LINE",
"405.326 386 LINE",
"403.475 368 LINE",
"715.81 730 LINE",
"609.81 730 LINE",
"371.463 450 LINE",
"355.463 450 LINE",
"208.81 730 LINE",
"97.81 730 LINE",
"289.109 372 LINE",
"291.96 390 LINE",
"-41.81 0 LINE"
);
}
);
width = 696;
},
{
layerId = "BDDC71A3-6F27-45BF-8BFA-A352BA3DE3E7";
paths = (
{
closed = 1;
nodes = (
"2.19 0 LINE",
"321.575 356 LINE",
"331.575 356 LINE",
"531.19 0 LINE",
"566.19 0 LINE",
"350.851 383 LINE",
"345.366 361 LINE",
"670.81 730 LINE",
"634.81 730 LINE",
"340.91 396 LINE",
"330.91 396 LINE",
"147.81 730 LINE",
"112.81 730 LINE",
"311.634 369 LINE",
"317.118 391 LINE",
"-33.652 1 LINE"
);
}
);
width = 662;
},
{
layerId = "2089B89D-61CE-4065-A534-BEF0C3F67EB7";
name = public.background;
paths = (
{
closed = 1;
nodes = (
"60 0 LINE",
"323 356 LINE",
"333 356 LINE",
"589 0 LINE",
"624 0 LINE",
"348 383 LINE",
"346 361 LINE",
"613 730 LINE",
"577 730 LINE",
"336 396 LINE",
"326 396 LINE",
"90 730 LINE",
"55 730 LINE",
"311 369 LINE",
"313 391 LINE",
"24 1 LINE"
);
}
);
width = 730;
}
);
leftKerningGroup = UC_X;
rightKerningGroup = UC_X;
unicode = 0058;
},
{
color = 7;
glyphname = Y;
layers = (
{
anchors = (
{
name = bottom;
position = "{325, 0}";
},
{
name = top;
position = "{320, 730}";
}
);
layerId = "2089B89D-61CE-4065-A534-BEF0C3F67EB7";
name = public.background;
paths = (
{
closed = 1;
nodes = (
"379 289 LINE",
"608 730 LINE",
"575 730 LINE",
"355 304 LINE",
"373 319 LINE",
"277 319 LINE",
"296 304 LINE",
"66 730 LINE",
"32 730 LINE",
"271 289 LINE"
);
},
{
closed = 1;
nodes = (
"341 0 LINE",
"341 301 LINE",
"309 301 LINE",
"309 0 LINE"
);
}
);
width = 658;
},
{
anchors = (
{
name = bottom;
position = "{280, 0}";
},
{
name = top;
position = "{392, 730}";
}
);
layerId = "48B7067D-14EA-4B3A-BE9A-22D6185653A2";
paths = (
{
closed = 1;
nodes = (
"450.587 274 LINE",
"711.81 730 LINE",
"531.81 730 LINE",
"357.335 405 LINE",
"386.761 414 LINE",
"314.761 414 LINE",
"339.335 405 LINE",
"251.81 730 LINE",
"61.81 730 LINE",
"196.587 274 LINE"
);
},
{
closed = 1;
nodes = (
"371.19 0 LINE",
"418.388 298 LINE",
"236.388 298 LINE",
"189.19 0 LINE"
);
}
);
width = 658;
},
{
anchors = (
{
name = bottom;
position = "{274, 0}";
},
{
name = top;
position = "{381, 730}";
}
);
layerId = "38B5227D-F751-450D-B2B2-8DC56D0E577B";
paths = (
{
closed = 1;
nodes = (
"403.171 284 LINE",
"691.81 730 LINE",
"595.81 730 LINE",
"351.307 348 LINE",
"393.05 359 LINE",
"275.05 359 LINE",
"311.307 348 LINE",
"175.81 730 LINE",
"73.81 730 LINE",
"235.171 284 LINE"
);
},
{
closed = 1;
nodes = (
"322.19 0 LINE",
"370.339 304 LINE",
"274.339 304 LINE",
"226.19 0 LINE"
);
}
);
width = 652;
},
{
anchors = (
{
name = bottom;
position = "{267, 0}";
},
{
name = top;
position = "{378, 730}";
}
);
layerId = "BDDC71A3-6F27-45BF-8BFA-A352BA3DE3E7";
paths = (
{
closed = 1;
nodes = (
"366.963 289 LINE",
"665.81 730 LINE",
"632.81 730 LINE",
"345.339 304 LINE",
"365.714 319 LINE",
"269.714 319 LINE",
"286.339 304 LINE",
"123.81 730 LINE",
"89.81 730 LINE",
"258.963 289 LINE"
);
},
{
closed = 1;
nodes = (
"283.19 0 LINE",
"330.863 301 LINE",
"298.863 301 LINE",
"251.19 0 LINE"
);
}
);
width = 644;
}
);
leftKerningGroup = UC_Y;
rightKerningGroup = UC_Y;
unicode = 0059;
},
{
color = 7;
glyphname = Z;
layers = (
{
anchors = (
{
name = bottom;
position = "{354, 0}";
},
{
name = center;
position = "{338, 365}";
},
{
name = top;
position = "{334, 730}";
}
);
layerId = "2089B89D-61CE-4065-A534-BEF0C3F67EB7";
name = public.background;
paths = (
{
closed = 1;
nodes = (
"604 0 LINE",
"604 30 LINE",
"113 30 LINE",
"127 10 LINE",
"111 57 LINE",
"103 28 LINE",
"586 678 LINE",
"586 730 LINE",
"89 730 LINE",
"89 700 LINE",
"557 700 LINE",
"543 720 LINE",
"559 673 LINE",
"567 702 LINE",
"84 52 LINE",
"84 0 LINE"
);
}
);
width = 645;
},
{
anchors = (
{
name = bottom;
position = "{267, 0}";
},
{
name = center;
position = "{317, 365}";
},
{
name = top;
position = "{388, 730}";
}
);
layerId = "48B7067D-14EA-4B3A-BE9A-22D6185653A2";
paths = (
{
closed = 1;
nodes = (
"555.19 0 LINE",
"579.264 152 LINE",
"232.264 152 LINE",
"252.096 132 LINE",
"225.224 177 LINE",
"227.214 158 LINE",
"655.171 606 LINE",
"674.81 730 LINE",
"101.81 730 LINE",
"77.736 578 LINE",
"413.736 578 LINE",
"393.904 598 LINE",
"420.935 554 LINE",
"418.786 572 LINE",
"-8.171 124 LINE",
"-27.81 0 LINE"
);
}
);
width = 645;
},
{
anchors = (
{
name = bottom;
position = "{278, 0}";
},
{
name = center;
position = "{328, 365}";
},
{
name = top;
position = "{383, 730}";
}
);
layerId = "38B5227D-F751-450D-B2B2-8DC56D0E577B";
paths = (
{
closed = 1;
nodes = (
"550.19 0 LINE",
"563.177 82 LINE",
"105.177 82 LINE",
"127.643 66 LINE",
"102.77 111 LINE",
"99.336 83 LINE",
"633.804 610 LINE",
"652.81 730 LINE",
"128.81 730 LINE",
"115.823 648 LINE",
"546.823 648 LINE",
"531.565 659 LINE",
"551.863 623 LINE",
"556.664 647 LINE",
"23.196 120 LINE",
"4.19 0 LINE"
);
}
);
width = 654;
},
{
anchors = (
{
name = bottom;
position = "{296, 0}";
},
{
name = center;
position = "{338, 365}";
},
{
name = top;
position = "{392, 730}";
}
);
layerId = "BDDC71A3-6F27-45BF-8BFA-A352BA3DE3E7";
paths = (
{
closed = 1;
nodes = (
"546.19 0 LINE",
"550.941 30 LINE",
"59.941 30 LINE",
"70.774 10 LINE",
"62.218 57 LINE",
"49.624 28 LINE",
"635.574 678 LINE",
"643.81 730 LINE",
"146.81 730 LINE",
"142.059 700 LINE",
"610.059 700 LINE",
"599.226 720 LINE",
"607.782 673 LINE",
"620.376 702 LINE",
"34.426 52 LINE",
"26.19 0 LINE"
);
}
);
width = 662;
}
);
leftKerningGroup = UC_Z;
rightKerningGroup = UC_Z;
unicode = 005A;
},
{
color = 9;
glyphname = I.salt;
layers = (
{
anchors = (
{
name = bottom;
position = "{222, 0}";
},
{
name = ogonek;
position = "{254, 10}";
},
{
name = top;
position = "{222, 730}";
}
);
layerId = "2089B89D-61CE-4065-A534-BEF0C3F67EB7";
name = public.background;
paths = (
{
closed = 1;
nodes = (
"238 10 LINE",
"238 720 LINE",
"206 720 LINE",
"206 10 LINE"
);
},
{
closed = 1;
nodes = (
"330 0 LINE",
"330 30 LINE",
"114 30 LINE",
"114 0 LINE"
);
},
{
closed = 1;
nodes = (
"330 700 LINE",
"330 730 LINE",
"114 730 LINE",
"114 700 LINE"
);
}
);
width = 460;
},
{
anchors = (
{
name = bottom;
position = "{173, 0}";
},
{
name = ogonek;
position = "{249, 10}";
},
{
name = top;
position = "{289, 730}";
}
);
layerId = "48B7067D-14EA-4B3A-BE9A-22D6185653A2";
paths = (
{
closed = 1;
nodes = (
"283.879 118 LINE",
"362.121 612 LINE",
"176.121 612 LINE",
"97.879 118 LINE"
);
},
{
closed = 1;
nodes = (
"344.19 0 LINE",
"366.047 138 LINE",
"22.047 138 LINE",
"0.19 0 LINE"
);
},
{
closed = 1;
nodes = (
"437.953 592 LINE",
"459.81 730 LINE",
"115.81 730 LINE",
"93.953 592 LINE"
);
}
);
width = 460;
},
{
anchors = (
{
name = bottom;
position = "{166, 0}";
},
{
name = ogonek;
position = "{226, 10}";
},
{
name = top;
position = "{282, 730}";
}
);
layerId = "38B5227D-F751-450D-B2B2-8DC56D0E577B";
paths = (
{
closed = 1;
nodes = (
"225.326 64 LINE",
"320.674 666 LINE",
"222.674 666 LINE",
"127.326 64 LINE"
);
},
{
closed = 1;
nodes = (
"302.19 0 LINE",
"315.494 84 LINE",
"43.494 84 LINE",
"30.19 0 LINE"
);
},
{
closed = 1;
nodes = (
"404.506 646 LINE",
"417.81 730 LINE",
"145.81 730 LINE",
"132.506 646 LINE"
);
}
);
width = 448;
},
{
anchors = (
{
name = bottom;
position = "{164, 0}";
},
{
name = ogonek;
position = "{198, 10}";
},
{
name = top;
position = "{280, 730}";
}
);
layerId = "BDDC71A3-6F27-45BF-8BFA-A352BA3DE3E7";
paths = (
{
closed = 1;
nodes = (
"181.774 10 LINE",
"294.226 720 LINE",
"262.226 720 LINE",
"149.774 10 LINE"
);
},
{
closed = 1;
nodes = (
"272.19 0 LINE",
"276.941 30 LINE",
"60.941 30 LINE",
"56.19 0 LINE"
);
},
{
closed = 1;
nodes = (
"383.059 700 LINE",
"387.81 730 LINE",
"171.81 730 LINE",
"167.059 700 LINE"
);
}
);
width = 444;
}
);
leftKerningGroup = UC_Isalt;
rightKerningGroup = UC_Isalt;
},
{
color = 9;
glyphname = J.salt;
rightMetricsKey = "=H-8";
layers = (
{
anchors = (
{
name = bottom;
position = "{265, 0}";
},
{
name = top;
position = "{437, 730}";
}
);
layerId = "2089B89D-61CE-4065-A534-BEF0C3F67EB7";
name = public.background;
paths = (
{
closed = 1;
nodes = (
"380 -19 OFFCURVE",
"453 49 OFFCURVE",
"453 173 CURVE SMOOTH",
"453 730 LINE",
"421 730 LINE",
"421 169 LINE SMOOTH",
"421 57 OFFCURVE",
"354 11 OFFCURVE",
"264 11 CURVE SMOOTH",
"174 11 OFFCURVE",
"106 57 OFFCURVE",
"106 169 CURVE SMOOTH",
"106 305 LINE",
"74 305 LINE",
"74 173 LINE SMOOTH",
"74 49 OFFCURVE",
"148 -19 OFFCURVE",
"264 -19 CURVE SMOOTH"
);
}
);
width = 563;
},
{
anchors = (
{
name = bottom;
position = "{227, 0}";
},
{
name = top;
position = "{511, 730}";
}
);
layerId = "48B7067D-14EA-4B3A-BE9A-22D6185653A2";
paths = (
{
closed = 1;
nodes = (
"398.705 -22 OFFCURVE",
"500.702 79 OFFCURVE",
"527.311 247 CURVE SMOOTH",
"603.81 730 LINE",
"417.81 730 LINE",
"338.143 227 LINE SMOOTH",
"330.857 181 OFFCURVE",
"298.264 152 OFFCURVE",
"252.264 152 CURVE SMOOTH",
"206.264 152 OFFCURVE",
"181.857 181 OFFCURVE",
"189.143 227 CURVE SMOOTH",
"206.407 336 LINE",
"20.407 336 LINE",
"6.311 247 LINE SMOOTH",
"-20.298 79 OFFCURVE",
"49.705 -22 OFFCURVE",
"224.705 -22 CURVE SMOOTH"
);
}
);
width = 612;
},
{
anchors = (
{
name = bottom;
position = "{216, 0}";
},
{
name = top;
position = "{497, 730}";
}
);
layerId = "38B5227D-F751-450D-B2B2-8DC56D0E577B";
paths = (
{
closed = 1;
nodes = (
"335.022 -20 OFFCURVE",
"438.901 55 OFFCURVE",
"462.975 207 CURVE SMOOTH",
"545.81 730 LINE",
"447.81 730 LINE",
"362.124 189 LINE SMOOTH",
"350.087 113 OFFCURVE",
"296.277 70 OFFCURVE",
"224.277 70 CURVE SMOOTH",
"152.277 70 OFFCURVE",
"112.087 113 OFFCURVE",
"124.124 189 CURVE SMOOTH",
"144.556 318 LINE",
"46.556 318 LINE",
"28.975 207 LINE SMOOTH",
"4.901 55 OFFCURVE",
"84.022 -20 OFFCURVE",
"210.022 -20 CURVE SMOOTH"
);
}
);
width = 586;
},
{
anchors = (
{
name = bottom;
position = "{207, 0}";
},
{
name = top;
position = "{495, 730}";
}
);
layerId = "BDDC71A3-6F27-45BF-8BFA-A352BA3DE3E7";
paths = (
{
closed = 1;
nodes = (
"319.18 -19 OFFCURVE",
"402.951 49 OFFCURVE",
"422.59 173 CURVE SMOOTH",
"510.81 730 LINE",
"478.81 730 LINE",
"389.957 169 LINE SMOOTH",
"372.218 57 OFFCURVE",
"297.932 11 OFFCURVE",
"207.932 11 CURVE SMOOTH",
"117.932 11 OFFCURVE",
"57.218 57 OFFCURVE",
"74.957 169 CURVE SMOOTH",
"96.497 305 LINE",
"64.497 305 LINE",
"43.59 173 LINE SMOOTH",
"23.951 49 OFFCURVE",
"87.18 -19 OFFCURVE",
"203.18 -19 CURVE SMOOTH"
);
}
);
width = 575;
}
);
leftKerningGroup = UC_Jsalt;
rightKerningGroup = UC_Jsalt;
},
{
color = 9;
glyphname = P.salt;
leftMetricsKey = H;
layers = (
{
layerId = "48B7067D-14EA-4B3A-BE9A-22D6185653A2";
paths = (
{
closed = 1;
nodes = (
"388.727 240 LINE SMOOTH",
"551.727 240 OFFCURVE",
"684.239 319 OFFCURVE",
"709.739 480 CURVE SMOOTH",
"712.273 496 LINE SMOOTH",
"737.773 657 OFFCURVE",
"629.285 736 OFFCURVE",
"467.285 736 CURVE SMOOTH",
"299.285 736 LINE",
"273.944 576 LINE",
"448.944 576 LINE SMOOTH",
"505.944 576 OFFCURVE",
"532.034 545 OFFCURVE",
"523.006 488 CURVE SMOOTH",
"513.978 431 OFFCURVE",
"479.068 400 OFFCURVE",
"421.068 400 CURVE SMOOTH",
"246.068 400 LINE",
"220.727 240 LINE"
);
},
{
closed = 1;
nodes = (
"202.715 0 LINE",
"319.285 736 LINE",
"133.285 736 LINE",
"16.715 0 LINE"
);
}
);
width = 712;
},
{
layerId = "38B5227D-F751-450D-B2B2-8DC56D0E577B";
paths = (
{
closed = 1;
nodes = (
"378.922 316 LINE SMOOTH",
"539.922 316 OFFCURVE",
"634.801 391 OFFCURVE",
"654.758 517 CURVE SMOOTH",
"657.292 533 LINE SMOOTH",
"677.248 659 OFFCURVE",
"605.127 734 OFFCURVE",
"445.127 734 CURVE SMOOTH",
"243.127 734 LINE",
"229.506 648 LINE",
"449.506 648 LINE SMOOTH",
"532.506 648 OFFCURVE",
"567.904 600 OFFCURVE",
"556.025 525 CURVE SMOOTH",
"544.146 450 OFFCURVE",
"495.543 402 OFFCURVE",
"410.543 402 CURVE SMOOTH",
"190.543 402 LINE",
"176.922 316 LINE"
);
},
{
closed = 1;
nodes = (
"146.873 0 LINE",
"263.127 734 LINE",
"165.127 734 LINE",
"48.873 0 LINE"
);
}
);
width = 653;
},
{
layerId = "BDDC71A3-6F27-45BF-8BFA-A352BA3DE3E7";
paths = (
{
closed = 1;
nodes = (
"386.366 362 LINE SMOOTH",
"526.366 362 OFFCURVE",
"596.879 441 OFFCURVE",
"612.876 542 CURVE SMOOTH",
"614.46 552 LINE SMOOTH",
"630.456 653 OFFCURVE",
"584.969 732 OFFCURVE",
"444.969 732 CURVE SMOOTH",
"201.969 732 LINE",
"197.217 702 LINE",
"442.217 702 LINE SMOOTH",
"563.217 702 OFFCURVE",
"595.605 635 OFFCURVE",
"581.668 547 CURVE SMOOTH",
"567.73 459 OFFCURVE",
"514.118 392 OFFCURVE",
"393.118 392 CURVE SMOOTH",
"148.118 392 LINE",
"143.366 362 LINE"
);
},
{
closed = 1;
nodes = (
"104.031 0 LINE",
"219.969 732 LINE",
"187.969 732 LINE",
"72.031 0 LINE"
);
}
);
width = 609;
},
{
layerId = "2089B89D-61CE-4065-A534-BEF0C3F67EB7";
name = public.background;
paths = (
{
closed = 1;
nodes = (
"387 362 LINE SMOOTH",
"527 362 OFFCURVE",
"585 441 OFFCURVE",
"585 542 CURVE SMOOTH",
"585 552 LINE SMOOTH",
"585 653 OFFCURVE",
"527 732 OFFCURVE",
"387 732 CURVE SMOOTH",
"144 732 LINE",
"144 702 LINE",
"389 702 LINE SMOOTH",
"510 702 OFFCURVE",
"553 635 OFFCURVE",
"553 547 CURVE SMOOTH",
"553 459 OFFCURVE",
"510 392 OFFCURVE",
"389 392 CURVE SMOOTH",
"144 392 LINE",
"144 362 LINE"
);
},
{
closed = 1;
nodes = (
"162 0 LINE",
"162 732 LINE",
"130 732 LINE",
"130 0 LINE"
);
}
);
width = 712;
}
);
leftKerningGroup = UC_Stem;
},
{
color = 9;
glyphname = Q.salt;
leftMetricsKey = O;
rightMetricsKey = O;
layers = (
{
layerId = "2089B89D-61CE-4065-A534-BEF0C3F67EB7";
name = public.background;
paths = (
{
closed = 1;
nodes = (
"365 -64 LINE",
"106 288 LINE",
"70 288 LINE",
"329 -64 LINE"
);
}
);
width = 427;
},
{
components = (
{
name = O;
alignment = -1;
}
);
guideLines = (
{
angle = 90;
position = "{431, 0}";
}
);
layerId = "48B7067D-14EA-4B3A-BE9A-22D6185653A2";
paths = (
{
closed = 1;
nodes = (
"715.46 -82 LINE",
"498.28 302 LINE",
"322.28 302 LINE",
"539.46 -82 LINE"
);
}
);
width = 864;
},
{
components = (
{
name = O;
alignment = -1;
}
);
guideLines = (
{
angle = 90;
position = "{431, 0}";
},
{
angle = 135;
position = "{431, 360}";
}
);
layerId = "38B5227D-F751-450D-B2B2-8DC56D0E577B";
paths = (
{
closed = 1;
nodes = (
"699.519 -70 LINE",
"490.171 294 LINE",
"394.171 294 LINE",
"603.519 -70 LINE"
);
}
);
width = 865;
},
{
components = (
{
name = O;
alignment = -1;
}
);
layerId = "BDDC71A3-6F27-45BF-8BFA-A352BA3DE3E7";
paths = (
{
closed = 1;
nodes = (
"681.628 -64 LINE",
"478.379 288 LINE",
"442.379 288 LINE",
"645.628 -64 LINE"
);
}
);
width = 872;
}
);
leftKerningGroup = UC_Qsalt;
rightKerningGroup = UC_Qsalt;
},
{
color = 9;
glyphname = R.salt;
leftMetricsKey = H;
layers = (
{
anchors = (
{
name = bottom;
position = "{373, 0}";
},
{
name = top;
position = "{333, 730}";
}
);
layerId = "2089B89D-61CE-4065-A534-BEF0C3F67EB7";
name = public.background;
paths = (
{
closed = 1;
nodes = (
"162 0 LINE",
"162 732 LINE",
"130 732 LINE",
"130 0 LINE"
);
},
{
closed = 1;
nodes = (
"621 0 LINE",
"417 368 LINE",
"382 368 LINE",
"586 0 LINE"
);
},
{
closed = 1;
nodes = (
"393 358 LINE SMOOTH",
"531 358 OFFCURVE",
"591 433 OFFCURVE",
"591 540 CURVE SMOOTH",
"591 550 LINE SMOOTH",
"591 657 OFFCURVE",
"531 732 OFFCURVE",
"393 732 CURVE SMOOTH",
"144 732 LINE",
"144 702 LINE",
"395 702 LINE SMOOTH",
"516 702 OFFCURVE",
"559 636 OFFCURVE",
"559 545 CURVE SMOOTH",
"559 454 OFFCURVE",
"516 388 OFFCURVE",
"395 388 CURVE SMOOTH",
"144 388 LINE",
"144 358 LINE"
);
}
);
width = 750;
},
{
anchors = (
{
name = bottom;
position = "{324, 0}";
},
{
name = top;
position = "{422, 730}";
}
);
layerId = "48B7067D-14EA-4B3A-BE9A-22D6185653A2";
paths = (
{
closed = 1;
nodes = (
"202.715 0 LINE",
"319.285 736 LINE",
"133.285 736 LINE",
"16.715 0 LINE"
);
},
{
closed = 1;
nodes = (
"655.715 0 LINE",
"559.863 304 LINE",
"356.863 304 LINE",
"448.715 0 LINE"
);
},
{
closed = 1;
nodes = (
"394.786 253 LINE SMOOTH",
"557.786 253 OFFCURVE",
"689.189 325 OFFCURVE",
"714.689 486 CURVE SMOOTH",
"717.224 502 LINE SMOOTH",
"742.723 663 OFFCURVE",
"633.285 736 OFFCURVE",
"471.285 736 CURVE SMOOTH",
"299.285 736 LINE",
"273.944 576 LINE",
"451.944 576 LINE SMOOTH",
"508.944 576 OFFCURVE",
"535.876 544 OFFCURVE",
"526.689 486 CURVE SMOOTH",
"517.503 428 OFFCURVE",
"481.435 396 OFFCURVE",
"423.435 396 CURVE SMOOTH",
"245.435 396 LINE",
"222.786 253 LINE"
);
}
);
width = 750;
},
{
anchors = (
{
name = bottom;
position = "{319, 0}";
},
{
name = top;
position = "{397, 730}";
}
);
layerId = "38B5227D-F751-450D-B2B2-8DC56D0E577B";
paths = (
{
closed = 1;
nodes = (
"146.873 0 LINE",
"263.127 734 LINE",
"165.127 734 LINE",
"48.873 0 LINE"
);
},
{
closed = 1;
nodes = (
"602.873 0 LINE",
"503.248 337 LINE",
"398.248 337 LINE",
"493.873 0 LINE"
);
},
{
closed = 1;
nodes = (
"383.447 313 LINE SMOOTH",
"545.447 313 OFFCURVE",
"638.643 390 OFFCURVE",
"658.599 516 CURVE SMOOTH",
"661.133 532 LINE SMOOTH",
"681.09 658 OFFCURVE",
"611.127 734 OFFCURVE",
"450.127 734 CURVE SMOOTH",
"243.127 734 LINE",
"229.506 648 LINE",
"455.506 648 LINE SMOOTH",
"538.506 648 OFFCURVE",
"571.904 600 OFFCURVE",
"559.866 524 CURVE SMOOTH",
"547.829 448 OFFCURVE",
"501.227 400 OFFCURVE",
"416.227 400 CURVE SMOOTH",
"190.227 400 LINE",
"176.447 313 LINE"
);
}
);
width = 711;
},
{
anchors = (
{
name = bottom;
position = "{315, 0}";
},
{
name = top;
position = "{391, 730}";
}
);
layerId = "BDDC71A3-6F27-45BF-8BFA-A352BA3DE3E7";
paths = (
{
closed = 1;
nodes = (
"104.031 0 LINE",
"219.969 732 LINE",
"187.969 732 LINE",
"72.031 0 LINE"
);
},
{
closed = 1;
nodes = (
"563.031 0 LINE",
"417.317 368 LINE",
"382.317 368 LINE",
"528.031 0 LINE"
);
},
{
closed = 1;
nodes = (
"391.733 358 LINE SMOOTH",
"529.733 358 OFFCURVE",
"601.612 433 OFFCURVE",
"618.559 540 CURVE SMOOTH",
"620.143 550 LINE SMOOTH",
"637.09 657 OFFCURVE",
"588.969 732 OFFCURVE",
"450.969 732 CURVE SMOOTH",
"201.969 732 LINE",
"197.217 702 LINE",
"448.217 702 LINE SMOOTH",
"569.217 702 OFFCURVE",
"601.764 636 OFFCURVE",
"587.351 545 CURVE SMOOTH",
"572.938 454 OFFCURVE",
"519.484 388 OFFCURVE",
"398.484 388 CURVE SMOOTH",
"147.484 388 LINE",
"142.733 358 LINE"
);
}
);
width = 683;
}
);
leftKerningGroup = UC_Stem;
rightKerningGroup = UC_Rsalt;
},
{
color = 7;
glyphname = a;
rightMetricsKey = n;
layers = (
{
anchors = (
{
name = ogonek;
position = "{454, 10}";
},
{
name = top;
position = "{273, 521}";
}
);
layerId = "2089B89D-61CE-4065-A534-BEF0C3F67EB7";
name = public.background;
paths = (
{
closed = 1;
nodes = (
"454 0 LINE",
"454 344 LINE SMOOTH",
"454 461 OFFCURVE",
"404 525 OFFCURVE",
"249 525 CURVE SMOOTH",
"209 525 OFFCURVE",
"163 521 OFFCURVE",
"124 515 CURVE",
"124 485 LINE",
"162 491 OFFCURVE",
"212 495 OFFCURVE",
"265 495 CURVE SMOOTH",
"380 495 OFFCURVE",
"422 441 OFFCURVE",
"422 352 CURVE SMOOTH",
"422 156 LINE",
"428 156 LINE",
"428 0 LINE"
);
},
{
closed = 1;
nodes = (
"344 -14 OFFCURVE",
"433 46 OFFCURVE",
"438 172 CURVE",
"422 188 LINE",
"418 57 OFFCURVE",
"326 14 OFFCURVE",
"243 14 CURVE SMOOTH",
"156 14 OFFCURVE",
"92 63 OFFCURVE",
"92 146 CURVE SMOOTH",
"92 223 OFFCURVE",
"145 274 OFFCURVE",
"243 274 CURVE SMOOTH",
"424 274 LINE",
"424 302 LINE",
"249 302 LINE SMOOTH",
"129 302 OFFCURVE",
"60 241 OFFCURVE",
"60 147 CURVE SMOOTH",
"60 43 OFFCURVE",
"142 -14 OFFCURVE",
"241 -14 CURVE SMOOTH"
);
}
);
width = 586;
},
{
anchors = (
{
name = ogonek;
position = "{495, 10}";
},
{
name = top;
position = "{337, 552}";
}
);
layerId = "48B7067D-14EA-4B3A-BE9A-22D6185653A2";
paths = (
{
closed = 1;
nodes = (
"499.494 0 LINE",
"552.553 335 LINE SMOOTH",
"576.786 488 OFFCURVE",
"491.506 562 OFFCURVE",
"321.506 562 CURVE SMOOTH",
"261.506 562 OFFCURVE",
"177.872 558 OFFCURVE",
"129.239 554 CURVE",
"105.165 402 LINE",
"172.798 406 OFFCURVE",
"276.432 410 OFFCURVE",
"315.432 410 CURVE SMOOTH",
"368.432 410 OFFCURVE",
"386.63 386 OFFCURVE",
"378.553 335 CURVE SMOOTH",
"351.152 162 LINE",
"381.152 162 LINE",
"355.494 0 LINE"
);
},
{
closed = 1;
nodes = (
"293.277 -14 OFFCURVE",
"365.413 50 OFFCURVE",
"393.469 164 CURVE",
"357.804 204 LINE",
"342.084 130 OFFCURVE",
"302.599 108 OFFCURVE",
"255.599 108 CURVE SMOOTH",
"205.599 108 OFFCURVE",
"182.876 135 OFFCURVE",
"189.211 175 CURVE SMOOTH",
"195.705 216 OFFCURVE",
"227.981 243 OFFCURVE",
"276.981 243 CURVE SMOOTH",
"383.981 243 LINE",
"398.87 337 LINE",
"291.87 337 LINE SMOOTH",
"141.87 337 OFFCURVE",
"26.792 286 OFFCURVE",
"7.152 162 CURVE SMOOTH",
"-10.428 51 OFFCURVE",
"61.277 -14 OFFCURVE",
"178.277 -14 CURVE SMOOTH"
);
}
);
width = 601;
},
{
anchors = (
{
name = ogonek;
position = "{450, 10}";
},
{
name = top;
position = "{321, 534}";
}
);
layerId = "38B5227D-F751-450D-B2B2-8DC56D0E577B";
paths = (
{
closed = 1;
nodes = (
"448.236 0 LINE",
"501.77 338 LINE SMOOTH",
"525.369 487 OFFCURVE",
"461.764 540 OFFCURVE",
"297.764 540 CURVE SMOOTH",
"249.764 540 OFFCURVE",
"193.447 538 OFFCURVE",
"149.813 534 CURVE",
"136.509 450 LINE",
"180.984 453 OFFCURVE",
"254.46 456 OFFCURVE",
"316.46 456 CURVE SMOOTH",
"389.46 456 OFFCURVE",
"422.441 418 OFFCURVE",
"410.879 345 CURVE SMOOTH",
"381.578 160 LINE",
"397.578 160 LINE",
"372.236 0 LINE"
);
},
{
closed = 1;
nodes = (
"307.019 -14 OFFCURVE",
"379.522 46 OFFCURVE",
"407.578 160 CURVE",
"387.596 198 LINE",
"367.124 94 OFFCURVE",
"294.056 62 OFFCURVE",
"227.056 62 CURVE SMOOTH",
"150.056 62 OFFCURVE",
"113.233 101 OFFCURVE",
"122.578 160 CURVE SMOOTH",
"131.922 219 OFFCURVE",
"181.416 260 OFFCURVE",
"258.416 260 CURVE SMOOTH",
"407.416 260 LINE",
"418.82 332 LINE",
"273.82 332 LINE SMOOTH",
"134.82 332 OFFCURVE",
"46.475 273 OFFCURVE",
"28.578 160 CURVE SMOOTH",
"10.997 49 OFFCURVE",
"74.019 -14 OFFCURVE",
"195.019 -14 CURVE SMOOTH"
);
}
);
width = 580;
},
{
anchors = (
{
name = ogonek;
position = "{414, 10}";
},
{
name = top;
position = "{314, 521}";
}
);
layerId = "BDDC71A3-6F27-45BF-8BFA-A352BA3DE3E7";
paths = (
{
closed = 1;
nodes = (
"412.424 0 LINE",
"466.908 344 LINE SMOOTH",
"485.439 461 OFFCURVE",
"445.576 525 OFFCURVE",
"290.576 525 CURVE SMOOTH",
"250.576 525 OFFCURVE",
"203.942 521 OFFCURVE",
"163.992 515 CURVE",
"159.241 485 LINE",
"198.191 491 OFFCURVE",
"248.824 495 OFFCURVE",
"301.824 495 CURVE SMOOTH",
"416.824 495 OFFCURVE",
"450.272 441 OFFCURVE",
"436.175 352 CURVE SMOOTH",
"405.132 156 LINE",
"411.132 156 LINE",
"386.424 0 LINE"
);
},
{
closed = 1;
nodes = (
"300.207 -14 OFFCURVE",
"398.71 46 OFFCURVE",
"423.666 172 CURVE",
"410.2 188 LINE",
"385.452 57 OFFCURVE",
"286.641 14 OFFCURVE",
"203.641 14 CURVE SMOOTH",
"116.641 14 OFFCURVE",
"60.402 63 OFFCURVE",
"73.548 146 CURVE SMOOTH",
"85.744 223 OFFCURVE",
"146.821 274 OFFCURVE",
"244.821 274 CURVE SMOOTH",
"425.821 274 LINE",
"430.256 302 LINE",
"255.256 302 LINE SMOOTH",
"135.256 302 OFFCURVE",
"56.595 241 OFFCURVE",
"41.707 147 CURVE SMOOTH",
"25.235 43 OFFCURVE",
"98.207 -14 OFFCURVE",
"197.207 -14 CURVE SMOOTH"
);
}
);
width = 562;
}
);
leftKerningGroup = lc_a;
rightKerningGroup = lc_a;
unicode = 0061;
},
{
color = 7;
glyphname = ae;
leftMetricsKey = a;
rightMetricsKey = e;
layers = (
{
guideLines = (
{
position = "{0, 160}";
}
);
layerId = "48B7067D-14EA-4B3A-BE9A-22D6185653A2";
paths = (
{
closed = 1;
nodes = (
"747.693 -20 OFFCURVE",
"859.522 61 OFFCURVE",
"901.419 174 CURVE",
"735.419 174 LINE",
"717.668 144 OFFCURVE",
"679.817 126 OFFCURVE",
"630.817 126 CURVE SMOOTH",
"543.817 126 OFFCURVE",
"516.686 182 OFFCURVE",
"531.099 273 CURVE SMOOTH",
"546.938 373 OFFCURVE",
"599.015 424 OFFCURVE",
"672.015 424 CURVE SMOOTH",
"745.015 424 OFFCURVE",
"774.938 373 OFFCURVE",
"760.208 280 CURVE",
"829.702 321 LINE",
"520.702 321 LINE",
"505.814 227 LINE",
"919.814 227 LINE",
"928.525 282 LINE SMOOTH",
"952.599 434 OFFCURVE",
"874.14 570 OFFCURVE",
"699.14 570 CURVE SMOOTH",
"544.14 570 OFFCURVE",
"454.034 462 OFFCURVE",
"414.028 342 CURVE",
"526.028 342 LINE",
"544.043 481 OFFCURVE",
"485.714 561 OFFCURVE",
"319.714 561 CURVE SMOOTH",
"259.714 561 OFFCURVE",
"178.081 557 OFFCURVE",
"129.447 553 CURVE",
"105.373 401 LINE",
"173.006 405 OFFCURVE",
"276.64 409 OFFCURVE",
"315.64 409 CURVE SMOOTH",
"368.64 409 OFFCURVE",
"386.838 385 OFFCURVE",
"378.761 334 CURVE SMOOTH",
"358.804 208 LINE SMOOTH",
"346.767 132 OFFCURVE",
"302.808 107 OFFCURVE",
"255.808 107 CURVE SMOOTH",
"205.808 107 OFFCURVE",
"183.084 134 OFFCURVE",
"189.419 174 CURVE SMOOTH",
"195.913 215 OFFCURVE",
"228.189 242 OFFCURVE",
"277.189 242 CURVE SMOOTH",
"384.189 242 LINE",
"399.078 336 LINE",
"292.078 336 LINE SMOOTH",
"142.078 336 OFFCURVE",
"27 285 OFFCURVE",
"7.36 161 CURVE SMOOTH",
"-10.22 50 OFFCURVE",
"63.485 -15 OFFCURVE",
"185.485 -15 CURVE SMOOTH",
"305.485 -15 OFFCURVE",
"409.78 50 OFFCURVE",
"437.994 165 CURVE",
"385.994 165 LINE",
"398.947 70 OFFCURVE",
"463.693 -20 OFFCURVE",
"609.693 -20 CURVE SMOOTH"
);
}
);
width = 959;
},
{
guideLines = (
{
position = "{0, 160}";
}
);
layerId = "38B5227D-F751-450D-B2B2-8DC56D0E577B";
paths = (
{
closed = 1;
nodes = (
"743.593 -18 OFFCURVE",
"843.888 47 OFFCURVE",
"884.469 158 CURVE",
"794.469 158 LINE",
"775.55 108 OFFCURVE",
"714.214 68 OFFCURVE",
"631.214 68 CURVE SMOOTH",
"511.214 68 OFFCURVE",
"470.519 152 OFFCURVE",
"488.575 266 CURVE SMOOTH",
"507.106 383 OFFCURVE",
"575.935 464 OFFCURVE",
"687.935 464 CURVE SMOOTH",
"793.935 464 OFFCURVE",
"838.848 394 OFFCURVE",
"820.95 281 CURVE",
"849.286 321 LINE",
"487.286 321 LINE",
"475.882 249 LINE",
"907.882 249 LINE",
"914.534 291 LINE SMOOTH",
"935.599 424 OFFCURVE",
"871.556 550 OFFCURVE",
"701.556 550 CURVE SMOOTH",
"550.556 550 OFFCURVE",
"462.509 455 OFFCURVE",
"423.978 338 CURVE",
"489.978 338 LINE",
"513.894 489 OFFCURVE",
"459.972 540 OFFCURVE",
"297.972 540 CURVE SMOOTH",
"249.972 540 OFFCURVE",
"193.655 538 OFFCURVE",
"150.022 534 CURVE",
"136.717 450 LINE",
"181.192 453 OFFCURVE",
"255.668 456 OFFCURVE",
"317.668 456 CURVE SMOOTH",
"390.668 456 OFFCURVE",
"422.649 418 OFFCURVE",
"411.087 345 CURVE SMOOTH",
"387.804 198 LINE",
"367.332 94 OFFCURVE",
"294.264 62 OFFCURVE",
"227.264 62 CURVE SMOOTH",
"150.264 62 OFFCURVE",
"113.441 101 OFFCURVE",
"122.786 160 CURVE SMOOTH",
"132.13 219 OFFCURVE",
"181.624 260 OFFCURVE",
"258.624 260 CURVE SMOOTH",
"407.624 260 LINE",
"419.028 332 LINE",
"274.028 332 LINE SMOOTH",
"135.028 332 OFFCURVE",
"46.683 273 OFFCURVE",
"28.786 160 CURVE SMOOTH",
"11.205 49 OFFCURVE",
"74.227 -14 OFFCURVE",
"195.227 -14 CURVE SMOOTH",
"310.227 -14 OFFCURVE",
"397.413 44 OFFCURVE",
"425.786 160 CURVE",
"399.786 160 LINE",
"413.264 62 OFFCURVE",
"473.593 -18 OFFCURVE",
"617.593 -18 CURVE SMOOTH"
);
}
);
width = 956;
},
{
layerId = "BDDC71A3-6F27-45BF-8BFA-A352BA3DE3E7";
paths = (
{
closed = 1;
nodes = (
"750.019 -16 OFFCURVE",
"839.789 52 OFFCURVE",
"875.677 146 CURVE",
"843.677 146 LINE",
"816.115 73 OFFCURVE",
"738.77 14 OFFCURVE",
"630.77 14 CURVE SMOOTH",
"479.77 14 OFFCURVE",
"427.301 131 OFFCURVE",
"448.208 263 CURVE SMOOTH",
"468.64 392 OFFCURVE",
"560.695 506 OFFCURVE",
"702.695 506 CURVE SMOOTH",
"833.695 506 OFFCURVE",
"895.015 407 OFFCURVE",
"875.059 281 CURVE",
"889.643 291 LINE",
"439.643 291 LINE",
"434.891 261 LINE",
"901.891 261 LINE",
"906.96 293 LINE SMOOTH",
"926.599 417 OFFCURVE",
"858.447 536 OFFCURVE",
"707.447 536 CURVE SMOOTH",
"576.447 536 OFFCURVE",
"484.668 449 OFFCURVE",
"444.037 344 CURVE",
"461.037 344 LINE",
"479.568 461 OFFCURVE",
"444.705 525 OFFCURVE",
"288.705 525 CURVE SMOOTH",
"249.705 525 OFFCURVE",
"204.071 521 OFFCURVE",
"164.121 515 CURVE",
"159.369 485 LINE",
"198.32 491 OFFCURVE",
"246.953 495 OFFCURVE",
"303.953 495 CURVE SMOOTH",
"414.953 495 OFFCURVE",
"446.401 441 OFFCURVE",
"432.304 352 CURVE SMOOTH",
"406.329 188 LINE",
"381.581 57 OFFCURVE",
"284.77 14 OFFCURVE",
"201.77 14 CURVE SMOOTH",
"114.77 14 OFFCURVE",
"60.531 63 OFFCURVE",
"73.677 146 CURVE SMOOTH",
"85.873 223 OFFCURVE",
"144.634 272 OFFCURVE",
"242.634 272 CURVE SMOOTH",
"421.634 272 LINE",
"426.068 300 LINE",
"253.068 300 LINE SMOOTH",
"133.068 300 OFFCURVE",
"56.724 241 OFFCURVE",
"41.835 147 CURVE SMOOTH",
"25.364 43 OFFCURVE",
"96.336 -14 OFFCURVE",
"195.336 -14 CURVE SMOOTH",
"298.336 -14 OFFCURVE",
"403.522 44 OFFCURVE",
"429.379 182 CURVE",
"416.379 182 LINE",
"423.599 95 OFFCURVE",
"469.019 -16 OFFCURVE",
"626.019 -16 CURVE SMOOTH"
);
}
);
width = 955;
},
{
layerId = "2089B89D-61CE-4065-A534-BEF0C3F67EB7";
name = public.background;
paths = (
{
closed = 1;
nodes = (
"794 -16 OFFCURVE",
"873 52 OFFCURVE",
"894 146 CURVE",
"862 146 LINE",
"846 73 OFFCURVE",
"778 14 OFFCURVE",
"670 14 CURVE SMOOTH",
"519 14 OFFCURVE",
"448 131 OFFCURVE",
"448 263 CURVE SMOOTH",
"448 392 OFFCURVE",
"522 506 OFFCURVE",
"664 506 CURVE SMOOTH",
"795 506 OFFCURVE",
"872 407 OFFCURVE",
"872 281 CURVE",
"885 291 LINE",
"435 291 LINE",
"435 261 LINE",
"902 261 LINE",
"902 293 LINE SMOOTH",
"902 417 OFFCURVE",
"815 536 OFFCURVE",
"664 536 CURVE SMOOTH",
"533 536 OFFCURVE",
"455 449 OFFCURVE",
"431 344 CURVE",
"448 344 LINE",
"448 461 OFFCURVE",
"403 525 OFFCURVE",
"247 525 CURVE SMOOTH",
"208 525 OFFCURVE",
"163 521 OFFCURVE",
"124 515 CURVE",
"124 485 LINE",
"162 491 OFFCURVE",
"210 495 OFFCURVE",
"267 495 CURVE SMOOTH",
"378 495 OFFCURVE",
"418 441 OFFCURVE",
"418 352 CURVE SMOOTH",
"418 188 LINE",
"414 57 OFFCURVE",
"324 14 OFFCURVE",
"241 14 CURVE SMOOTH",
"154 14 OFFCURVE",
"92 63 OFFCURVE",
"92 146 CURVE SMOOTH",
"92 223 OFFCURVE",
"143 272 OFFCURVE",
"241 272 CURVE SMOOTH",
"420 272 LINE",
"420 300 LINE",
"247 300 LINE SMOOTH",
"127 300 OFFCURVE",
"60 241 OFFCURVE",
"60 147 CURVE SMOOTH",
"60 43 OFFCURVE",
"140 -14 OFFCURVE",
"239 -14 CURVE SMOOTH",
"342 -14 OFFCURVE",
"438 44 OFFCURVE",
"442 182 CURVE",
"429 182 LINE",
"450 95 OFFCURVE",
"513 -16 OFFCURVE",
"670 -16 CURVE SMOOTH"
);
}
);
width = 959;
}
);
leftKerningGroup = lc_a;
rightKerningGroup = lc_e;
unicode = 00E6;
},
{
color = 7;
glyphname = b;
leftMetricsKey = h;
rightMetricsKey = o;
layers = (
{
layerId = "48B7067D-14EA-4B3A-BE9A-22D6185653A2";
paths = (
{
closed = 1;
nodes = (
"530.339 -18 OFFCURVE",
"644.503 103 OFFCURVE",
"670.162 265 CURVE SMOOTH",
"673.963 289 LINE SMOOTH",
"699.621 451 OFFCURVE",
"624.152 568 OFFCURVE",
"475.152 568 CURVE SMOOTH",
"344.152 568 OFFCURVE",
"243.581 476 OFFCURVE",
"211.922 314 CURVE",
"258.258 354 LINE",
"317.81 730 LINE",
"135.81 730 LINE",
"20.19 0 LINE",
"164.19 0 LINE",
"199.668 224 LINE",
"183.668 224 LINE",
"162.96 68 OFFCURVE",
"237.339 -18 OFFCURVE",
"373.339 -18 CURVE SMOOTH"
);
},
{
closed = 1;
nodes = (
"284.096 132 OFFCURVE",
"226.224 177 OFFCURVE",
"238.578 255 CURVE SMOOTH",
"243.963 289 LINE SMOOTH",
"256.95 371 OFFCURVE",
"324.394 418 OFFCURVE",
"390.394 418 CURVE SMOOTH",
"463.394 418 OFFCURVE",
"503.525 362 OFFCURVE",
"490.062 277 CURVE SMOOTH",
"476.599 192 OFFCURVE",
"417.096 132 OFFCURVE",
"345.096 132 CURVE SMOOTH"
);
}
);
width = 709;
},
{
layerId = "38B5227D-F751-450D-B2B2-8DC56D0E577B";
paths = (
{
closed = 1;
nodes = (
"485.339 -18 OFFCURVE",
"610.454 109 OFFCURVE",
"634.37 260 CURVE SMOOTH",
"637.221 278 LINE SMOOTH",
"661.137 429 OFFCURVE",
"578.618 552 OFFCURVE",
"425.618 552 CURVE SMOOTH",
"303.618 552 OFFCURVE",
"192.422 475 OFFCURVE",
"158.022 302 CURVE",
"203.584 375 LINE",
"259.81 730 LINE",
"163.81 730 LINE",
"48.19 0 LINE",
"124.19 0 LINE",
"160.46 229 LINE",
"134.46 229 LINE",
"115.593 72 OFFCURVE",
"194.339 -18 OFFCURVE",
"327.339 -18 CURVE SMOOTH"
);
},
{
closed = 1;
nodes = (
"234.643 66 OFFCURVE",
"160.938 131 OFFCURVE",
"178.36 241 CURVE SMOOTH",
"185.646 287 LINE SMOOTH",
"203.543 400 OFFCURVE",
"296.314 468 OFFCURVE",
"393.314 468 CURVE SMOOTH",
"499.314 468 OFFCURVE",
"558.801 389 OFFCURVE",
"539.795 269 CURVE SMOOTH",
"520.789 149 OFFCURVE",
"436.643 66 OFFCURVE",
"329.643 66 CURVE SMOOTH"
);
}
);
width = 690;
},
{
layerId = "BDDC71A3-6F27-45BF-8BFA-A352BA3DE3E7";
paths = (
{
closed = 1;
nodes = (
"480.656 -16 OFFCURVE",
"589.305 127 OFFCURVE",
"609.894 257 CURVE SMOOTH",
"610.845 263 LINE SMOOTH",
"632.702 401 OFFCURVE",
"564.084 536 OFFCURVE",
"403.084 536 CURVE SMOOTH",
"253.084 536 OFFCURVE",
"144.345 424 OFFCURVE",
"122.963 289 CURVE",
"151.991 346 LINE",
"212.81 730 LINE",
"180.81 730 LINE",
"65.19 0 LINE",
"91.19 0 LINE",
"127.776 231 LINE",
"111.776 231 LINE",
"91.662 104 OFFCURVE",
"162.656 -16 OFFCURVE",
"315.656 -16 CURVE SMOOTH"
);
},
{
closed = 1;
nodes = (
"182.407 14 OFFCURVE",
"113.721 117 OFFCURVE",
"132.093 233 CURVE SMOOTH",
"140.646 287 LINE SMOOTH",
"160.286 411 OFFCURVE",
"264.332 506 OFFCURVE",
"396.332 506 CURVE SMOOTH",
"536.332 506 OFFCURVE",
"599.276 392 OFFCURVE",
"578.37 260 CURVE SMOOTH",
"558.73 136 OFFCURVE",
"462.407 14 OFFCURVE",
"318.407 14 CURVE SMOOTH"
);
}
);
width = 674;
},
{
layerId = "2089B89D-61CE-4065-A534-BEF0C3F67EB7";
name = public.background;
paths = (
{
closed = 1;
nodes = (
"526 -16 OFFCURVE",
"612 127 OFFCURVE",
"612 257 CURVE SMOOTH",
"612 263 LINE SMOOTH",
"612 401 OFFCURVE",
"522 536 OFFCURVE",
"361 536 CURVE SMOOTH",
"211 536 OFFCURVE",
"120 424 OFFCURVE",
"120 289 CURVE",
"140 346 LINE",
"140 730 LINE",
"108 730 LINE",
"108 0 LINE",
"134 0 LINE",
"134 231 LINE",
"118 231 LINE",
"118 104 OFFCURVE",
"208 -16 OFFCURVE",
"361 -16 CURVE SMOOTH"
);
},
{
closed = 1;
nodes = (
"223 14 OFFCURVE",
"138 117 OFFCURVE",
"138 233 CURVE SMOOTH",
"138 287 LINE SMOOTH",
"138 411 OFFCURVE",
"227 506 OFFCURVE",
"359 506 CURVE SMOOTH",
"499 506 OFFCURVE",
"580 392 OFFCURVE",
"580 260 CURVE SMOOTH",
"580 136 OFFCURVE",
"503 14 OFFCURVE",
"359 14 CURVE SMOOTH"
);
}
);
width = 709;
}
);
leftKerningGroup = lc_LongStem;
rightKerningGroup = lc_Round;
unicode = 0062;
},
{
color = 7;
glyphname = c;
leftMetricsKey = o;
layers = (
{
anchors = (
{
name = bottom;
position = "{313, 0}";
},
{
name = top;
position = "{317, 520}";
}
);
layerId = "2089B89D-61CE-4065-A534-BEF0C3F67EB7";
name = public.background;
paths = (
{
closed = 1;
nodes = (
"440 -16 OFFCURVE",
"538 59 OFFCURVE",
"554 168 CURVE",
"522 168 LINE",
"512 85 OFFCURVE",
"430 14 OFFCURVE",
"317 14 CURVE SMOOTH",
"169 14 OFFCURVE",
"94 134 OFFCURVE",
"94 263 CURVE SMOOTH",
"94 393 OFFCURVE",
"168 506 OFFCURVE",
"317 506 CURVE SMOOTH",
"430 506 OFFCURVE",
"499 443 OFFCURVE",
"514 356 CURVE",
"546 356 LINE",
"526 467 OFFCURVE",
"440 536 OFFCURVE",
"317 536 CURVE SMOOTH",
"148 536 OFFCURVE",
"62 403 OFFCURVE",
"62 266 CURVE SMOOTH",
"62 260 LINE SMOOTH",
"62 124 OFFCURVE",
"149 -16 OFFCURVE",
"317 -16 CURVE SMOOTH"
);
}
);
width = 613;
},
{
anchors = (
{
name = bottom;
position = "{275, 0}";
},
{
name = top;
position = "{360, 552}";
}
);
layerId = "48B7067D-14EA-4B3A-BE9A-22D6185653A2";
paths = (
{
closed = 1;
nodes = (
"420.534 -20 OFFCURVE",
"545.739 76 OFFCURVE",
"575.913 216 CURVE",
"397.913 216 LINE",
"383.835 165 OFFCURVE",
"349.926 134 OFFCURVE",
"293.926 134 CURVE SMOOTH",
"217.926 134 OFFCURVE",
"200.953 191 OFFCURVE",
"214.099 274 CURVE SMOOTH",
"227.879 361 OFFCURVE",
"268.907 418 OFFCURVE",
"338.907 418 CURVE SMOOTH",
"392.907 418 OFFCURVE",
"416.363 383 OFFCURVE",
"413.394 339 CURVE",
"591.394 339 LINE",
"604.935 475 OFFCURVE",
"514.298 572 OFFCURVE",
"363.298 572 CURVE SMOOTH",
"179.298 572 OFFCURVE",
"58.074 438 OFFCURVE",
"33.683 284 CURVE SMOOTH",
"30.516 264 LINE SMOOTH",
"7.391 118 OFFCURVE",
"78.534 -20 OFFCURVE",
"269.534 -20 CURVE SMOOTH"
);
}
);
width = 613;
},
{
anchors = (
{
name = bottom;
position = "{273, 0}";
},
{
name = top;
position = "{360, 534}";
}
);
layerId = "38B5227D-F751-450D-B2B2-8DC56D0E577B";
paths = (
{
closed = 1;
nodes = (
"409.435 -18 OFFCURVE",
"527.106 62 OFFCURVE",
"554.062 188 CURVE",
"462.062 188 LINE",
"443.292 120 OFFCURVE",
"377.056 68 OFFCURVE",
"288.056 68 CURVE SMOOTH",
"171.056 68 OFFCURVE",
"128.994 156 OFFCURVE",
"146.575 267 CURVE SMOOTH",
"164.63 381 OFFCURVE",
"234.093 466 OFFCURVE",
"349.093 466 CURVE SMOOTH",
"437.093 466 OFFCURVE",
"482.174 416 OFFCURVE",
"481.562 349 CURVE",
"573.562 349 LINE",
"584.202 473 OFFCURVE",
"496.714 552 OFFCURVE",
"362.714 552 CURVE SMOOTH",
"183.714 552 OFFCURVE",
"73.382 411 OFFCURVE",
"52 276 CURVE SMOOTH",
"49.149 258 LINE SMOOTH",
"28.242 126 OFFCURVE",
"91.435 -18 OFFCURVE",
"274.435 -18 CURVE SMOOTH"
);
}
);
width = 606;
},
{
anchors = (
{
name = bottom;
position = "{271, 0}";
},
{
name = top;
position = "{357, 520}";
}
);
layerId = "BDDC71A3-6F27-45BF-8BFA-A352BA3DE3E7";
paths = (
{
closed = 1;
nodes = (
"395.019 -16 OFFCURVE",
"504.898 59 OFFCURVE",
"538.162 168 CURVE",
"506.162 168 LINE",
"483.016 85 OFFCURVE",
"389.77 14 OFFCURVE",
"276.77 14 CURVE SMOOTH",
"128.77 14 OFFCURVE",
"72.776 134 OFFCURVE",
"93.208 263 CURVE SMOOTH",
"113.798 393 OFFCURVE",
"205.695 506 OFFCURVE",
"354.695 506 CURVE SMOOTH",
"467.695 506 OFFCURVE",
"526.717 443 OFFCURVE",
"527.938 356 CURVE",
"559.938 356 LINE",
"557.519 467 OFFCURVE",
"482.447 536 OFFCURVE",
"359.447 536 CURVE SMOOTH",
"190.447 536 OFFCURVE",
"83.382 403 OFFCURVE",
"61.683 266 CURVE SMOOTH",
"60.733 260 LINE SMOOTH",
"39.193 124 OFFCURVE",
"104.019 -16 OFFCURVE",
"272.019 -16 CURVE SMOOTH"
);
}
);
width = 600;
}
);
leftKerningGroup = lc_Round;
rightKerningGroup = lc_c;
unicode = 0063;
},
{
color = 7;
glyphname = d;
leftMetricsKey = o;
widthMetricsKey = b;
layers = (
{
anchors = (
{
name = bottom;
position = "{368, 0}";
},
{
name = center;
position = "{484, 639}";
},
{
name = top;
position = "{548, 730}";
},
{
name = topright;
position = "{568, 534}";
}
);
layerId = "2089B89D-61CE-4065-A534-BEF0C3F67EB7";
name = public.background;
paths = (
{
closed = 1;
nodes = (
"463 -16 OFFCURVE",
"556 96 OFFCURVE",
"556 231 CURVE",
"540 231 LINE",
"540 0 LINE",
"566 0 LINE",
"566 730 LINE",
"534 730 LINE",
"534 346 LINE",
"554 289 LINE",
"554 416 OFFCURVE",
"466 536 OFFCURVE",
"313 536 CURVE SMOOTH",
"148 536 OFFCURVE",
"62 393 OFFCURVE",
"62 263 CURVE SMOOTH",
"62 257 LINE SMOOTH",
"62 119 OFFCURVE",
"152 -16 OFFCURVE",
"313 -16 CURVE SMOOTH"
);
},
{
closed = 1;
nodes = (
"175 14 OFFCURVE",
"94 128 OFFCURVE",
"94 260 CURVE SMOOTH",
"94 384 OFFCURVE",
"171 506 OFFCURVE",
"315 506 CURVE SMOOTH",
"451 506 OFFCURVE",
"536 403 OFFCURVE",
"536 287 CURVE SMOOTH",
"536 233 LINE SMOOTH",
"536 109 OFFCURVE",
"447 14 OFFCURVE",
"315 14 CURVE SMOOTH"
);
}
);
width = 709;
},
{
anchors = (
{
name = bottom;
position = "{272, 0}";
},
{
name = center;
position = "{566, 637}";
},
{
name = top;
position = "{624, 730}";
},
{
name = topright;
position = "{666, 534}";
}
);
layerId = "48B7067D-14EA-4B3A-BE9A-22D6185653A2";
paths = (
{
closed = 1;
nodes = (
"381.339 -18 OFFCURVE",
"481.069 75 OFFCURVE",
"508.668 224 CURVE",
"488.668 224 LINE",
"453.19 0 LINE",
"597.19 0 LINE",
"712.81 730 LINE",
"530.81 730 LINE",
"470.307 348 LINE",
"507.398 317 LINE",
"528.739 477 OFFCURVE",
"466.152 568 OFFCURVE",
"332.152 568 CURVE SMOOTH",
"177.152 568 OFFCURVE",
"59.829 446 OFFCURVE",
"34.329 285 CURVE SMOOTH",
"30.528 261 LINE SMOOTH",
"5.028 100 OFFCURVE",
"91.339 -18 OFFCURVE",
"245.339 -18 CURVE SMOOTH"
);
},
{
closed = 1;
nodes = (
"245.096 132 OFFCURVE",
"200.808 187 OFFCURVE",
"214.429 273 CURVE SMOOTH",
"228.05 359 OFFCURVE",
"290.394 418 OFFCURVE",
"363.394 418 CURVE SMOOTH",
"426.394 418 OFFCURVE",
"478.425 374 OFFCURVE",
"465.913 295 CURVE SMOOTH",
"460.528 261 LINE SMOOTH",
"447.382 178 OFFCURVE",
"384.096 132 OFFCURVE",
"318.096 132 CURVE SMOOTH"
);
}
);
width = 708;
},
{
anchors = (
{
name = bottom;
position = "{301, 0}";
},
{
name = center;
position = "{551, 643}";
},
{
name = top;
position = "{621, 730}";
},
{
name = topright;
position = "{638, 534}";
}
);
layerId = "38B5227D-F751-450D-B2B2-8DC56D0E577B";
paths = (
{
closed = 1;
nodes = (
"386.339 -18 OFFCURVE",
"504.742 54 OFFCURVE",
"542.727 237 CURVE",
"514.727 237 LINE",
"477.19 0 LINE",
"553.19 0 LINE",
"668.81 730 LINE",
"572.81 730 LINE",
"515.95 371 LINE",
"545.814 307 LINE",
"563.897 478 OFFCURVE",
"476.618 552 OFFCURVE",
"355.618 552 CURVE SMOOTH",
"201.618 552 OFFCURVE",
"75.978 428 OFFCURVE",
"51.904 276 CURVE SMOOTH",
"49.053 258 LINE SMOOTH",
"24.662 104 OFFCURVE",
"116.339 -18 OFFCURVE",
"268.339 -18 CURVE SMOOTH"
);
},
{
closed = 1;
nodes = (
"189.643 66 OFFCURVE",
"126.997 144 OFFCURVE",
"146.478 267 CURVE SMOOTH",
"165.643 388 OFFCURVE",
"250.314 468 OFFCURVE",
"357.314 468 CURVE SMOOTH",
"452.314 468 OFFCURVE",
"525.335 405 OFFCURVE",
"507.913 295 CURVE SMOOTH",
"500.627 249 LINE SMOOTH",
"482.73 136 OFFCURVE",
"392.643 66 OFFCURVE",
"294.643 66 CURVE SMOOTH"
);
}
);
width = 689;
},
{
anchors = (
{
name = bottom;
position = "{326, 0}";
},
{
name = center;
position = "{543, 639}";
},
{
name = top;
position = "{622, 730}";
},
{
name = topright;
position = "{611, 534}";
}
);
layerId = "BDDC71A3-6F27-45BF-8BFA-A352BA3DE3E7";
paths = (
{
closed = 1;
nodes = (
"418.656 -16 OFFCURVE",
"529.395 96 OFFCURVE",
"550.776 231 CURVE",
"534.776 231 LINE",
"498.19 0 LINE",
"524.19 0 LINE",
"639.81 730 LINE",
"607.81 730 LINE",
"546.991 346 LINE",
"557.963 289 LINE",
"578.078 416 OFFCURVE",
"509.084 536 OFFCURVE",
"356.084 536 CURVE SMOOTH",
"191.084 536 OFFCURVE",
"82.435 393 OFFCURVE",
"61.845 263 CURVE SMOOTH",
"60.894 257 LINE SMOOTH",
"39.037 119 OFFCURVE",
"107.656 -16 OFFCURVE",
"268.656 -16 CURVE SMOOTH"
);
},
{
closed = 1;
nodes = (
"135.407 14 OFFCURVE",
"72.463 128 OFFCURVE",
"93.37 260 CURVE SMOOTH",
"113.009 384 OFFCURVE",
"209.332 506 OFFCURVE",
"353.332 506 CURVE SMOOTH",
"489.332 506 OFFCURVE",
"558.019 403 OFFCURVE",
"539.646 287 CURVE SMOOTH",
"531.093 233 LINE SMOOTH",
"511.454 109 OFFCURVE",
"407.407 14 OFFCURVE",
"275.407 14 CURVE SMOOTH"
);
}
);
width = 674;
}
);
leftKerningGroup = lc_Round;
rightKerningGroup = lc_LongStem;
unicode = 0064;
},
{
color = 7;
glyphname = eth;
leftMetricsKey = o;
layers = (
{
guideLines = (
{
position = "{0, 364}";
}
);
layerId = "48B7067D-14EA-4B3A-BE9A-22D6185653A2";
paths = (
{
closed = 1;
nodes = (
"489.033 -18 OFFCURVE",
"620.148 109 OFFCURVE",
"655.467 332 CURVE SMOOTH",
"659.585 358 LINE SMOOTH",
"699.182 608 OFFCURVE",
"618.989 752 OFFCURVE",
"374.989 752 CURVE SMOOTH",
"333.989 752 OFFCURVE",
"285.355 748 OFFCURVE",
"239.088 740 CURVE",
"217.548 604 LINE",
"262.657 611 OFFCURVE",
"310.449 616 OFFCURVE",
"354.449 616 CURVE SMOOTH",
"408.449 616 OFFCURVE",
"452.865 606 OFFCURVE",
"476.697 586 CURVE SMOOTH",
"509.262 558 OFFCURVE",
"534.017 487 OFFCURVE",
"515.744 359 CURVE",
"527.744 359 LINE",
"527.79 454 OFFCURVE",
"439.026 506 OFFCURVE",
"332.026 506 CURVE SMOOTH",
"190.026 506 OFFCURVE",
"56.613 415 OFFCURVE",
"32.064 260 CURVE SMOOTH",
"29.53 244 LINE SMOOTH",
"6.089 96 OFFCURVE",
"107.033 -18 OFFCURVE",
"296.033 -18 CURVE SMOOTH"
);
},
{
closed = 1;
nodes = (
"243.107 134 OFFCURVE",
"200.759 176 OFFCURVE",
"212.797 252 CURVE SMOOTH",
"225.151 330 OFFCURVE",
"284.12 374 OFFCURVE",
"359.12 374 CURVE SMOOTH",
"434.12 374 OFFCURVE",
"479.151 330 OFFCURVE",
"466.797 252 CURVE SMOOTH",
"454.759 176 OFFCURVE",
"399.107 134 OFFCURVE",
"321.107 134 CURVE SMOOTH"
);
},
{
closed = 1;
nodes = (
"689.98 733 LINE",
"637.116 797 LINE",
"371.846 568 LINE",
"424.71 504 LINE"
);
}
);
width = 702;
},
{
guideLines = (
{
position = "{0, 364}";
}
);
layerId = "38B5227D-F751-450D-B2B2-8DC56D0E577B";
paths = (
{
closed = 1;
nodes = (
"476.013 -20 OFFCURVE",
"571.711 117 OFFCURVE",
"600.062 296 CURVE SMOOTH",
"604.18 322 LINE SMOOTH",
"649.161 606 OFFCURVE",
"586.435 734 OFFCURVE",
"373.435 734 CURVE SMOOTH",
"331.435 734 OFFCURVE",
"297.959 731 OFFCURVE",
"261.167 726 CURVE",
"249.13 650 LINE",
"285.922 655 OFFCURVE",
"321.397 658 OFFCURVE",
"361.397 658 CURVE SMOOTH",
"426.397 658 OFFCURVE",
"462.338 645 OFFCURVE",
"489.854 623 CURVE SMOOTH",
"542.202 581 OFFCURVE",
"545.581 495 OFFCURVE",
"525.407 355 CURVE",
"535.407 355 LINE",
"539.978 447 OFFCURVE",
"478.907 516 OFFCURVE",
"353.907 516 CURVE SMOOTH",
"180.907 516 OFFCURVE",
"73.267 392 OFFCURVE",
"52.36 260 CURVE SMOOTH",
"49.193 240 LINE SMOOTH",
"29.236 114 OFFCURVE",
"86.013 -20 OFFCURVE",
"281.013 -20 CURVE SMOOTH"
);
},
{
closed = 1;
nodes = (
"176.634 66 OFFCURVE",
"129.354 140 OFFCURVE",
"146.776 250 CURVE SMOOTH",
"164.516 362 OFFCURVE",
"235.919 434 OFFCURVE",
"350.919 434 CURVE SMOOTH",
"465.919 434 OFFCURVE",
"518.516 362 OFFCURVE",
"500.776 250 CURVE SMOOTH",
"483.354 140 OFFCURVE",
"412.634 66 OFFCURVE",
"294.634 66 CURVE SMOOTH"
);
},
{
closed = 1;
nodes = (
"665.167 726 LINE",
"637.82 768 LINE",
"377.41 576 LINE",
"404.758 534 LINE"
);
}
);
width = 668;
},
{
layerId = "BDDC71A3-6F27-45BF-8BFA-A352BA3DE3E7";
paths = (
{
closed = 1;
nodes = (
"424.022 -16 OFFCURVE",
"528.603 95 OFFCURVE",
"556.795 273 CURVE SMOOTH",
"558.696 285 LINE SMOOTH",
"610.804 614 OFFCURVE",
"551.593 720 OFFCURVE",
"363.593 720 CURVE SMOOTH",
"331.593 720 OFFCURVE",
"296.118 717 OFFCURVE",
"268.326 712 CURVE",
"263.574 682 LINE",
"294.366 687 OFFCURVE",
"329.841 690 OFFCURVE",
"358.841 690 CURVE SMOOTH",
"429.841 690 OFFCURVE",
"467.466 675 OFFCURVE",
"496.506 650 CURVE SMOOTH",
"547.379 605 OFFCURVE",
"558.531 486 OFFCURVE",
"535.981 331 CURVE",
"543.981 331 LINE",
"549.553 423 OFFCURVE",
"497.283 516 OFFCURVE",
"351.283 516 CURVE SMOOTH",
"188.283 516 OFFCURVE",
"85.276 396 OFFCURVE",
"63.894 261 CURVE SMOOTH",
"60.252 238 LINE SMOOTH",
"39.503 107 OFFCURVE",
"106.022 -16 OFFCURVE",
"267.022 -16 CURVE SMOOTH"
);
},
{
closed = 1;
nodes = (
"126.774 14 OFFCURVE",
"73.721 121 OFFCURVE",
"94.152 250 CURVE SMOOTH",
"115.059 382 OFFCURVE",
"199.531 486 OFFCURVE",
"346.531 486 CURVE SMOOTH",
"487.531 486 OFFCURVE",
"544.851 387 OFFCURVE",
"523.152 250 CURVE SMOOTH",
"502.246 118 OFFCURVE",
"419.774 14 OFFCURVE",
"271.774 14 CURVE SMOOTH"
);
},
{
closed = 1;
nodes = (
"621.276 718 LINE",
"608.444 738 LINE",
"374.31 573 LINE",
"387.143 553 LINE"
);
}
);
width = 639;
},
{
layerId = "2089B89D-61CE-4065-A534-BEF0C3F67EB7";
name = public.background;
paths = (
{
closed = 1;
nodes = (
"466 -16 OFFCURVE",
"553 95 OFFCURVE",
"553 273 CURVE SMOOTH",
"553 285 LINE SMOOTH",
"553 614 OFFCURVE",
"477 720 OFFCURVE",
"289 720 CURVE SMOOTH",
"257 720 OFFCURVE",
"222 717 OFFCURVE",
"195 712 CURVE",
"195 682 LINE",
"225 687 OFFCURVE",
"260 690 OFFCURVE",
"289 690 CURVE SMOOTH",
"360 690 OFFCURVE",
"400 675 OFFCURVE",
"433 650 CURVE SMOOTH",
"491 605 OFFCURVE",
"521 486 OFFCURVE",
"523 331 CURVE",
"531 331 LINE",
"522 423 OFFCURVE",
"455 516 OFFCURVE",
"309 516 CURVE SMOOTH",
"146 516 OFFCURVE",
"62 396 OFFCURVE",
"62 261 CURVE SMOOTH",
"62 238 LINE SMOOTH",
"62 107 OFFCURVE",
"148 -16 OFFCURVE",
"309 -16 CURVE SMOOTH"
);
},
{
closed = 1;
nodes = (
"164 14 OFFCURVE",
"94 121 OFFCURVE",
"94 250 CURVE SMOOTH",
"94 382 OFFCURVE",
"162 486 OFFCURVE",
"309 486 CURVE SMOOTH",
"450 486 OFFCURVE",
"523 387 OFFCURVE",
"523 250 CURVE SMOOTH",
"523 118 OFFCURVE",
"457 14 OFFCURVE",
"309 14 CURVE SMOOTH"
);
},
{
closed = 1;
nodes = (
"547 718 LINE",
"531 738 LINE",
"323 573 LINE",
"339 553 LINE"
);
}
);
width = 702;
}
);
leftKerningGroup = lc_Round;
unicode = 00F0;
},
{
color = 7;
glyphname = e;
leftMetricsKey = o;
layers = (
{
anchors = (
{
name = bottom;
position = "{316, 0}";
},
{
name = ogonek;
position = "{452, 29}";
},
{
name = top;
position = "{310, 520}";
}
);
layerId = "2089B89D-61CE-4065-A534-BEF0C3F67EB7";
name = public.background;
paths = (
{
closed = 1;
nodes = (
"441 -16 OFFCURVE",
"521 52 OFFCURVE",
"542 146 CURVE",
"510 146 LINE",
"494 73 OFFCURVE",
"425 14 OFFCURVE",
"316 14 CURVE SMOOTH",
"164 14 OFFCURVE",
"92 131 OFFCURVE",
"92 263 CURVE SMOOTH",
"92 392 OFFCURVE",
"167 506 OFFCURVE",
"310 506 CURVE SMOOTH",
"442 506 OFFCURVE",
"520 407 OFFCURVE",
"520 281 CURVE",
"533 291 LINE",
"79 291 LINE",
"79 261 LINE",
"550 261 LINE",
"550 293 LINE SMOOTH",
"550 417 OFFCURVE",
"462 536 OFFCURVE",
"310 536 CURVE SMOOTH",
"146 536 OFFCURVE",
"62 402 OFFCURVE",
"62 266 CURVE SMOOTH",
"62 260 LINE SMOOTH",
"62 121 OFFCURVE",
"142 -16 OFFCURVE",
"316 -16 CURVE SMOOTH"
);
}
);
width = 627;
},
{
anchors = (
{
name = bottom;
position = "{279, 0}";
},
{
name = ogonek;
position = "{489, 70}";
},
{
name = top;
position = "{360, 552}";
}
);
layerId = "48B7067D-14EA-4B3A-BE9A-22D6185653A2";
paths = (
{
closed = 1;
nodes = (
"416.534 -20 OFFCURVE",
"527.364 61 OFFCURVE",
"569.261 174 CURVE",
"403.261 174 LINE",
"385.509 144 OFFCURVE",
"348.658 126 OFFCURVE",
"298.658 126 CURVE SMOOTH",
"212.658 126 OFFCURVE",
"184.686 183 OFFCURVE",
"199.258 275 CURVE SMOOTH",
"215.255 376 OFFCURVE",
"267.174 426 OFFCURVE",
"340.174 426 CURVE SMOOTH",
"413.174 426 OFFCURVE",
"442.938 374 OFFCURVE",
"428.05 280 CURVE",
"498.019 324 LINE",
"115.019 324 LINE",
"99.497 226 LINE",
"587.497 226 LINE",
"596.683 284 LINE SMOOTH",
"620.916 437 OFFCURVE",
"540.298 572 OFFCURVE",
"363.298 572 CURVE SMOOTH",
"184.298 572 OFFCURVE",
"56.599 435 OFFCURVE",
"33 286 CURVE SMOOTH",
"29.832 266 LINE SMOOTH",
"7.183 123 OFFCURVE",
"89.534 -20 OFFCURVE",
"275.534 -20 CURVE SMOOTH"
);
}
);
width = 627;
},
{
anchors = (
{
name = bottom;
position = "{276, 0}";
},
{
name = ogonek;
position = "{452, 42}";
},
{
name = top;
position = "{355, 534}";
}
);
layerId = "38B5227D-F751-450D-B2B2-8DC56D0E577B";
paths = (
{
closed = 1;
nodes = (
"399.435 -18 OFFCURVE",
"500.888 48 OFFCURVE",
"541.469 159 CURVE",
"451.469 159 LINE",
"432.55 109 OFFCURVE",
"370.739 66 OFFCURVE",
"286.739 66 CURVE SMOOTH",
"165.739 66 OFFCURVE",
"125.519 153 OFFCURVE",
"143.575 267 CURVE SMOOTH",
"162.106 384 OFFCURVE",
"229.41 468 OFFCURVE",
"344.41 468 CURVE SMOOTH",
"453.41 468 OFFCURVE",
"495.848 395 OFFCURVE",
"477.95 282 CURVE",
"506.127 321 LINE",
"102.127 321 LINE",
"90.724 249 LINE",
"564.724 249 LINE",
"571.534 292 LINE SMOOTH",
"592.599 425 OFFCURVE",
"530.714 552 OFFCURVE",
"357.714 552 CURVE SMOOTH",
"178.714 552 OFFCURVE",
"74.857 414 OFFCURVE",
"53 276 CURVE SMOOTH",
"50.149 258 LINE SMOOTH",
"28.767 123 OFFCURVE",
"85.435 -18 OFFCURVE",
"273.435 -18 CURVE SMOOTH"
);
}
);
width = 613;
},
{
anchors = (
{
name = bottom;
position = "{274, 0}";
},
{
name = ogonek;
position = "{414, 29}";
},
{
name = top;
position = "{350, 520}";
}
);
layerId = "BDDC71A3-6F27-45BF-8BFA-A352BA3DE3E7";
paths = (
{
closed = 1;
nodes = (
"396.019 -16 OFFCURVE",
"486.789 52 OFFCURVE",
"522.677 146 CURVE",
"490.677 146 LINE",
"463.115 73 OFFCURVE",
"384.77 14 OFFCURVE",
"275.77 14 CURVE SMOOTH",
"123.77 14 OFFCURVE",
"70.301 131 OFFCURVE",
"91.208 263 CURVE SMOOTH",
"111.64 392 OFFCURVE",
"204.695 506 OFFCURVE",
"347.695 506 CURVE SMOOTH",
"479.695 506 OFFCURVE",
"542.015 407 OFFCURVE",
"522.059 281 CURVE",
"536.643 291 LINE",
"82.643 291 LINE",
"77.891 261 LINE",
"548.891 261 LINE",
"553.96 293 LINE SMOOTH",
"573.599 417 OFFCURVE",
"504.447 536 OFFCURVE",
"352.447 536 CURVE SMOOTH",
"188.447 536 OFFCURVE",
"83.224 402 OFFCURVE",
"61.683 266 CURVE SMOOTH",
"60.733 260 LINE SMOOTH",
"38.717 121 OFFCURVE",
"97.019 -16 OFFCURVE",
"271.019 -16 CURVE SMOOTH"
);
}
);
width = 602;
}
);
leftKerningGroup = lc_Round;
rightKerningGroup = lc_e;
unicode = 0065;
},
{
color = 7;
glyphname = f;
layers = (
{
layerId = "48B7067D-14EA-4B3A-BE9A-22D6185653A2";
paths = (
{
closed = 1;
nodes = (
"187.239 0 LINE",
"275.618 558 LINE SMOOTH",
"280.686 590 OFFCURVE",
"301.537 608 OFFCURVE",
"333.537 608 CURVE SMOOTH",
"408.537 608 LINE",
"429.761 742 LINE",
"358.761 742 LINE SMOOTH",
"211.761 742 OFFCURVE",
"126.782 679 OFFCURVE",
"106.351 550 CURVE SMOOTH",
"19.239 0 LINE"
);
},
{
closed = 1;
nodes = (
"384.86 408 LINE",
"405.767 540 LINE",
"42.767 540 LINE",
"21.86 408 LINE"
);
}
);
width = 383;
},
{
layerId = "38B5227D-F751-450D-B2B2-8DC56D0E577B";
paths = (
{
closed = 1;
nodes = (
"139.873 0 LINE",
"231.261 577 LINE SMOOTH",
"238.863 625 OFFCURVE",
"270.456 654 OFFCURVE",
"320.456 654 CURVE SMOOTH",
"402.456 654 LINE",
"415.127 734 LINE",
"349.127 734 LINE SMOOTH",
"228.127 734 OFFCURVE",
"155.574 680 OFFCURVE",
"136.727 561 CURVE SMOOTH",
"47.873 0 LINE"
);
},
{
closed = 1;
nodes = (
"381.096 456 LINE",
"392.5 528 LINE",
"57.5 528 LINE",
"46.096 456 LINE"
);
}
);
width = 379;
},
{
layerId = "BDDC71A3-6F27-45BF-8BFA-A352BA3DE3E7";
paths = (
{
closed = 1;
nodes = (
"98.19 0 LINE",
"193.22 600 LINE SMOOTH",
"203.357 664 OFFCURVE",
"245.059 700 OFFCURVE",
"313.059 700 CURVE SMOOTH",
"393.059 700 LINE",
"397.81 730 LINE",
"327.81 730 LINE SMOOTH",
"227.81 730 OFFCURVE",
"174.525 684 OFFCURVE",
"159.32 588 CURVE SMOOTH",
"66.19 0 LINE"
);
},
{
closed = 1;
nodes = (
"371.798 490 LINE",
"376.233 518 LINE",
"64.233 518 LINE",
"59.798 490 LINE"
);
}
);
width = 368;
},
{
layerId = "2089B89D-61CE-4065-A534-BEF0C3F67EB7";
name = public.background;
paths = (
{
closed = 1;
nodes = (
"156 0 LINE",
"156 600 LINE SMOOTH",
"156 664 OFFCURVE",
"192 700 OFFCURVE",
"260 700 CURVE SMOOTH",
"340 700 LINE",
"340 730 LINE",
"270 730 LINE SMOOTH",
"170 730 OFFCURVE",
"124 684 OFFCURVE",
"124 588 CURVE SMOOTH",
"124 0 LINE"
);
},
{
closed = 1;
nodes = (
"352 490 LINE",
"352 518 LINE",
"40 518 LINE",
"40 490 LINE"
);
}
);
width = 383;
}
);
leftKerningGroup = lc_f;
rightKerningGroup = lc_f;
unicode = 0066;
},
{
color = 7;
glyphname = g;
leftMetricsKey = o;
rightMetricsKey = "=i-8";
layers = (
{
anchors = (
{
name = bottom;
position = "{310, -300}";
},
{
name = top;
position = "{337, 520}";
}
);
layerId = "2089B89D-61CE-4065-A534-BEF0C3F67EB7";
name = public.background;
paths = (
{
closed = 1;
nodes = (
"494 -204 OFFCURVE",
"562 -140 OFFCURVE",
"562 47 CURVE SMOOTH",
"562 520 LINE",
"536 520 LINE",
"536 330 LINE",
"552 289 LINE",
"552 415 OFFCURVE",
"463 536 OFFCURVE",
"311 536 CURVE SMOOTH",
"147 536 OFFCURVE",
"62 392 OFFCURVE",
"62 263 CURVE SMOOTH",
"62 257 LINE SMOOTH",
"62 120 OFFCURVE",
"151 -16 OFFCURVE",
"311 -16 CURVE SMOOTH",
"460 -16 OFFCURVE",
"550 97 OFFCURVE",
"550 231 CURVE",
"530 160 LINE",
"530 48 LINE SMOOTH",
"530 -118 OFFCURVE",
"477 -174 OFFCURVE",
"312 -174 CURVE SMOOTH",
"265 -174 OFFCURVE",
"210 -169 OFFCURVE",
"162 -161 CURVE",
"162 -191 LINE",
"208 -199 OFFCURVE",
"261 -204 OFFCURVE",
"308 -204 CURVE SMOOTH"
);
},
{
closed = 1;
nodes = (
"174 14 OFFCURVE",
"94 129 OFFCURVE",
"94 260 CURVE SMOOTH",
"94 383 OFFCURVE",
"170 506 OFFCURVE",
"313 506 CURVE SMOOTH",
"448 506 OFFCURVE",
"532 402 OFFCURVE",
"532 287 CURVE SMOOTH",
"532 233 LINE SMOOTH",
"532 110 OFFCURVE",
"444 14 OFFCURVE",
"313 14 CURVE SMOOTH"
);
}
);
width = 726;
},
{
anchors = (
{
name = bottom;
position = "{187, -300}";
},
{
name = top;
position = "{367, 552}";
}
);
layerId = "48B7067D-14EA-4B3A-BE9A-22D6185653A2";
paths = (
{
closed = 1;
nodes = (
"435.016 -221 OFFCURVE",
"562.845 -140 OFFCURVE",
"595.314 65 CURVE SMOOTH",
"672.447 552 LINE",
"528.447 552 LINE",
"490.118 310 LINE",
"511.227 317 LINE",
"532.568 477 OFFCURVE",
"463.981 568 OFFCURVE",
"332.981 568 CURVE SMOOTH",
"180.981 568 OFFCURVE",
"60.292 450 OFFCURVE",
"35.267 292 CURVE SMOOTH",
"31.466 268 LINE SMOOTH",
"6.441 110 OFFCURVE",
"81.385 -4 OFFCURVE",
"231.385 -4 CURVE SMOOTH",
"363.385 -4 OFFCURVE",
"452.323 84 OFFCURVE",
"478.655 225 CURVE",
"441.152 165 LINE",
"423.413 53 LINE SMOOTH",
"410.109 -31 OFFCURVE",
"348.09 -69 OFFCURVE",
"225.09 -69 CURVE SMOOTH",
"177.09 -69 OFFCURVE",
"114.882 -64 OFFCURVE",
"69.833 -58 CURVE",
"45.758 -210 LINE",
"90.649 -217 OFFCURVE",
"152.016 -221 OFFCURVE",
"207.016 -221 CURVE SMOOTH"
);
},
{
closed = 1;
nodes = (
"244.143 146 OFFCURVE",
"202.062 196 OFFCURVE",
"215.366 280 CURVE SMOOTH",
"228.671 364 OFFCURVE",
"287.224 418 OFFCURVE",
"359.224 418 CURVE SMOOTH",
"421.224 418 OFFCURVE",
"470.255 374 OFFCURVE",
"458.059 297 CURVE SMOOTH",
"454.258 273 LINE SMOOTH",
"441.429 192 OFFCURVE",
"381.143 146 OFFCURVE",
"316.143 146 CURVE SMOOTH"
);
}
);
width = 696;
},
{
anchors = (
{
name = bottom;
position = "{213, -300}";
},
{
name = top;
position = "{379, 534}";
}
);
layerId = "38B5227D-F751-450D-B2B2-8DC56D0E577B";
paths = (
{
closed = 1;
nodes = (
"429.342 -208 OFFCURVE",
"523.854 -129 OFFCURVE",
"554.264 63 CURVE SMOOTH",
"628.863 534 LINE",
"552.863 534 LINE",
"516.752 306 LINE",
"544.91 307 LINE",
"563.776 464 OFFCURVE",
"486.714 552 OFFCURVE",
"352.714 552 CURVE SMOOTH",
"200.714 552 OFFCURVE",
"76.5 437 OFFCURVE",
"52.742 287 CURVE SMOOTH",
"49.891 269 LINE SMOOTH",
"26.45 121 OFFCURVE",
"109.652 -4 OFFCURVE",
"259.652 -4 CURVE SMOOTH",
"378.652 -4 OFFCURVE",
"489.006 74 OFFCURVE",
"521.823 237 CURVE",
"477.786 161 LINE",
"461.631 59 LINE SMOOTH",
"440.882 -72 OFFCURVE",
"379.013 -128 OFFCURVE",
"233.013 -128 CURVE SMOOTH",
"186.013 -128 OFFCURVE",
"131.805 -123 OFFCURVE",
"84.913 -116 CURVE",
"72.084 -197 LINE",
"115.975 -204 OFFCURVE",
"166.342 -208 OFFCURVE",
"216.342 -208 CURVE SMOOTH"
);
},
{
closed = 1;
nodes = (
"189.59 84 OFFCURVE",
"128.469 159 OFFCURVE",
"147.317 278 CURVE SMOOTH",
"165.848 395 OFFCURVE",
"249.043 472 OFFCURVE",
"354.043 472 CURVE SMOOTH",
"445.043 472 OFFCURVE",
"517.699 413 OFFCURVE",
"500.752 306 CURVE SMOOTH",
"493.466 260 LINE SMOOTH",
"476.044 150 OFFCURVE",
"386.59 84 OFFCURVE",
"291.59 84 CURVE SMOOTH"
);
}
);
width = 670;
},
{
anchors = (
{
name = bottom;
position = "{220, -300}";
},
{
name = top;
position = "{377, 520}";
}
);
layerId = "BDDC71A3-6F27-45BF-8BFA-A352BA3DE3E7";
paths = (
{
closed = 1;
nodes = (
"419.243 -204 OFFCURVE",
"497.379 -140 OFFCURVE",
"526.997 47 CURVE SMOOTH",
"601.913 520 LINE",
"575.913 520 LINE",
"545.82 330 LINE",
"555.326 289 LINE",
"575.283 415 OFFCURVE",
"505.447 536 OFFCURVE",
"353.447 536 CURVE SMOOTH",
"189.447 536 OFFCURVE",
"81.64 392 OFFCURVE",
"61.208 263 CURVE SMOOTH",
"60.258 257 LINE SMOOTH",
"38.559 120 OFFCURVE",
"106.019 -16 OFFCURVE",
"266.019 -16 CURVE SMOOTH",
"415.019 -16 OFFCURVE",
"522.916 97 OFFCURVE",
"544.14 231 CURVE",
"512.894 160 LINE",
"495.155 48 LINE SMOOTH",
"468.864 -118 OFFCURVE",
"406.994 -174 OFFCURVE",
"241.994 -174 CURVE SMOOTH",
"194.994 -174 OFFCURVE",
"140.786 -169 OFFCURVE",
"94.053 -161 CURVE",
"89.302 -191 LINE",
"134.034 -199 OFFCURVE",
"186.243 -204 OFFCURVE",
"233.243 -204 CURVE SMOOTH"
);
},
{
closed = 1;
nodes = (
"133.77 14 OFFCURVE",
"71.985 129 OFFCURVE",
"92.733 260 CURVE SMOOTH",
"112.214 383 OFFCURVE",
"207.695 506 OFFCURVE",
"350.695 506 CURVE SMOOTH",
"485.695 506 OFFCURVE",
"553.224 402 OFFCURVE",
"535.009 287 CURVE SMOOTH",
"526.457 233 LINE SMOOTH",
"506.975 110 OFFCURVE",
"403.77 14 OFFCURVE",
"272.77 14 CURVE SMOOTH"
);
}
);
width = 656;
}
);
leftKerningGroup = lc_Round;
rightKerningGroup = lc_g;
unicode = 0067;
},
{
color = 7;
glyphname = h;
leftMetricsKey = n;
rightMetricsKey = n;
layers = (
{
anchors = (
{
name = bottom;
position = "{316, 0}";
},
{
name = center;
position = "{190, 639}";
},
{
name = top;
position = "{124, 730}";
}
);
layerId = "2089B89D-61CE-4065-A534-BEF0C3F67EB7";
name = public.background;
paths = (
{
closed = 1;
nodes = (
"140 0 LINE",
"140 318 LINE SMOOTH",
"140 428 OFFCURVE",
"210 504 OFFCURVE",
"322 504 CURVE SMOOTH",
"432 504 OFFCURVE",
"492 429 OFFCURVE",
"492 320 CURVE SMOOTH",
"492 0 LINE",
"524 0 LINE",
"524 312 LINE SMOOTH",
"524 445 OFFCURVE",
"455 534 OFFCURVE",
"325 534 CURVE",
"323 534 LINE",
"191 534 OFFCURVE",
"123 440 OFFCURVE",
"123 312 CURVE",
"140 363 LINE",
"140 730 LINE",
"108 730 LINE",
"108 0 LINE"
);
}
);
width = 656;
},
{
anchors = (
{
name = bottom;
position = "{287, 0}";
},
{
name = center;
position = "{253, 637}";
},
{
name = top;
position = "{227, 730}";
}
);
layerId = "48B7067D-14EA-4B3A-BE9A-22D6185653A2";
paths = (
{
closed = 1;
nodes = (
"202.19 0 LINE",
"252.714 319 LINE SMOOTH",
"261.109 372 OFFCURVE",
"301.811 408 OFFCURVE",
"352.811 408 CURVE SMOOTH",
"403.811 408 OFFCURVE",
"431.109 372 OFFCURVE",
"423.031 321 CURVE SMOOTH",
"372.19 0 LINE",
"554.19 0 LINE",
"603.922 314 LINE SMOOTH",
"630.531 482 OFFCURVE",
"579.469 570 OFFCURVE",
"459.469 570 CURVE SMOOTH",
"451.469 570 LINE SMOOTH",
"331.469 570 OFFCURVE",
"254.531 482 OFFCURVE",
"227.922 314 CURVE",
"251.922 314 LINE",
"317.81 730 LINE",
"135.81 730 LINE",
"20.19 0 LINE"
);
}
);
width = 655;
},
{
anchors = (
{
name = bottom;
position = "{280, 0}";
},
{
name = center;
position = "{255, 642}";
},
{
name = top;
position = "{212, 730}";
}
);
layerId = "38B5227D-F751-450D-B2B2-8DC56D0E577B";
paths = (
{
closed = 1;
nodes = (
"144.19 0 LINE",
"192.972 308 LINE SMOOTH",
"207.543 400 OFFCURVE",
"272.363 462 OFFCURVE",
"358.363 462 CURVE SMOOTH",
"435.363 462 OFFCURVE",
"481.444 412 OFFCURVE",
"467.665 325 CURVE SMOOTH",
"416.19 0 LINE",
"512.19 0 LINE",
"560.497 305 LINE SMOOTH",
"585.363 462 OFFCURVE",
"533.301 550 OFFCURVE",
"405.301 550 CURVE SMOOTH",
"401.301 550 LINE SMOOTH",
"266.301 550 OFFCURVE",
"191.779 452 OFFCURVE",
"166.755 294 CURVE",
"190.755 294 LINE",
"259.81 730 LINE",
"163.81 730 LINE",
"48.19 0 LINE"
);
}
);
width = 640;
},
{
anchors = (
{
name = bottom;
position = "{273, 0}";
},
{
name = center;
position = "{248, 639}";
},
{
name = top;
position = "{197, 730}";
}
);
layerId = "BDDC71A3-6F27-45BF-8BFA-A352BA3DE3E7";
paths = (
{
closed = 1;
nodes = (
"97.19 0 LINE",
"147.556 318 LINE SMOOTH",
"164.978 428 OFFCURVE",
"247.015 504 OFFCURVE",
"359.015 504 CURVE SMOOTH",
"469.015 504 OFFCURVE",
"517.137 429 OFFCURVE",
"499.873 320 CURVE SMOOTH",
"449.19 0 LINE",
"481.19 0 LINE",
"530.606 312 LINE SMOOTH",
"551.671 445 OFFCURVE",
"496.767 534 OFFCURVE",
"366.767 534 CURVE",
"364.767 534 LINE",
"232.767 534 OFFCURVE",
"149.879 440 OFFCURVE",
"129.606 312 CURVE",
"154.683 363 LINE",
"212.81 730 LINE",
"180.81 730 LINE",
"65.19 0 LINE"
);
}
);
width = 625;
}
);
leftKerningGroup = lc_LongStem;
rightKerningGroup = lc_Shoulder;
unicode = 0068;
},
{
color = 7;
glyphname = i;
layers = (
{
anchors = (
{
name = bottom;
position = "{154, 0}";
}
);
layerId = "2089B89D-61CE-4065-A534-BEF0C3F67EB7";
name = public.background;
paths = (
{
closed = 1;
nodes = (
"170 0 LINE",
"170 520 LINE",
"138 520 LINE",
"138 0 LINE"
);
},
{
closed = 1;
nodes = (
"170 490 LINE",
"170 520 LINE",
"48 520 LINE",
"48 490 LINE"
);
},
{
closed = 1;
nodes = (
"154 642 OFFCURVE",
"166 655 OFFCURVE",
"166 675 CURVE SMOOTH",
"166 694 OFFCURVE",
"154 708 OFFCURVE",
"132 708 CURVE SMOOTH",
"110 708 OFFCURVE",
"98 694 OFFCURVE",
"98 675 CURVE SMOOTH",
"98 655 OFFCURVE",
"110 642 OFFCURVE",
"132 642 CURVE SMOOTH"
);
}
);
width = 342;
},
{
anchors = (
{
name = bottom;
position = "{121, 0}";
}
);
layerId = "48B7067D-14EA-4B3A-BE9A-22D6185653A2";
paths = (
{
closed = 1;
nodes = (
"212.388 0 LINE",
"299.817 552 LINE",
"117.817 552 LINE",
"30.388 0 LINE"
);
},
{
closed = 1;
nodes = (
"278.91 420 LINE",
"299.817 552 LINE",
"47.817 552 LINE",
"26.91 420 LINE"
);
},
{
closed = 1;
nodes = (
"264.786 596 OFFCURVE",
"300.804 634 OFFCURVE",
"309.199 687 CURVE SMOOTH",
"317.593 740 OFFCURVE",
"293.612 778 OFFCURVE",
"227.612 778 CURVE SMOOTH",
"161.612 778 OFFCURVE",
"125.593 740 OFFCURVE",
"117.199 687 CURVE SMOOTH",
"108.804 634 OFFCURVE",
"132.786 596 OFFCURVE",
"198.786 596 CURVE SMOOTH"
);
}
);
width = 342;
},
{
anchors = (
{
name = bottom;
position = "{107, 0}";
}
);
layerId = "38B5227D-F751-450D-B2B2-8DC56D0E577B";
paths = (
{
closed = 1;
nodes = (
"155.398 0 LINE",
"239.975 534 LINE",
"143.975 534 LINE",
"59.398 0 LINE"
);
},
{
closed = 1;
nodes = (
"227.938 458 LINE",
"239.975 534 LINE",
"61.975 534 LINE",
"49.938 458 LINE"
);
},
{
closed = 1;
nodes = (
"227.596 620 OFFCURVE",
"251.556 645 OFFCURVE",
"257.099 680 CURVE SMOOTH",
"262.643 715 OFFCURVE",
"246.602 740 OFFCURVE",
"203.602 740 CURVE SMOOTH",
"160.602 740 OFFCURVE",
"136.643 715 OFFCURVE",
"131.099 680 CURVE SMOOTH",
"125.556 645 OFFCURVE",
"141.596 620 OFFCURVE",
"184.596 620 CURVE SMOOTH"
);
}
);
width = 308;
},
{
anchors = (
{
name = bottom;
position = "{98, 0}";
}
);
layerId = "BDDC71A3-6F27-45BF-8BFA-A352BA3DE3E7";
paths = (
{
closed = 1;
nodes = (
"113.932 0 LINE",
"196.292 520 LINE",
"164.292 520 LINE",
"81.932 0 LINE"
);
},
{
closed = 1;
nodes = (
"191.54 490 LINE",
"196.292 520 LINE",
"74.292 520 LINE",
"69.54 490 LINE"
);
},
{
closed = 1;
nodes = (
"199.615 642 OFFCURVE",
"213.674 655 OFFCURVE",
"216.841 675 CURVE SMOOTH",
"219.851 694 OFFCURVE",
"210.068 708 OFFCURVE",
"188.068 708 CURVE SMOOTH",
"166.068 708 OFFCURVE",
"151.851 694 OFFCURVE",
"148.841 675 CURVE SMOOTH",
"145.674 655 OFFCURVE",
"155.615 642 OFFCURVE",
"177.615 642 CURVE SMOOTH"
);
}
);
width = 280;
}
);
leftKerningGroup = lc_ShortStem;
rightKerningGroup = lc_ShortStem;
unicode = 0069;
},
{
color = 7;
glyphname = idotless;
widthMetricsKey = i;
layers = (
{
anchors = (
{
name = bottom;
position = "{154, 0}";
},
{
name = ogonek;
position = "{170, 10}";
},
{
name = top;
position = "{113, 520}";
}
);
layerId = "2089B89D-61CE-4065-A534-BEF0C3F67EB7";
name = public.background;
paths = (
{
closed = 1;
nodes = (
"170 0 LINE",
"170 520 LINE",
"138 520 LINE",
"138 0 LINE"
);
},
{
closed = 1;
nodes = (
"170 490 LINE",
"170 520 LINE",
"48 520 LINE",
"48 490 LINE"
);
}
);
width = 342;
},
{
anchors = (
{
name = bottom;
position = "{139, 0}";
},
{
name = ogonek;
position = "{208, 10}";
},
{
name = top;
position = "{203, 552}";
}
);
layerId = "48B7067D-14EA-4B3A-BE9A-22D6185653A2";
paths = (
{
closed = 1;
nodes = (
"230.286 0 LINE",
"317.714 552 LINE",
"135.714 552 LINE",
"48.286 0 LINE"
);
},
{
closed = 1;
nodes = (
"296.807 420 LINE",
"317.714 552 LINE",
"65.714 552 LINE",
"44.807 420 LINE"
);
}
);
width = 342;
},
{
anchors = (
{
name = bottom;
position = "{124, 0}";
},
{
name = ogonek;
position = "{173, 10}";
},
{
name = top;
position = "{176, 534}";
}
);
layerId = "38B5227D-F751-450D-B2B2-8DC56D0E577B";
paths = (
{
closed = 1;
nodes = (
"171.711 0 LINE",
"256.289 534 LINE",
"160.289 534 LINE",
"75.711 0 LINE"
);
},
{
closed = 1;
nodes = (
"244.251 458 LINE",
"256.289 534 LINE",
"78.289 534 LINE",
"66.251 458 LINE"
);
}
);
width = 308;
},
{
anchors = (
{
name = bottom;
position = "{113, 0}";
},
{
name = ogonek;
position = "{130, 10}";
},
{
name = top;
position = "{154, 520}";
}
);
layerId = "BDDC71A3-6F27-45BF-8BFA-A352BA3DE3E7";
paths = (
{
closed = 1;
nodes = (
"128.82 0 LINE",
"211.18 520 LINE",
"179.18 520 LINE",
"96.82 0 LINE"
);
},
{
closed = 1;
nodes = (
"206.428 490 LINE",
"211.18 520 LINE",
"89.18 520 LINE",
"84.428 490 LINE"
);
}
);
width = 280;
}
);
leftKerningGroup = lc_ShortStem;
rightKerningGroup = lc_ShortStem;
unicode = 0131;
},
{
color = 7;
glyphname = j;
layers = (
{
layerId = "48B7067D-14EA-4B3A-BE9A-22D6185653A2";
paths = (
{
closed = 1;
nodes = (
"-64.239 -206 LINE SMOOTH",
"111.761 -206 OFFCURVE",
"199.581 -144 OFFCURVE",
"225.873 22 CURVE SMOOTH",
"309.817 552 LINE",
"133.817 552 LINE",
"49.556 20 LINE SMOOTH",
"41.954 -28 OFFCURVE",
"11.836 -54 OFFCURVE",
"-36.164 -54 CURVE SMOOTH",
"-64.164 -54 LINE",
"-88.239 -206 LINE"
);
},
{
closed = 1;
nodes = (
"288.91 420 LINE",
"309.817 552 LINE",
"59.817 552 LINE",
"38.91 420 LINE"
);
},
{
closed = 1;
nodes = (
"274.786 596 OFFCURVE",
"310.804 634 OFFCURVE",
"319.199 687 CURVE SMOOTH",
"327.593 740 OFFCURVE",
"303.612 778 OFFCURVE",
"237.612 778 CURVE SMOOTH",
"171.612 778 OFFCURVE",
"135.593 740 OFFCURVE",
"127.199 687 CURVE SMOOTH",
"118.804 634 OFFCURVE",
"142.786 596 OFFCURVE",
"208.786 596 CURVE SMOOTH"
);
}
);
width = 346;
},
{
layerId = "38B5227D-F751-450D-B2B2-8DC56D0E577B";
paths = (
{
closed = 1;
nodes = (
"-51.546 -204 LINE SMOOTH",
"82.454 -204 OFFCURVE",
"140.581 -159 OFFCURVE",
"161.805 -25 CURVE SMOOTH",
"250.342 534 LINE",
"158.342 534 LINE",
"67.587 -39 LINE SMOOTH",
"59.668 -89 OFFCURVE",
"26.075 -118 OFFCURVE",
"-23.925 -118 CURVE SMOOTH",
"-79.925 -118 LINE",
"-93.546 -204 LINE"
);
},
{
closed = 1;
nodes = (
"238.304 458 LINE",
"250.342 534 LINE",
"74.342 534 LINE",
"62.304 458 LINE"
);
},
{
closed = 1;
nodes = (
"239.23 628 OFFCURVE",
"263.189 653 OFFCURVE",
"268.733 688 CURVE SMOOTH",
"274.276 723 OFFCURVE",
"258.236 748 OFFCURVE",
"215.236 748 CURVE SMOOTH",
"172.236 748 OFFCURVE",
"148.276 723 OFFCURVE",
"142.733 688 CURVE SMOOTH",
"137.189 653 OFFCURVE",
"153.23 628 OFFCURVE",
"196.23 628 CURVE SMOOTH"
);
}
);
width = 317;
},
{
layerId = "BDDC71A3-6F27-45BF-8BFA-A352BA3DE3E7";
paths = (
{
closed = 1;
nodes = (
"-37.854 -202 LINE SMOOTH",
"53.146 -202 OFFCURVE",
"95.798 -160 OFFCURVE",
"112.27 -56 CURVE SMOOTH",
"203.5 520 LINE",
"171.5 520 LINE",
"78.053 -70 LINE SMOOTH",
"67.283 -138 OFFCURVE",
"33.898 -172 OFFCURVE",
"-21.102 -172 CURVE SMOOTH",
"-90.102 -172 LINE",
"-94.854 -202 LINE"
);
},
{
closed = 1;
nodes = (
"198.748 490 LINE",
"203.5 520 LINE",
"79.5 520 LINE",
"74.748 490 LINE"
);
},
{
closed = 1;
nodes = (
"208.407 652 OFFCURVE",
"222.466 665 OFFCURVE",
"225.633 685 CURVE SMOOTH",
"228.643 704 OFFCURVE",
"218.86 718 OFFCURVE",
"196.86 718 CURVE SMOOTH",
"174.86 718 OFFCURVE",
"160.643 704 OFFCURVE",
"157.633 685 CURVE SMOOTH",
"154.466 665 OFFCURVE",
"164.407 652 OFFCURVE",
"186.407 652 CURVE SMOOTH"
);
}
);
width = 288;
},
{
layerId = "2089B89D-61CE-4065-A534-BEF0C3F67EB7";
name = public.background;
paths = (
{
closed = 1;
nodes = (
"51 -202 LINE SMOOTH",
"142 -202 OFFCURVE",
"178 -160 OFFCURVE",
"178 -56 CURVE SMOOTH",
"178 520 LINE",
"146 520 LINE",
"146 -70 LINE SMOOTH",
"146 -138 OFFCURVE",
"118 -172 OFFCURVE",
"63 -172 CURVE SMOOTH",
"-6 -172 LINE",
"-6 -202 LINE"
);
},
{
closed = 1;
nodes = (
"178 490 LINE",
"178 520 LINE",
"54 520 LINE",
"54 490 LINE"
);
},
{
closed = 1;
nodes = (
"162 652 OFFCURVE",
"174 665 OFFCURVE",
"174 685 CURVE SMOOTH",
"174 704 OFFCURVE",
"162 718 OFFCURVE",
"140 718 CURVE SMOOTH",
"118 718 OFFCURVE",
"106 704 OFFCURVE",
"106 685 CURVE SMOOTH",
"106 665 OFFCURVE",
"118 652 OFFCURVE",
"140 652 CURVE SMOOTH"
);
}
);
width = 346;
}
);
leftKerningGroup = lc_j;
rightKerningGroup = lc_j;
unicode = 006A;
},
{
color = 6;
glyphname = jdotless;
widthMetricsKey = j;
layers = (
{
anchors = (
{
name = bottom;
position = "{160, -300}";
},
{
name = top;
position = "{123, 520}";
}
);
layerId = "2089B89D-61CE-4065-A534-BEF0C3F67EB7";
name = public.background;
paths = (
{
closed = 1;
nodes = (
"51 -202 LINE SMOOTH",
"142 -202 OFFCURVE",
"178 -160 OFFCURVE",
"178 -56 CURVE SMOOTH",
"178 520 LINE",
"146 520 LINE",
"146 -70 LINE SMOOTH",
"146 -138 OFFCURVE",
"118 -172 OFFCURVE",
"63 -172 CURVE SMOOTH",
"-6 -172 LINE",
"-6 -202 LINE"
);
},
{
closed = 1;
nodes = (
"178 490 LINE",
"178 520 LINE",
"54 520 LINE",
"54 490 LINE"
);
}
);
width = 346;
},
{
anchors = (
{
name = bottom;
position = "{69, -300}";
},
{
name = top;
position = "{205, 552}";
}
);
layerId = "48B7067D-14EA-4B3A-BE9A-22D6185653A2";
paths = (
{
closed = 1;
nodes = (
"-46.341 -206 LINE SMOOTH",
"129.659 -206 OFFCURVE",
"217.479 -144 OFFCURVE",
"243.77 22 CURVE SMOOTH",
"327.714 552 LINE",
"151.714 552 LINE",
"67.454 20 LINE SMOOTH",
"59.851 -28 OFFCURVE",
"29.733 -54 OFFCURVE",
"-18.267 -54 CURVE SMOOTH",
"-46.267 -54 LINE",
"-70.341 -206 LINE"
);
},
{
closed = 1;
nodes = (
"306.807 420 LINE",
"327.714 552 LINE",
"77.714 552 LINE",
"56.807 420 LINE"
);
}
);
width = 346;
},
{
anchors = (
{
name = bottom;
position = "{70, -300}";
},
{
name = top;
position = "{182, 534}";
}
);
layerId = "38B5227D-F751-450D-B2B2-8DC56D0E577B";
paths = (
{
closed = 1;
nodes = (
"-34.599 -204 LINE SMOOTH",
"99.401 -204 OFFCURVE",
"157.528 -159 OFFCURVE",
"178.752 -25 CURVE SMOOTH",
"267.289 534 LINE",
"175.289 534 LINE",
"84.534 -39 LINE SMOOTH",
"76.615 -89 OFFCURVE",
"43.022 -118 OFFCURVE",
"-6.978 -118 CURVE SMOOTH",
"-62.978 -118 LINE",
"-76.599 -204 LINE"
);
},
{
closed = 1;
nodes = (
"255.251 458 LINE",
"267.289 534 LINE",
"91.289 534 LINE",
"79.251 458 LINE"
);
}
);
width = 317;
},
{
anchors = (
{
name = bottom;
position = "{71, -300}";
},
{
name = top;
position = "{164, 520}";
}
);
layerId = "BDDC71A3-6F27-45BF-8BFA-A352BA3DE3E7";
paths = (
{
closed = 1;
nodes = (
"-22.174 -202 LINE SMOOTH",
"68.826 -202 OFFCURVE",
"111.479 -160 OFFCURVE",
"127.951 -56 CURVE SMOOTH",
"219.18 520 LINE",
"187.18 520 LINE",
"93.733 -70 LINE SMOOTH",
"82.963 -138 OFFCURVE",
"49.578 -172 OFFCURVE",
"-5.422 -172 CURVE SMOOTH",
"-74.422 -172 LINE",
"-79.174 -202 LINE"
);
},
{
closed = 1;
nodes = (
"214.428 490 LINE",
"219.18 520 LINE",
"95.18 520 LINE",
"90.428 490 LINE"
);
}
);
width = 288;
}
);
leftKerningGroup = lc_j;
rightKerningGroup = lc_j;
unicode = 0237;
},
{
color = 7;
glyphname = k;
leftMetricsKey = h;
layers = (
{
anchors = (
{
name = bottom;
position = "{299, 0}";
},
{
name = top;
position = "{124, 730}";
}
);
layerId = "2089B89D-61CE-4065-A534-BEF0C3F67EB7";
name = public.background;
paths = (
{
closed = 1;
nodes = (
"492 0 LINE",
"202 302 LINE",
"203 279 LINE",
"434 520 LINE",
"395 520 LINE",
"133 246 LINE",
"215 246 LINE",
"451 0 LINE"
);
},
{
closed = 1;
nodes = (
"140 0 LINE",
"140 730 LINE",
"108 730 LINE",
"108 0 LINE"
);
}
);
width = 673;
},
{
anchors = (
{
name = bottom;
position = "{300, 0}";
},
{
name = top;
position = "{227, 730}";
}
);
layerId = "48B7067D-14EA-4B3A-BE9A-22D6185653A2";
paths = (
{
closed = 1;
nodes = (
"615.19 0 LINE",
"433.683 363 LINE",
"419.745 275 LINE",
"668.618 552 LINE",
"478.618 552 LINE",
"216.053 258 LINE",
"290.053 258 LINE",
"412.19 0 LINE"
);
},
{
closed = 1;
nodes = (
"202.19 0 LINE",
"317.81 730 LINE",
"135.81 730 LINE",
"20.19 0 LINE"
);
}
);
width = 673;
},
{
anchors = (
{
name = bottom;
position = "{279, 0}";
},
{
name = top;
position = "{212, 730}";
}
);
layerId = "38B5227D-F751-450D-B2B2-8DC56D0E577B";
paths = (
{
closed = 1;
nodes = (
"527.19 0 LINE",
"310.14 328 LINE",
"295.062 277 LINE",
"557.767 534 LINE",
"456.767 534 LINE",
"166.627 249 LINE",
"254.627 249 LINE",
"416.19 0 LINE"
);
},
{
closed = 1;
nodes = (
"144.19 0 LINE",
"259.81 730 LINE",
"163.81 730 LINE",
"48.19 0 LINE"
);
}
);
width = 587;
},
{
anchors = (
{
name = bottom;
position = "{256, 0}";
},
{
name = top;
position = "{197, 730}";
}
);
layerId = "BDDC71A3-6F27-45BF-8BFA-A352BA3DE3E7";
paths = (
{
closed = 1;
nodes = (
"449.19 0 LINE",
"207.022 302 LINE",
"204.379 279 LINE",
"473.55 520 LINE",
"434.55 520 LINE",
"129.152 246 LINE",
"211.152 246 LINE",
"408.19 0 LINE"
);
},
{
closed = 1;
nodes = (
"97.19 0 LINE",
"212.81 730 LINE",
"180.81 730 LINE",
"65.19 0 LINE"
);
}
);
width = 517;
}
);
leftKerningGroup = lc_LongStem;
rightKerningGroup = lc_k;
unicode = 006B;
},
{
color = 7;
glyphname = l;
layers = (
{
anchors = (
{
name = bottom;
position = "{126, 0}";
},
{
name = center;
position = "{126, 480}";
},
{
name = top;
position = "{88, 730}";
},
{
name = topright;
position = "{144, 534}";
}
);
layerId = "2089B89D-61CE-4065-A534-BEF0C3F67EB7";
name = public.background;
paths = (
{
closed = 1;
nodes = (
"142 0 LINE",
"142 730 LINE",
"110 730 LINE",
"110 0 LINE"
);
},
{
closed = 1;
nodes = (
"142 700 LINE",
"142 730 LINE",
"28 730 LINE",
"28 700 LINE"
);
}
);
width = 324;
},
{
anchors = (
{
name = bottom;
position = "{107, 0}";
},
{
name = center;
position = "{183, 480}";
},
{
name = top;
position = "{196, 730}";
},
{
name = topright;
position = "{267, 534}";
}
);
layerId = "48B7067D-14EA-4B3A-BE9A-22D6185653A2";
paths = (
{
closed = 1;
nodes = (
"198.19 0 LINE",
"313.81 730 LINE",
"131.81 730 LINE",
"16.19 0 LINE"
);
},
{
closed = 1;
nodes = (
"292.904 598 LINE",
"313.81 730 LINE",
"69.81 730 LINE",
"48.904 598 LINE"
);
}
);
width = 324;
},
{
anchors = (
{
name = bottom;
position = "{88, 0}";
},
{
name = center;
position = "{164, 480}";
},
{
name = top;
position = "{177, 730}";
},
{
name = topright;
position = "{221, 534}";
}
);
layerId = "38B5227D-F751-450D-B2B2-8DC56D0E577B";
paths = (
{
closed = 1;
nodes = (
"136.19 0 LINE",
"251.81 730 LINE",
"155.81 730 LINE",
"40.19 0 LINE"
);
},
{
closed = 1;
nodes = (
"239.773 654 LINE",
"251.81 730 LINE",
"81.81 730 LINE",
"69.773 654 LINE"
);
}
);
width = 286;
},
{
anchors = (
{
name = bottom;
position = "{68, 0}";
},
{
name = center;
position = "{144, 480}";
},
{
name = top;
position = "{146, 730}";
},
{
name = topright;
position = "{171, 534}";
}
);
layerId = "BDDC71A3-6F27-45BF-8BFA-A352BA3DE3E7";
paths = (
{
closed = 1;
nodes = (
"84.19 0 LINE",
"199.81 730 LINE",
"167.81 730 LINE",
"52.19 0 LINE"
);
},
{
closed = 1;
nodes = (
"195.059 700 LINE",
"199.81 730 LINE",
"85.81 730 LINE",
"81.059 700 LINE"
);
}
);
width = 250;
}
);
leftKerningGroup = lc_l;
rightKerningGroup = lc_LongStem;
unicode = 006C;
},
{
color = 7;
glyphname = lslash;
widthMetricsKey = l;
layers = (
{
layerId = "2089B89D-61CE-4065-A534-BEF0C3F67EB7";
name = public.background;
paths = (
{
closed = 1;
nodes = (
"116 310 LINE",
"116 341 LINE",
"38 294 LINE",
"38 263 LINE"
);
},
{
closed = 1;
nodes = (
"211 367 LINE",
"211 398 LINE",
"136 353 LINE",
"136 322 LINE"
);
}
);
width = 324;
},
{
components = (
{
name = l;
alignment = -1;
}
);
layerId = "48B7067D-14EA-4B3A-BE9A-22D6185653A2";
paths = (
{
closed = 1;
nodes = (
"118.944 251 LINE",
"139.851 383 LINE",
"0.764 313 LINE",
"-20.143 181 LINE"
);
},
{
closed = 1;
nodes = (
"313.991 346 LINE",
"334.897 478 LINE",
"200.286 411 LINE",
"179.379 279 LINE"
);
}
);
width = 324;
},
{
components = (
{
name = l;
alignment = -1;
}
);
layerId = "38B5227D-F751-450D-B2B2-8DC56D0E577B";
paths = (
{
closed = 1;
nodes = (
"104.696 281 LINE",
"116.099 353 LINE",
"8.071 296 LINE",
"-3.332 224 LINE"
);
},
{
closed = 1;
nodes = (
"273.158 366 LINE",
"284.562 438 LINE",
"176.534 381 LINE",
"165.13 309 LINE"
);
}
);
width = 286;
},
{
components = (
{
name = l;
alignment = -1;
}
);
layerId = "BDDC71A3-6F27-45BF-8BFA-A352BA3DE3E7";
paths = (
{
closed = 1;
nodes = (
"107.289 310 LINE",
"112.199 341 LINE",
"26.755 294 LINE",
"21.845 263 LINE"
);
},
{
closed = 1;
nodes = (
"211.317 367 LINE",
"216.227 398 LINE",
"134.099 353 LINE",
"129.189 322 LINE"
);
}
);
width = 250;
}
);
leftKerningGroup = lc_lslash;
rightKerningGroup = lc_lslash;
unicode = 0142;
},
{
color = 7;
glyphname = m;
leftMetricsKey = n;
rightMetricsKey = n;
layers = (
{
layerId = "48B7067D-14EA-4B3A-BE9A-22D6185653A2";
paths = (
{
closed = 1;
nodes = (
"202.86 0 LINE",
"253.068 317 LINE SMOOTH",
"261.463 370 OFFCURVE",
"297.481 408 OFFCURVE",
"348.481 408 CURVE SMOOTH",
"399.481 408 OFFCURVE",
"421.463 370 OFFCURVE",
"413.385 319 CURVE SMOOTH",
"362.86 0 LINE",
"544.86 0 LINE",
"595.068 317 LINE SMOOTH",
"603.463 370 OFFCURVE",
"639.481 408 OFFCURVE",
"690.481 408 CURVE SMOOTH",
"741.481 408 OFFCURVE",
"763.463 370 OFFCURVE",
"755.385 319 CURVE SMOOTH",
"704.86 0 LINE",
"886.86 0 LINE",
"936.593 314 LINE SMOOTH",
"963.677 485 OFFCURVE",
"908.14 570 OFFCURVE",
"785.14 570 CURVE SMOOTH",
"777.14 570 LINE SMOOTH",
"654.14 570 OFFCURVE",
"575.677 485 OFFCURVE",
"548.593 314 CURVE",
"590.593 314 LINE",
"617.677 485 OFFCURVE",
"566.14 570 OFFCURVE",
"443.14 570 CURVE SMOOTH",
"435.14 570 LINE SMOOTH",
"312.14 570 OFFCURVE",
"233.677 485 OFFCURVE",
"206.593 314 CURVE",
"214.593 314 LINE",
"252.289 552 LINE",
"108.289 552 LINE",
"20.86 0 LINE"
);
}
);
width = 988;
},
{
layerId = "38B5227D-F751-450D-B2B2-8DC56D0E577B";
paths = (
{
closed = 1;
nodes = (
"144.444 0 LINE",
"195.127 320 LINE SMOOTH",
"209.224 409 OFFCURVE",
"269.618 462 OFFCURVE",
"348.618 462 CURVE SMOOTH",
"424.618 462 OFFCURVE",
"461.699 412 OFFCURVE",
"448.078 326 CURVE SMOOTH",
"396.444 0 LINE",
"492.444 0 LINE",
"543.127 320 LINE SMOOTH",
"557.224 409 OFFCURVE",
"617.618 462 OFFCURVE",
"696.618 462 CURVE SMOOTH",
"772.618 462 OFFCURVE",
"809.699 412 OFFCURVE",
"796.078 326 CURVE SMOOTH",
"744.444 0 LINE",
"840.444 0 LINE",
"888.752 305 LINE SMOOTH",
"913.301 460 OFFCURVE",
"865.556 550 OFFCURVE",
"739.556 550 CURVE SMOOTH",
"735.556 550 LINE SMOOTH",
"609.556 550 OFFCURVE",
"533.301 460 OFFCURVE",
"508.752 305 CURVE",
"536.752 305 LINE",
"561.301 460 OFFCURVE",
"515.556 550 OFFCURVE",
"389.556 550 CURVE SMOOTH",
"385.556 550 LINE SMOOTH",
"259.556 550 OFFCURVE",
"185.301 460 OFFCURVE",
"160.752 305 CURVE",
"172.752 305 LINE",
"209.022 534 LINE",
"133.022 534 LINE",
"48.444 0 LINE"
);
}
);
width = 968;
},
{
layerId = "BDDC71A3-6F27-45BF-8BFA-A352BA3DE3E7";
paths = (
{
closed = 1;
nodes = (
"97.711 0 LINE",
"147.761 316 LINE SMOOTH",
"165.025 425 OFFCURVE",
"238.537 504 OFFCURVE",
"344.537 504 CURVE SMOOTH",
"448.537 504 OFFCURVE",
"487.183 426 OFFCURVE",
"470.394 320 CURVE SMOOTH",
"419.711 0 LINE",
"451.711 0 LINE",
"501.761 316 LINE SMOOTH",
"519.025 425 OFFCURVE",
"592.537 504 OFFCURVE",
"698.537 504 CURVE SMOOTH",
"802.537 504 OFFCURVE",
"841.183 426 OFFCURVE",
"824.394 320 CURVE SMOOTH",
"773.711 0 LINE",
"805.711 0 LINE",
"855.127 312 LINE SMOOTH",
"875.717 442 OFFCURVE",
"830.289 534 OFFCURVE",
"706.289 534 CURVE",
"704.289 534 LINE",
"578.289 534 OFFCURVE",
"502.925 437 OFFCURVE",
"483.127 312 CURVE",
"499.127 312 LINE",
"519.717 442 OFFCURVE",
"476.289 534 OFFCURVE",
"352.289 534 CURVE",
"350.289 534 LINE",
"224.289 534 OFFCURVE",
"148.925 437 OFFCURVE",
"129.127 312 CURVE",
"141.127 312 LINE",
"174.23 521 LINE",
"148.23 521 LINE",
"65.711 0 LINE"
);
}
);
width = 950;
},
{
layerId = "2089B89D-61CE-4065-A534-BEF0C3F67EB7";
name = public.background;
paths = (
{
closed = 1;
nodes = (
"140 0 LINE",
"140 316 LINE SMOOTH",
"140 425 OFFCURVE",
"201 504 OFFCURVE",
"307 504 CURVE SMOOTH",
"411 504 OFFCURVE",
"462 426 OFFCURVE",
"462 320 CURVE SMOOTH",
"462 0 LINE",
"494 0 LINE",
"494 316 LINE SMOOTH",
"494 425 OFFCURVE",
"555 504 OFFCURVE",
"661 504 CURVE SMOOTH",
"765 504 OFFCURVE",
"816 426 OFFCURVE",
"816 320 CURVE SMOOTH",
"816 0 LINE",
"848 0 LINE",
"848 312 LINE SMOOTH",
"848 442 OFFCURVE",
"788 534 OFFCURVE",
"664 534 CURVE",
"662 534 LINE",
"536 534 OFFCURVE",
"476 437 OFFCURVE",
"476 312 CURVE",
"492 312 LINE",
"492 442 OFFCURVE",
"434 534 OFFCURVE",
"310 534 CURVE",
"308 534 LINE",
"182 534 OFFCURVE",
"122 437 OFFCURVE",
"122 312 CURVE",
"134 312 LINE",
"134 521 LINE",
"108 521 LINE",
"108 0 LINE"
);
}
);
width = 988;
}
);
leftKerningGroup = lc_ShortStem;
rightKerningGroup = lc_Shoulder;
unicode = 006D;
},
{
color = 7;
glyphname = n;
layers = (
{
anchors = (
{
name = bottom;
position = "{316, 0}";
},
{
name = top;
position = "{321, 520}";
}
);
layerId = "2089B89D-61CE-4065-A534-BEF0C3F67EB7";
name = public.background;
paths = (
{
closed = 1;
nodes = (
"140 0 LINE",
"140 316 LINE SMOOTH",
"140 428 OFFCURVE",
"210 504 OFFCURVE",
"322 504 CURVE SMOOTH",
"432 504 OFFCURVE",
"492 429 OFFCURVE",
"492 320 CURVE SMOOTH",
"492 0 LINE",
"524 0 LINE",
"524 312 LINE SMOOTH",
"524 445 OFFCURVE",
"455 534 OFFCURVE",
"325 534 CURVE",
"323 534 LINE",
"191 534 OFFCURVE",
"122 440 OFFCURVE",
"122 312 CURVE",
"134 312 LINE",
"134 520 LINE",
"108 520 LINE",
"108 0 LINE"
);
}
);
width = 656;
},
{
anchors = (
{
name = bottom;
position = "{288, 0}";
},
{
name = top;
position = "{377, 552}";
}
);
layerId = "48B7067D-14EA-4B3A-BE9A-22D6185653A2";
paths = (
{
closed = 1;
nodes = (
"202.86 0 LINE",
"253.385 319 LINE SMOOTH",
"261.779 372 OFFCURVE",
"301.481 408 OFFCURVE",
"353.481 408 CURVE SMOOTH",
"405.481 408 OFFCURVE",
"431.779 372 OFFCURVE",
"423.702 321 CURVE SMOOTH",
"372.86 0 LINE",
"554.86 0 LINE",
"604.91 316 LINE SMOOTH",
"632.152 488 OFFCURVE",
"573.14 570 OFFCURVE",
"448.14 570 CURVE SMOOTH",
"440.14 570 LINE SMOOTH",
"315.14 570 OFFCURVE",
"233.994 487 OFFCURVE",
"206.752 315 CURVE",
"214.752 315 LINE",
"252.289 552 LINE",
"108.289 552 LINE",
"20.86 0 LINE"
);
}
);
width = 656;
},
{
anchors = (
{
name = bottom;
position = "{280, 0}";
},
{
name = top;
position = "{369, 534}";
}
);
layerId = "38B5227D-F751-450D-B2B2-8DC56D0E577B";
paths = (
{
closed = 1;
nodes = (
"144.444 0 LINE",
"194.969 319 LINE SMOOTH",
"208.59 405 OFFCURVE",
"274.618 462 OFFCURVE",
"358.618 462 CURVE SMOOTH",
"439.618 462 OFFCURVE",
"481.065 408 OFFCURVE",
"467.919 325 CURVE SMOOTH",
"416.444 0 LINE",
"512.444 0 LINE",
"560.752 305 LINE SMOOTH",
"585.776 463 OFFCURVE",
"535.556 550 OFFCURVE",
"401.556 550 CURVE SMOOTH",
"397.556 550 LINE SMOOTH",
"263.556 550 OFFCURVE",
"185.776 463 OFFCURVE",
"160.752 305 CURVE",
"172.752 305 LINE",
"209.022 534 LINE",
"133.022 534 LINE",
"48.444 0 LINE"
);
}
);
width = 640;
},
{
anchors = (
{
name = bottom;
position = "{274, 0}";
},
{
name = top;
position = "{361, 520}";
}
);
layerId = "BDDC71A3-6F27-45BF-8BFA-A352BA3DE3E7";
paths = (
{
closed = 1;
nodes = (
"97.711 0 LINE",
"147.761 316 LINE SMOOTH",
"165.5 428 OFFCURVE",
"247.537 504 OFFCURVE",
"359.537 504 CURVE SMOOTH",
"469.537 504 OFFCURVE",
"517.658 429 OFFCURVE",
"500.394 320 CURVE SMOOTH",
"449.711 0 LINE",
"481.711 0 LINE",
"531.127 312 LINE SMOOTH",
"552.192 445 OFFCURVE",
"497.289 534 OFFCURVE",
"367.289 534 CURVE",
"365.289 534 LINE",
"233.289 534 OFFCURVE",
"149.401 440 OFFCURVE",
"129.127 312 CURVE",
"141.127 312 LINE",
"174.071 520 LINE",
"148.071 520 LINE",
"65.711 0 LINE"
);
}
);
width = 626;
}
);
leftKerningGroup = lc_ShortStem;
rightKerningGroup = lc_Shoulder;
unicode = 006E;
},
{
color = 7;
glyphname = eng;
leftMetricsKey = n;
rightMetricsKey = n;
layers = (
{
layerId = "2089B89D-61CE-4065-A534-BEF0C3F67EB7";
name = public.background;
paths = (
{
closed = 1;
nodes = (
"180 -202 LINE SMOOTH",
"271 -202 OFFCURVE",
"307 -160 OFFCURVE",
"307 -56 CURVE SMOOTH",
"307 20 LINE",
"275 20 LINE",
"275 -70 LINE SMOOTH",
"275 -138 OFFCURVE",
"247 -172 OFFCURVE",
"192 -172 CURVE SMOOTH",
"108 -172 LINE",
"108 -202 LINE"
);
}
);
width = 439;
},
{
components = (
{
name = n;
alignment = -1;
}
);
layerId = "48B7067D-14EA-4B3A-BE9A-22D6185653A2";
paths = (
{
closed = 1;
nodes = (
"276.55 -204 LINE SMOOTH",
"448.55 -204 OFFCURVE",
"532.37 -142 OFFCURVE",
"554.86 0 CURVE SMOOTH",
"560.087 33 LINE",
"378.087 33 LINE",
"372.86 0 LINE SMOOTH",
"367.792 -32 OFFCURVE",
"352.624 -52 OFFCURVE",
"304.624 -52 CURVE SMOOTH",
"258.624 -52 LINE",
"234.55 -204 LINE"
);
}
);
width = 656;
},
{
components = (
{
name = n;
alignment = -1;
}
);
layerId = "38B5227D-F751-450D-B2B2-8DC56D0E577B";
paths = (
{
closed = 1;
nodes = (
"285.767 -200 LINE SMOOTH",
"416.767 -200 OFFCURVE",
"489.32 -146 OFFCURVE",
"510.069 -15 CURVE SMOOTH",
"515.612 20 LINE",
"419.612 20 LINE",
"411.851 -29 LINE SMOOTH",
"403.298 -83 OFFCURVE",
"367.388 -114 OFFCURVE",
"313.388 -114 CURVE SMOOTH",
"243.388 -114 LINE",
"229.767 -200 LINE"
);
}
);
width = 640;
},
{
components = (
{
name = n;
alignment = -1;
}
);
layerId = "BDDC71A3-6F27-45BF-8BFA-A352BA3DE3E7";
paths = (
{
closed = 1;
nodes = (
"322.718 -202 LINE SMOOTH",
"413.718 -202 OFFCURVE",
"456.37 -160 OFFCURVE",
"472.842 -56 CURVE SMOOTH",
"484.879 20 LINE",
"452.879 20 LINE",
"438.624 -70 LINE SMOOTH",
"427.854 -138 OFFCURVE",
"394.469 -172 OFFCURVE",
"339.469 -172 CURVE SMOOTH",
"255.469 -172 LINE",
"250.718 -202 LINE"
);
}
);
width = 626;
}
);
leftKerningGroup = lc_ShortStem;
rightKerningGroup = lc_Shoulder;
unicode = 014B;
},
{
color = 7;
glyphname = o;
layers = (
{
anchors = (
{
name = bottom;
position = "{327, 0}";
},
{
name = center;
position = "{327, 260}";
},
{
name = ogonek;
position = "{440, 9}";
},
{
name = top;
position = "{327, 520}";
}
);
layerId = "2089B89D-61CE-4065-A534-BEF0C3F67EB7";
name = public.background;
paths = (
{
closed = 1;
nodes = (
"498 -16 OFFCURVE",
"592 122 OFFCURVE",
"592 257 CURVE SMOOTH",
"592 263 LINE SMOOTH",
"592 402 OFFCURVE",
"494 536 OFFCURVE",
"327 536 CURVE SMOOTH",
"160 536 OFFCURVE",
"62 402 OFFCURVE",
"62 263 CURVE SMOOTH",
"62 257 LINE SMOOTH",
"62 122 OFFCURVE",
"156 -16 OFFCURVE",
"327 -16 CURVE SMOOTH"
);
},
{
closed = 1;
nodes = (
"176 14 OFFCURVE",
"94 132 OFFCURVE",
"94 260 CURVE SMOOTH",
"94 392 OFFCURVE",
"180 506 OFFCURVE",
"327 506 CURVE SMOOTH",
"474 506 OFFCURVE",
"560 392 OFFCURVE",
"560 260 CURVE SMOOTH",
"560 132 OFFCURVE",
"478 14 OFFCURVE",
"327 14 CURVE SMOOTH"
);
}
);
width = 682;
},
{
anchors = (
{
name = bottom;
position = "{296, 0}";
},
{
name = center;
position = "{338, 267}";
},
{
name = ogonek;
position = "{415, 12}";
},
{
name = top;
position = "{383, 552}";
}
);
layerId = "48B7067D-14EA-4B3A-BE9A-22D6185653A2";
paths = (
{
closed = 1;
nodes = (
"487.534 -20 OFFCURVE",
"619.808 108 OFFCURVE",
"644.199 262 CURVE SMOOTH",
"648 286 LINE SMOOTH",
"673.5 447 OFFCURVE",
"574.298 572 OFFCURVE",
"386.298 572 CURVE SMOOTH",
"198.298 572 OFFCURVE",
"59.5 447 OFFCURVE",
"34 286 CURVE SMOOTH",
"30.199 262 LINE SMOOTH",
"5.808 108 OFFCURVE",
"97.534 -20 OFFCURVE",
"292.534 -20 CURVE SMOOTH"
);
},
{
closed = 1;
nodes = (
"233.609 132 OFFCURVE",
"200.953 191 OFFCURVE",
"214.099 274 CURVE SMOOTH",
"227.562 359 OFFCURVE",
"282.224 420 OFFCURVE",
"362.224 420 CURVE SMOOTH",
"442.224 420 OFFCURVE",
"477.562 359 OFFCURVE",
"464.099 274 CURVE SMOOTH",
"450.953 191 OFFCURVE",
"399.609 132 OFFCURVE",
"316.609 132 CURVE SMOOTH"
);
}
);
width = 682;
},
{
anchors = (
{
name = bottom;
position = "{294, 0}";
},
{
name = center;
position = "{337, 267}";
},
{
name = ogonek;
position = "{411, 10}";
},
{
name = top;
position = "{379, 534}";
}
);
layerId = "38B5227D-F751-450D-B2B2-8DC56D0E577B";
paths = (
{
closed = 1;
nodes = (
"477.435 -18 OFFCURVE",
"599.767 123 OFFCURVE",
"621.149 258 CURVE SMOOTH",
"624 276 LINE SMOOTH",
"645.699 413 OFFCURVE",
"562.714 552 OFFCURVE",
"381.714 552 CURVE SMOOTH",
"200.714 552 OFFCURVE",
"73.699 413 OFFCURVE",
"52 276 CURVE SMOOTH",
"49.149 258 LINE SMOOTH",
"27.767 123 OFFCURVE",
"105.435 -18 OFFCURVE",
"291.435 -18 CURVE SMOOTH"
);
},
{
closed = 1;
nodes = (
"185.056 68 OFFCURVE",
"128.835 155 OFFCURVE",
"146.575 267 CURVE SMOOTH",
"164.63 381 OFFCURVE",
"251.093 466 OFFCURVE",
"368.093 466 CURVE SMOOTH",
"485.093 466 OFFCURVE",
"544.63 381 OFFCURVE",
"526.575 267 CURVE SMOOTH",
"508.835 155 OFFCURVE",
"425.056 68 OFFCURVE",
"305.056 68 CURVE SMOOTH"
);
}
);
width = 676;
},
{
anchors = (
{
name = bottom;
position = "{285, 0}";
},
{
name = center;
position = "{326, 260}";
},
{
name = ogonek;
position = "{399, 9}";
},
{
name = top;
position = "{367, 520}";
}
);
layerId = "BDDC71A3-6F27-45BF-8BFA-A352BA3DE3E7";
paths = (
{
closed = 1;
nodes = (
"453.019 -16 OFFCURVE",
"568.876 122 OFFCURVE",
"590.258 257 CURVE SMOOTH",
"591.208 263 LINE SMOOTH",
"613.224 402 OFFCURVE",
"536.447 536 OFFCURVE",
"369.447 536 CURVE SMOOTH",
"202.447 536 OFFCURVE",
"83.224 402 OFFCURVE",
"61.208 263 CURVE SMOOTH",
"60.258 257 LINE SMOOTH",
"38.876 122 OFFCURVE",
"111.019 -16 OFFCURVE",
"282.019 -16 CURVE SMOOTH"
);
},
{
closed = 1;
nodes = (
"135.77 14 OFFCURVE",
"72.46 132 OFFCURVE",
"92.733 260 CURVE SMOOTH",
"113.64 392 OFFCURVE",
"217.695 506 OFFCURVE",
"364.695 506 CURVE SMOOTH",
"511.695 506 OFFCURVE",
"579.64 392 OFFCURVE",
"558.733 260 CURVE SMOOTH",
"538.46 132 OFFCURVE",
"437.77 14 OFFCURVE",
"286.77 14 CURVE SMOOTH"
);
}
);
width = 654;
}
);
leftKerningGroup = lc_Round;
rightKerningGroup = lc_Round;
unicode = 006F;
},
{
color = 6;
glyphname = oslash;
leftMetricsKey = o;
rightMetricsKey = o;
layers = (
{
layerId = "2089B89D-61CE-4065-A534-BEF0C3F67EB7";
name = public.background;
paths = (
{
closed = 1;
nodes = (
"96 -36 LINE",
"526 572 LINE",
"492 572 LINE",
"62 -36 LINE"
);
}
);
width = 616;
},
{
components = (
{
name = o;
transform = "{1, 0, 0, 1, 16, 0}";
alignment = -1;
}
);
guideLines = (
{
position = "{0, 586}";
}
);
layerId = "48B7067D-14EA-4B3A-BE9A-22D6185653A2";
paths = (
{
closed = 1;
nodes = (
"130.031 -66 LINE",
"677.515 600 LINE",
"573.515 600 LINE",
"26.031 -66 LINE"
);
}
);
width = 708;
},
{
components = (
{
name = o;
transform = "{1, 0, 0, 1, 26, 0}";
alignment = -1;
}
);
guideLines = (
{
position = "{0, 586}";
}
);
layerId = "38B5227D-F751-450D-B2B2-8DC56D0E577B";
paths = (
{
closed = 1;
nodes = (
"127.357 -52 LINE",
"672.407 586 LINE",
"590.407 586 LINE",
"45.357 -52 LINE"
);
}
);
width = 721;
},
{
components = (
{
name = o;
transform = "{1, 0, 0, 1, 7, 0}";
alignment = -1;
}
);
layerId = "BDDC71A3-6F27-45BF-8BFA-A352BA3DE3E7";
paths = (
{
closed = 1;
nodes = (
"90 -36 LINE",
"616.298 572 LINE",
"582.298 572 LINE",
"56 -36 LINE"
);
}
);
width = 676;
}
);
leftKerningGroup = lc_Round;
rightKerningGroup = lc_Round;
unicode = 00F8;
},
{
color = 7;
glyphname = oe;
leftMetricsKey = o;
rightMetricsKey = e;
layers = (
{
layerId = "48B7067D-14EA-4B3A-BE9A-22D6185653A2";
paths = (
{
closed = 1;
nodes = (
"481.851 -18 OFFCURVE",
"582.283 111 OFFCURVE",
"610.674 265 CURVE",
"496.674 265 LINE",
"474.342 124 OFFCURVE",
"528.534 -20 OFFCURVE",
"714.534 -20 CURVE SMOOTH",
"855.534 -20 OFFCURVE",
"960.364 61 OFFCURVE",
"1002.261 174 CURVE",
"836.261 174 LINE",
"818.509 144 OFFCURVE",
"781.658 126 OFFCURVE",
"731.658 126 CURVE SMOOTH",
"645.658 126 OFFCURVE",
"617.845 184 OFFCURVE",
"632.258 275 CURVE SMOOTH",
"648.096 375 OFFCURVE",
"700.174 426 OFFCURVE",
"773.174 426 CURVE SMOOTH",
"846.174 426 OFFCURVE",
"876.096 375 OFFCURVE",
"861.366 282 CURVE",
"930.702 322 LINE",
"631.702 322 LINE",
"616.814 228 LINE",
"1020.814 228 LINE",
"1029.683 284 LINE SMOOTH",
"1053.758 436 OFFCURVE",
"979.298 572 OFFCURVE",
"802.298 572 CURVE SMOOTH",
"623.298 572 OFFCURVE",
"523.441 434 OFFCURVE",
"500.158 287 CURVE",
"614.158 287 LINE",
"639.342 446 OFFCURVE",
"568.298 572 OFFCURVE",
"380.298 572 CURVE SMOOTH",
"192.298 572 OFFCURVE",
"59.342 446 OFFCURVE",
"34.158 287 CURVE SMOOTH",
"30.357 263 LINE SMOOTH",
"6.283 111 OFFCURVE",
"91.851 -18 OFFCURVE",
"286.851 -18 CURVE SMOOTH"
);
},
{
closed = 1;
nodes = (
"233.926 134 OFFCURVE",
"201.429 194 OFFCURVE",
"214.258 275 CURVE SMOOTH",
"227.404 358 OFFCURVE",
"282.224 420 OFFCURVE",
"362.224 420 CURVE SMOOTH",
"442.224 420 OFFCURVE",
"477.404 358 OFFCURVE",
"464.258 275 CURVE SMOOTH",
"451.429 194 OFFCURVE",
"399.926 134 OFFCURVE",
"316.926 134 CURVE SMOOTH"
);
}
);
width = 1061;
},
{
layerId = "38B5227D-F751-450D-B2B2-8DC56D0E577B";
paths = (
{
closed = 1;
nodes = (
"485.435 -18 OFFCURVE",
"581.876 130 OFFCURVE",
"601.991 257 CURVE",
"537.991 257 LINE",
"517.559 128 OFFCURVE",
"551.435 -18 OFFCURVE",
"744.435 -18 CURVE SMOOTH",
"870.435 -18 OFFCURVE",
"971.413 45 OFFCURVE",
"1011.994 156 CURVE",
"921.994 156 LINE",
"903.075 106 OFFCURVE",
"842.056 68 OFFCURVE",
"758.056 68 CURVE SMOOTH",
"637.056 68 OFFCURVE",
"596.519 153 OFFCURVE",
"614.575 267 CURVE SMOOTH",
"633.106 384 OFFCURVE",
"702.093 466 OFFCURVE",
"815.093 466 CURVE SMOOTH",
"922.093 466 OFFCURVE",
"966.848 395 OFFCURVE",
"948.95 282 CURVE",
"977.127 321 LINE",
"615.127 321 LINE",
"603.724 249 LINE",
"1035.724 249 LINE",
"1042.534 292 LINE SMOOTH",
"1063.916 427 OFFCURVE",
"999.714 552 OFFCURVE",
"828.714 552 CURVE SMOOTH",
"649.714 552 OFFCURVE",
"562.857 414 OFFCURVE",
"541.158 277 CURVE",
"605.158 277 LINE",
"626.382 411 OFFCURVE",
"568.714 552 OFFCURVE",
"380.714 552 CURVE SMOOTH",
"198.714 552 OFFCURVE",
"74.015 415 OFFCURVE",
"52 276 CURVE SMOOTH",
"49.149 258 LINE SMOOTH",
"27.45 121 OFFCURVE",
"103.435 -18 OFFCURVE",
"290.435 -18 CURVE SMOOTH"
);
},
{
closed = 1;
nodes = (
"185.056 68 OFFCURVE",
"128.519 153 OFFCURVE",
"146.575 267 CURVE SMOOTH",
"164.947 383 OFFCURVE",
"251.093 466 OFFCURVE",
"367.093 466 CURVE SMOOTH",
"483.093 466 OFFCURVE",
"542.63 381 OFFCURVE",
"524.575 267 CURVE SMOOTH",
"506.835 155 OFFCURVE",
"423.056 68 OFFCURVE",
"304.056 68 CURVE SMOOTH"
);
}
);
width = 1084;
},
{
layerId = "BDDC71A3-6F27-45BF-8BFA-A352BA3DE3E7";
paths = (
{
closed = 1;
nodes = (
"453.019 -16 OFFCURVE",
"563.717 121 OFFCURVE",
"585.575 259 CURVE",
"561.575 259 LINE",
"539.717 121 OFFCURVE",
"595.019 -16 OFFCURVE",
"769.019 -16 CURVE SMOOTH",
"894.019 -16 OFFCURVE",
"984.789 52 OFFCURVE",
"1020.677 146 CURVE",
"988.677 146 LINE",
"961.115 73 OFFCURVE",
"882.77 14 OFFCURVE",
"773.77 14 CURVE SMOOTH",
"621.77 14 OFFCURVE",
"568.301 131 OFFCURVE",
"589.208 263 CURVE SMOOTH",
"609.64 392 OFFCURVE",
"702.695 506 OFFCURVE",
"845.695 506 CURVE SMOOTH",
"977.695 506 OFFCURVE",
"1040.015 407 OFFCURVE",
"1020.059 281 CURVE",
"1034.643 291 LINE",
"580.643 291 LINE",
"575.891 261 LINE",
"1046.891 261 LINE",
"1051.96 293 LINE SMOOTH",
"1071.599 417 OFFCURVE",
"1002.447 536 OFFCURVE",
"850.447 536 CURVE SMOOTH",
"686.447 536 OFFCURVE",
"584.382 403 OFFCURVE",
"562.525 265 CURVE",
"586.525 265 LINE",
"608.382 403 OFFCURVE",
"536.447 536 OFFCURVE",
"369.447 536 CURVE SMOOTH",
"202.447 536 OFFCURVE",
"83.224 402 OFFCURVE",
"61.208 263 CURVE SMOOTH",
"60.258 257 LINE SMOOTH",
"38.876 122 OFFCURVE",
"111.019 -16 OFFCURVE",
"282.019 -16 CURVE SMOOTH"
);
},
{
closed = 1;
nodes = (
"135.77 14 OFFCURVE",
"72.46 132 OFFCURVE",
"92.733 260 CURVE SMOOTH",
"113.64 392 OFFCURVE",
"217.695 506 OFFCURVE",
"364.695 506 CURVE SMOOTH",
"511.695 506 OFFCURVE",
"579.64 392 OFFCURVE",
"558.733 260 CURVE SMOOTH",
"538.46 132 OFFCURVE",
"437.77 14 OFFCURVE",
"286.77 14 CURVE SMOOTH"
);
}
);
width = 1100;
},
{
layerId = "2089B89D-61CE-4065-A534-BEF0C3F67EB7";
name = public.background;
paths = (
{
closed = 1;
nodes = (
"498 -16 OFFCURVE",
"587 121 OFFCURVE",
"587 259 CURVE",
"563 259 LINE",
"563 121 OFFCURVE",
"640 -16 OFFCURVE",
"814 -16 CURVE SMOOTH",
"939 -16 OFFCURVE",
"1019 52 OFFCURVE",
"1040 146 CURVE",
"1008 146 LINE",
"992 73 OFFCURVE",
"923 14 OFFCURVE",
"814 14 CURVE SMOOTH",
"662 14 OFFCURVE",
"590 131 OFFCURVE",
"590 263 CURVE SMOOTH",
"590 392 OFFCURVE",
"665 506 OFFCURVE",
"808 506 CURVE SMOOTH",
"940 506 OFFCURVE",
"1018 407 OFFCURVE",
"1018 281 CURVE",
"1031 291 LINE",
"577 291 LINE",
"577 261 LINE",
"1048 261 LINE",
"1048 293 LINE SMOOTH",
"1048 417 OFFCURVE",
"960 536 OFFCURVE",
"808 536 CURVE SMOOTH",
"644 536 OFFCURVE",
"563 403 OFFCURVE",
"563 265 CURVE",
"587 265 LINE",
"587 403 OFFCURVE",
"494 536 OFFCURVE",
"327 536 CURVE SMOOTH",
"160 536 OFFCURVE",
"62 402 OFFCURVE",
"62 263 CURVE SMOOTH",
"62 257 LINE SMOOTH",
"62 122 OFFCURVE",
"156 -16 OFFCURVE",
"327 -16 CURVE SMOOTH"
);
},
{
closed = 1;
nodes = (
"176 14 OFFCURVE",
"94 132 OFFCURVE",
"94 260 CURVE SMOOTH",
"94 392 OFFCURVE",
"180 506 OFFCURVE",
"327 506 CURVE SMOOTH",
"474 506 OFFCURVE",
"560 392 OFFCURVE",
"560 260 CURVE SMOOTH",
"560 132 OFFCURVE",
"478 14 OFFCURVE",
"327 14 CURVE SMOOTH"
);
}
);
width = 1061;
}
);
leftKerningGroup = lc_Round;
rightKerningGroup = lc_e;
unicode = 0153;
},
{
color = 7;
glyphname = p;
leftMetricsKey = n;
rightMetricsKey = o;
layers = (
{
layerId = "48B7067D-14EA-4B3A-BE9A-22D6185653A2";
paths = (
{
closed = 1;
nodes = (
"202.342 -200 LINE",
"259.36 160 LINE",
"223.913 214 LINE",
"203.205 58 OFFCURVE",
"280.168 -18 OFFCURVE",
"408.168 -18 CURVE SMOOTH",
"569.168 -18 OFFCURVE",
"676.332 103 OFFCURVE",
"701.991 265 CURVE SMOOTH",
"705.792 289 LINE SMOOTH",
"731.45 451 OFFCURVE",
"650.981 568 OFFCURVE",
"499.981 568 CURVE SMOOTH",
"366.981 568 OFFCURVE",
"261.41 476 OFFCURVE",
"229.752 314 CURVE",
"245.752 314 LINE",
"283.447 552 LINE",
"139.447 552 LINE",
"20.342 -200 LINE"
);
},
{
closed = 1;
nodes = (
"315.926 132 OFFCURVE",
"258.053 177 OFFCURVE",
"270.407 255 CURVE SMOOTH",
"275.792 289 LINE SMOOTH",
"288.779 371 OFFCURVE",
"356.224 418 OFFCURVE",
"422.224 418 CURVE SMOOTH",
"495.224 418 OFFCURVE",
"535.354 362 OFFCURVE",
"521.891 277 CURVE SMOOTH",
"508.429 192 OFFCURVE",
"448.926 132 OFFCURVE",
"376.926 132 CURVE SMOOTH"
);
}
);
width = 741;
},
{
layerId = "38B5227D-F751-450D-B2B2-8DC56D0E577B";
paths = (
{
closed = 1;
nodes = (
"144.609 -200 LINE",
"200.835 155 LINE",
"169.506 235 LINE",
"149.522 52 OFFCURVE",
"249.435 -18 OFFCURVE",
"363.435 -18 CURVE SMOOTH",
"515.435 -18 OFFCURVE",
"642.391 108 OFFCURVE",
"666.149 258 CURVE SMOOTH",
"669 276 LINE SMOOTH",
"692.758 426 OFFCURVE",
"610.714 552 OFFCURVE",
"455.714 552 CURVE SMOOTH",
"334.714 552 OFFCURVE",
"222.677 476 OFFCURVE",
"186.593 305 CURVE",
"204.276 303 LINE",
"240.863 534 LINE",
"164.863 534 LINE",
"48.609 -200 LINE"
);
},
{
closed = 1;
nodes = (
"266.739 66 OFFCURVE",
"193.034 131 OFFCURVE",
"210.457 241 CURVE SMOOTH",
"217.742 287 LINE SMOOTH",
"235.64 400 OFFCURVE",
"328.41 468 OFFCURVE",
"425.41 468 CURVE SMOOTH",
"532.41 468 OFFCURVE",
"590.422 386 OFFCURVE",
"571.575 267 CURVE SMOOTH",
"552.727 148 OFFCURVE",
"468.739 66 OFFCURVE",
"361.739 66 CURVE SMOOTH"
);
}
);
width = 722;
},
{
layerId = "BDDC71A3-6F27-45BF-8BFA-A352BA3DE3E7";
paths = (
{
closed = 1;
nodes = (
"97.876 -200 LINE",
"155.845 166 LINE",
"146.14 231 LINE",
"126.025 104 OFFCURVE",
"195.019 -16 OFFCURVE",
"348.019 -16 CURVE SMOOTH",
"513.019 -16 OFFCURVE",
"621.668 127 OFFCURVE",
"642.258 257 CURVE SMOOTH",
"643.208 263 LINE SMOOTH",
"665.065 401 OFFCURVE",
"596.447 536 OFFCURVE",
"435.447 536 CURVE SMOOTH",
"285.447 536 OFFCURVE",
"174.708 424 OFFCURVE",
"153.326 289 CURVE",
"171.068 300 LINE",
"205.913 520 LINE",
"179.913 520 LINE",
"65.876 -200 LINE"
);
},
{
closed = 1;
nodes = (
"214.77 14 OFFCURVE",
"146.084 117 OFFCURVE",
"164.457 233 CURVE SMOOTH",
"173.009 287 LINE SMOOTH",
"192.649 411 OFFCURVE",
"296.695 506 OFFCURVE",
"428.695 506 CURVE SMOOTH",
"568.695 506 OFFCURVE",
"631.64 392 OFFCURVE",
"610.733 260 CURVE SMOOTH",
"591.093 136 OFFCURVE",
"494.77 14 OFFCURVE",
"350.77 14 CURVE SMOOTH"
);
}
);
width = 707;
},
{
layerId = "2089B89D-61CE-4065-A534-BEF0C3F67EB7";
name = public.background;
paths = (
{
closed = 1;
nodes = (
"140 -200 LINE",
"140 166 LINE",
"120 231 LINE",
"120 104 OFFCURVE",
"208 -16 OFFCURVE",
"361 -16 CURVE SMOOTH",
"526 -16 OFFCURVE",
"612 127 OFFCURVE",
"612 257 CURVE SMOOTH",
"612 263 LINE SMOOTH",
"612 401 OFFCURVE",
"522 536 OFFCURVE",
"361 536 CURVE SMOOTH",
"211 536 OFFCURVE",
"118 424 OFFCURVE",
"118 289 CURVE",
"134 300 LINE",
"134 520 LINE",
"108 520 LINE",
"108 -200 LINE"
);
},
{
closed = 1;
nodes = (
"223 14 OFFCURVE",
"138 117 OFFCURVE",
"138 233 CURVE SMOOTH",
"138 287 LINE SMOOTH",
"138 411 OFFCURVE",
"227 506 OFFCURVE",
"359 506 CURVE SMOOTH",
"499 506 OFFCURVE",
"580 392 OFFCURVE",
"580 260 CURVE SMOOTH",
"580 136 OFFCURVE",
"503 14 OFFCURVE",
"359 14 CURVE SMOOTH"
);
}
);
width = 741;
}
);
leftKerningGroup = lc_p;
rightKerningGroup = lc_Round;
unicode = 0070;
},
{
color = 7;
glyphname = thorn;
leftMetricsKey = n;
rightMetricsKey = o;
layers = (
{
layerId = "48B7067D-14EA-4B3A-BE9A-22D6185653A2";
paths = (
{
closed = 1;
nodes = (
"202.513 -200 LINE",
"259.214 158 LINE",
"223.767 212 LINE",
"203.059 56 OFFCURVE",
"280.339 -18 OFFCURVE",
"408.339 -18 CURVE SMOOTH",
"569.339 -18 OFFCURVE",
"676.187 101 OFFCURVE",
"701.845 263 CURVE SMOOTH",
"705.646 287 LINE SMOOTH",
"731.938 453 OFFCURVE",
"661.519 564 OFFCURVE",
"514.519 564 CURVE SMOOTH",
"381.519 564 OFFCURVE",
"291.264 474 OFFCURVE",
"264.357 342 CURVE",
"288.357 342 LINE",
"349.81 730 LINE",
"167.81 730 LINE",
"20.513 -200 LINE"
);
},
{
closed = 1;
nodes = (
"316.096 132 OFFCURVE",
"257.907 175 OFFCURVE",
"270.261 253 CURVE SMOOTH",
"275.646 287 LINE SMOOTH",
"288.634 369 OFFCURVE",
"355.761 414 OFFCURVE",
"421.761 414 CURVE SMOOTH",
"494.761 414 OFFCURVE",
"535.208 360 OFFCURVE",
"521.745 275 CURVE SMOOTH",
"508.283 190 OFFCURVE",
"449.096 132 OFFCURVE",
"377.096 132 CURVE SMOOTH"
);
}
);
width = 742;
},
{
layerId = "38B5227D-F751-450D-B2B2-8DC56D0E577B";
paths = (
{
closed = 1;
nodes = (
"144.513 -200 LINE",
"201.056 157 LINE",
"169.727 237 LINE",
"149.742 54 OFFCURVE",
"245.656 -16 OFFCURVE",
"365.656 -16 CURVE SMOOTH",
"515.656 -16 OFFCURVE",
"640.87 99 OFFCURVE",
"665.894 257 CURVE SMOOTH",
"669.062 277 LINE SMOOTH",
"694.245 436 OFFCURVE",
"613.935 554 OFFCURVE",
"461.935 554 CURVE SMOOTH",
"337.935 554 OFFCURVE",
"226.581 476 OFFCURVE",
"190.814 307 CURVE",
"232.416 355 LINE",
"291.81 730 LINE",
"195.81 730 LINE",
"48.513 -200 LINE"
);
},
{
closed = 1;
nodes = (
"266.96 68 OFFCURVE",
"193.255 133 OFFCURVE",
"210.677 243 CURVE SMOOTH",
"217.963 289 LINE SMOOTH",
"235.86 402 OFFCURVE",
"328.63 470 OFFCURVE",
"425.63 470 CURVE SMOOTH",
"531.63 470 OFFCURVE",
"590.96 390 OFFCURVE",
"572.112 271 CURVE SMOOTH",
"553.581 154 OFFCURVE",
"468.96 68 OFFCURVE",
"361.96 68 CURVE SMOOTH"
);
}
);
width = 722;
},
{
layerId = "BDDC71A3-6F27-45BF-8BFA-A352BA3DE3E7";
paths = (
{
closed = 1;
nodes = (
"97.513 -200 LINE",
"155.481 166 LINE",
"145.776 231 LINE",
"125.662 104 OFFCURVE",
"194.656 -16 OFFCURVE",
"347.656 -16 CURVE SMOOTH",
"512.656 -16 OFFCURVE",
"621.305 127 OFFCURVE",
"641.894 257 CURVE SMOOTH",
"642.845 263 LINE SMOOTH",
"664.702 401 OFFCURVE",
"596.084 536 OFFCURVE",
"435.084 536 CURVE SMOOTH",
"288.084 536 OFFCURVE",
"174.661 426 OFFCURVE",
"153.596 293 CURVE",
"186.208 360 LINE",
"244.81 730 LINE",
"212.81 730 LINE",
"65.513 -200 LINE"
);
},
{
closed = 1;
nodes = (
"214.407 14 OFFCURVE",
"145.721 117 OFFCURVE",
"164.093 233 CURVE SMOOTH",
"172.646 287 LINE SMOOTH",
"192.286 411 OFFCURVE",
"298.332 506 OFFCURVE",
"428.332 506 CURVE SMOOTH",
"568.332 506 OFFCURVE",
"631.276 392 OFFCURVE",
"610.37 260 CURVE SMOOTH",
"590.73 136 OFFCURVE",
"494.407 14 OFFCURVE",
"350.407 14 CURVE SMOOTH"
);
}
);
width = 706;
},
{
layerId = "2089B89D-61CE-4065-A534-BEF0C3F67EB7";
name = public.background;
paths = (
{
closed = 1;
nodes = (
"140 -200 LINE",
"140 166 LINE",
"120 231 LINE",
"120 104 OFFCURVE",
"208 -16 OFFCURVE",
"361 -16 CURVE SMOOTH",
"526 -16 OFFCURVE",
"612 127 OFFCURVE",
"612 257 CURVE SMOOTH",
"612 263 LINE SMOOTH",
"612 401 OFFCURVE",
"522 536 OFFCURVE",
"361 536 CURVE SMOOTH",
"214 536 OFFCURVE",
"118 426 OFFCURVE",
"118 293 CURVE",
"140 360 LINE",
"140 730 LINE",
"108 730 LINE",
"108 -200 LINE"
);
},
{
closed = 1;
nodes = (
"223 14 OFFCURVE",
"138 117 OFFCURVE",
"138 233 CURVE SMOOTH",
"138 287 LINE SMOOTH",
"138 411 OFFCURVE",
"229 506 OFFCURVE",
"359 506 CURVE SMOOTH",
"499 506 OFFCURVE",
"580 392 OFFCURVE",
"580 260 CURVE SMOOTH",
"580 136 OFFCURVE",
"503 14 OFFCURVE",
"359 14 CURVE SMOOTH"
);
}
);
width = 742;
}
);
leftKerningGroup = lc_LongStem;
rightKerningGroup = lc_Round;
unicode = 00FE;
},
